<?xml version="1.0" encoding="UTF-8"?><svg xmlns="http://www.w3.org/2000/svg" viewBox="0 0 75.02 75"><defs><style>.d{fill:#414039;}</style></defs><g id="a"/><g id="b"><g id="c"><g><path class="d" d="M39.85,74.98c-5.22,0-10.44,.01-15.66,0-2.35,0-4.1-1.15-5.27-3.11-.5-.83-.79-1.79-.78-2.83,.02-5.62,0-11.25,0-16.87q0-1.37-1.34-1.37c-1.56,0-3.12,0-4.67,0-1,0-1.1-.1-1.25-1.07-.02-.12-.03-.24-.05-.36-.22-1.21-.76-1.41-1.75-.67-.74,.55-1.4,.62-2.06-.09-1.62-1.75-3.36-3.38-5.05-5.06-.45-.44-.44-1.03,.04-1.7,.88-1.26,.7-1.67-.84-1.91C.06,39.77,0,39.71,0,38.6c0-2.35,0-4.69,0-7.04,0-1.09,.07-1.16,1.12-1.32,.14-.02,.28-.04,.42-.07,1.09-.23,1.29-.76,.62-1.66-.72-.97-.72-1.3,.13-2.17,1.66-1.7,3.35-3.39,5.03-5.07,.38-.38,1.01-.32,1.62,.1,.2,.14,.39,.29,.6,.4,.61,.3,.99,.14,1.18-.53,.09-.33,.16-.67,.19-1.01,.05-.62,.4-.84,.96-.85,.79,0,1.58,0,2.37,0,1.03,0,2.06,0,3.1,0,.73,0,.81-.08,.81-.8,0-3.86,.02-7.73,0-11.59,0-1.23,.05-2.42,.63-3.54,.65-1.26,1.6-2.19,2.88-2.83C22.77,.03,23.97,0,25.19,0,35.06,.01,44.93,.02,54.8,0c1.21,0,2.38,.08,3.48,.64,1.24,.64,2.16,1.58,2.8,2.83,.57,1.13,.62,2.32,.61,3.54,0,4.61,0,9.22,0,13.84,0,.28,.01,.57,.02,.85,.01,.41,.23,.58,.63,.67,1.78,.41,3.4,1.21,4.94,2.18,1.43,.91,2.65,2.03,3.74,3.31,.86,1.01,1.55,2.15,2.17,3.33,.77,1.45,1.22,2.99,1.52,4.57,.39,2.06,.44,4.14-.09,6.2-.24,.92-.41,1.84-.76,2.74-.58,1.48-1.34,2.83-2.27,4.11-.97,1.35-2.15,2.51-3.5,3.48-1.27,.92-2.61,1.73-4.13,2.22-.61,.2-1.18,.52-1.84,.58-.25,.02-.39,.22-.41,.46-.03,.3-.05,.61-.05,.91,0,4.03-.02,8.05,0,12.08,.01,1.83-.56,3.41-1.87,4.69-1.11,1.08-2.44,1.72-4.01,1.73-4.96,.02-9.91,.02-14.87,.03-.36,0-.73,0-1.09,0v-.02Zm-14.45-37.5c0,6.49,0,12.99,0,19.48q0,1.09,1.06,1.09c8.96,0,17.93,0,26.89,0,.18,0,.36,0,.55,0,.35,0,.52-.2,.52-.53,0-.59,0-1.17-.02-1.76,0-.43-.22-.67-.66-.71-.84-.08-1.6-.46-2.34-.79-1.86-.83-3.56-1.92-5.06-3.36-2.13-2.05-3.62-4.48-4.5-7.27-.65-2.05-.89-4.19-.68-6.35,.09-.89-.01-.98-.91-.98-3.84,0-7.69,0-11.53,0-.84,0-.9-.06-.9-.89,0-5.04,0-10.07,0-15.11,0-.88,.05-.94,.92-.94,7.45,0,14.89,0,22.34,0,.88,0,.92,.05,.93,.93,0,.67,0,1.34,.04,2,.03,.41,.2,.67,.67,.37,.26-.17,.57-.24,.87-.26,.63-.02,.84-.38,.84-.94,0-1.17,0-2.35,0-3.52,0-.97-.03-1-.98-1-9,0-18.01,0-27.01,0-1.03,0-1.04,0-1.04,1.07,0,6.49,0,12.99,0,19.48Zm-4.84,.01c0,8.11,0,16.23,0,24.34,0,1.05,0,1.07,1.04,1.07,12.22,0,24.44,0,36.67,0,.97,0,1-.03,1-.98,0-1.54,0-3.08,0-4.61,0-1.96,.13-1.64-1.69-1.69-.52-.01-.74,.19-.73,.71,.02,1.11,0,2.23,0,3.34,0,.73-.08,.81-.8,.81-10.76,0-21.53,0-32.29,0-.59,0-.77-.23-.77-.79,0-14.79,0-29.58,0-44.37,0-.72,.09-.81,.8-.81,10.76,0,21.53,0,32.29,0,.59,0,.78,.23,.77,.79-.02,1.64,0,3.28,0,4.92,0,1.82-.08,1.55,1.56,1.56,.79,0,.86-.06,.86-.87,0-2.61,0-5.22,0-7.83,0-.95-.03-.98-1-.98-12.24,0-24.48,0-36.73,0-.95,0-.98,.03-.98,1,0,8.13,0,16.27,0,24.4Zm31.47-3.59h.02c0-.59-.02-1.17,0-1.76,.03-.87,.39-1.67,.81-2.39,.75-1.3,1.83-2.26,3.29-2.79,1.78-.65,3.42-.36,4.99,.55,1.29,.75,2.17,1.85,2.61,3.28,.6,1.94,.44,3.91,.12,5.87,0,.04-.04,.07-.05,.11-.36,1.02-.88,1.93-1.67,2.7-.38,.37-.25,.86,.23,.91,1.11,.13,2.14,.57,3.24,.78,.98,.19,1.94,.48,2.82,1.03,.92,.57,1.55,1.4,2.21,2.21,.12,.15,.2,.4,.45,.34,.2-.05,.21-.27,.29-.43,.43-.81,.58-1.72,.81-2.59,.71-2.61,.42-5.19-.41-7.7-.59-1.78-1.53-3.41-2.81-4.82-1.12-1.23-2.35-2.35-3.81-3.14-1.24-.67-2.56-1.13-3.94-1.49-2.69-.69-5.31-.44-7.88,.41-1.76,.58-3.36,1.54-4.78,2.77-2.01,1.75-3.45,3.9-4.31,6.39-.71,2.07-.94,4.23-.61,6.4,.16,1.09,.38,2.2,.85,3.21,.6,1.28,.61,1.25,1.44,.05,.62-.89,1.44-1.61,2.45-2.01,.87-.34,1.79-.61,2.73-.77,.89-.16,1.74-.49,2.64-.64,.44-.07,.55-.46,.29-.83-.1-.15-.25-.26-.37-.4-.94-1.07-1.59-2.28-1.64-3.73-.02-.5,0-1.01,0-1.52Zm9.67-.4c.11-1.11-.1-2.48-1.26-3.57-.79-.75-2.57-1.16-3.52-.72-1.59,.73-2.47,1.95-2.48,3.74,0,.69,0,1.37,0,2.06,.01,1.39,.65,2.42,1.81,3.14,.32,.19,.54,.45,.57,.81,.05,.89,.07,1.78-.01,2.66-.04,.4-.26,.6-.67,.66-.46,.07-.92,.16-1.36,.27-1.29,.32-2.57,.7-3.86,.98-1.53,.33-2.85,.92-3.48,2.47-.32,.78-.52,1.66-.03,2.38,.69,1,1.68,1.73,2.69,2.4,1.47,.97,3.08,1.6,4.8,2.05,2.67,.69,5.27,.43,7.82-.4,1.82-.59,3.49-1.56,4.91-2.9,.49-.46,1.17-.83,1.29-1.55,.27-1.62-.71-3.44-2.25-4.01-.79-.29-1.61-.38-2.39-.63-1.39-.43-2.8-.77-4.22-1.05-.51-.1-.76-.35-.76-.84-.01-.79-.02-1.58,0-2.37,0-.44,.23-.75,.62-.97,.53-.3,.91-.75,1.25-1.27,.62-.94,.52-1.97,.55-3.36ZM39.88,9.69c6.17,0,12.34,0,18.5,0,.8,0,.87-.07,.88-.8,0-.87-.03-1.74,0-2.61,.1-2.11-1.73-3.88-3.9-3.87-10.31,.05-20.63,.05-30.94,0-2.13-.01-4.02,1.77-3.88,3.88,.05,.72,0,1.46,0,2.18q0,1.22,1.19,1.22c6.05,0,12.09,0,18.14,0Zm.05,55.63c-4.45,0-8.9,0-13.35,0-1.76,0-3.52,0-5.28,0-.41,0-.74,.06-.73,.57,.01,1.19-.07,2.4,.06,3.58,.12,1.1,.74,1.95,1.72,2.56,.81,.5,1.67,.56,2.56,.55,6.13,0,12.26,0,18.39,0,4.07,0,8.13-.03,12.2,0,2.11,.02,3.87-1.76,3.79-3.86-.03-.79,0-1.58,0-2.37,0-1.02-.01-1.03-1.01-1.03-6.11,0-12.22,0-18.33,0Zm.01-43.55c-2.97,0-5.95,0-8.92,0-.47,0-.78,.09-.78,.65,0,3.6,0,7.2,0,10.8,0,.46,.21,.65,.66,.65,3.4,0,6.8,0,10.19,0,.44,0,.71-.19,.93-.56,.25-.41,.26-.89,.46-1.31,.8-1.63,1.7-3.2,2.94-4.55,.9-.98,1.84-1.94,3-2.62,.8-.47,1.35-1,1.17-2-.01-.08,0-.16,0-.24,0-.75-.08-.83-.85-.83-2.93,0-5.87,0-8.8,0ZM15.61,48.38c.28,0,.57,0,.85,0,1.88-.02,1.66,.22,1.67-1.69,0-.89,.02-1.78-.01-2.67-.01-.33,0-.8-.59-.66-1.02,.25-2.06,.25-3.08,.09-1.23-.2-2.43-.62-3.45-1.36-1.59-1.16-2.74-2.64-3.35-4.59-.81-2.58-.35-4.94,1.05-7.1,1.05-1.62,2.57-2.76,4.5-3.36,1.37-.42,2.69-.47,4.06-.29,.71,.09,.85,.02,.86-.72,.01-1.19,0-2.39,0-3.58,0-.44-.17-.68-.64-.67-1.23,.01-2.47,0-3.7,0-.59,0-.95,.27-1.03,.88-.06,.46-.13,.93-.26,1.37-.32,1.03-1.42,1.42-2.35,.89-.32-.18-.63-.36-.93-.56-.79-.51-1.18-.45-1.85,.22-.73,.73-1.46,1.46-2.19,2.19-.61,.6-.66,.97-.24,1.71,.08,.14,.22,.25,.28,.4,.2,.55,.83,.97,.61,1.64-.24,.74-.67,1.34-1.54,1.45-.32,.04-.64,.12-.96,.15-.64,.07-.93,.43-.93,1.05,0,1.27,0,2.55,0,3.82,0,.63,.3,.97,.94,1.04,.5,.06,1.01,.11,1.48,.31,.88,.38,1.24,1.45,.76,2.24-.22,.36-.44,.72-.64,1.09-.43,.79-.38,1.07,.25,1.7,.73,.73,1.46,1.45,2.19,2.19,.68,.69,1.03,.73,1.86,.23,.39-.24,.79-.49,1.18-.74,.26-.17,.55-.18,.81-.08,.72,.27,1.24,.75,1.38,1.55,.05,.3,.09,.6,.15,.9,.14,.75,.35,.92,1.1,.94,.59,.01,1.17,0,1.76,0Zm2.52-13.26c0-1.58-.02-3.15,0-4.73,0-.55-.21-.87-.7-1.07-.32-.14-.66-.2-1-.23-1.58-.18-3,.22-4.28,1.15-1.38,1-2.17,2.37-2.44,4.03-.27,1.64,.19,3.13,1.18,4.44,1.42,1.88,3.79,2.83,6.18,2.28,.88-.2,1.05-.46,1.05-1.36,0-1.5,0-2.99,0-4.49Z"/><path class="d" d="M12.11,70.16q-1.23,0-1.23-1.23c0-2.57,0-5.13,0-7.7,0-.65-.16-1.07-.81-1.45-1.33-.79-2.14-2.81-1.25-4.45,.77-1.42,1.89-2.16,3.51-2.09,2.14,.09,3.88,2.4,3.27,4.45-.27,.92-.75,1.8-1.72,2.22-.56,.24-.59,.72-.59,1.21,0,1.96,0,3.92,0,5.88,0,.75,0,1.5,0,2.24,0,.85-.05,.9-.89,.91-.1,0-.2,0-.3,0Zm-.08-12.14c.6,.03,1.19-.51,1.23-1.09,.04-.63-.51-1.23-1.13-1.25-.59-.02-1.17,.53-1.2,1.13-.02,.6,.51,1.19,1.1,1.22Z"/><path class="d" d="M66.51,9.75c0-1.38,.02-2.75,0-4.13-.01-.58,.21-.79,.79-.78,1.83,.03,1.63-.16,1.64,1.62,0,2.43,0,4.85,0,7.28,0,.67,.19,1.1,.85,1.5,1.31,.8,2.09,2.77,1.22,4.41-.79,1.48-1.96,2.22-3.62,2.1-2.34-.17-4.11-2.96-2.86-5.15,.4-.69,.83-1.26,1.57-1.6,.41-.19,.42-.61,.43-1,0-1.42,0-2.83,0-4.25h0Zm1.24,7.24c-.61-.01-1.18,.52-1.19,1.12-.02,.62,.55,1.21,1.17,1.21,.59,0,1.16-.57,1.16-1.16,0-.61-.53-1.16-1.14-1.17Z"/><path class="d" d="M13.3,73.8q0,1.2-1.19,1.2t-1.23-1.22,1.19-1.2,1.23,1.22Z"/><path class="d" d="M67.72,2.43q-1.21,0-1.21-1.19c0-.12,0-.24,0-.36,0-.8,.07-.87,.85-.87,1.7,0,1.56-.17,1.56,1.54,0,.8-.07,.87-.85,.87-.12,0-.24,0-.36,0Z"/><path class="d" d="M33.32,53.22c1.52,0,3.03,0,4.55,0,.73,0,.82,.08,.82,.79,0,1.85,.16,1.63-1.61,1.63-2.79,0-5.58,0-8.37,0-.81,0-.88-.07-.88-.85,0-1.76-.13-1.56,1.56-1.57,1.31,0,2.63,0,3.94,0Z"/><path class="d" d="M33.26,41.13c-1.56,0-3.11-.02-4.67,0-.58,0-.78-.22-.78-.79,.03-1.83-.16-1.63,1.62-1.63,2.81,0,5.62,0,8.43,0,.76,0,.83,.07,.83,.84,0,1.73,.16,1.57-1.55,1.58-1.29,0-2.59,0-3.88,0Z"/><path class="d" d="M33.24,45.96c-1.56,0-3.11-.01-4.67,0-.54,0-.76-.19-.76-.74,.02-1.88-.16-1.68,1.64-1.68,2.79,0,5.58,0,8.37,0,.79,0,.87,.08,.87,.86,0,1.7,.15,1.55-1.51,1.55-1.31,0-2.63,0-3.94,0Z"/><path class="d" d="M33.26,48.38c1.54,0,3.07,0,4.61,0,.73,0,.82,.09,.82,.79,0,1.84,.16,1.63-1.62,1.63-2.79,0-5.58,0-8.37,0-.82,0-.89-.06-.89-.85,0-1.74-.13-1.57,1.56-1.58,1.29,0,2.59,0,3.88,0Z"/><path class="d" d="M37.44,7.27c-1.35,0-2.71-.01-4.06,0-.55,0-.75-.22-.75-.76,.02-1.88-.16-1.66,1.65-1.66,2.4,0,4.81,0,7.21,0,.75,0,.83,.07,.83,.84,0,1.73,.16,1.58-1.55,1.58-1.11,0-2.22,0-3.33,0Z"/><path class="d" d="M47.16,6.07c0,.1,0,.2,0,.3,0,.84-.06,.9-.89,.9-1.66,0-1.53,.16-1.53-1.52,0-.85,.05-.89,.89-.9,.1,0,.2,0,.3,0q1.23,0,1.23,1.22Z"/><path class="d" d="M39.9,70.16c-1.37,0-2.75-.01-4.12,0-.52,0-.73-.2-.72-.72,.02-1.94-.16-1.7,1.67-1.7,2.4,0,4.81,0,7.21,0,.72,0,.8,.08,.8,.8,0,1.8,.16,1.61-1.57,1.62-1.09,0-2.18,0-3.27,0Z"/><path class="d" d="M53.19,70.16c-.14,0-.28-.01-.42,0-.58,.06-.78-.21-.77-.78,.03-1.84-.18-1.62,1.66-1.65,.58,0,.82,.22,.77,.79-.01,.14,0,.28,0,.42q0,1.22-1.23,1.22Z"/><path class="d" d="M26.64,70.16q-1.24,0-1.24-1.22c0-.14,.01-.28,0-.42-.05-.58,.21-.79,.78-.78,1.73,.03,1.65-.17,1.64,1.44q0,.99-1.18,.99Z"/></g></g></g></svg>