<?xml version="1.0" encoding="UTF-8"?><svg xmlns="http://www.w3.org/2000/svg" viewBox="0 0 485.9 114.91"><defs><style>.d{fill:#404040;}</style></defs><g id="a"/><g id="b"><g id="c"><g><path class="d" d="M450.01,1c11.53-.38,21.07,3.33,28.43,12.19,3.61,4.34,3.64,4.56-.94,7.61-1.18,.78-2.34,1.59-3.53,2.36-2.3,1.48-4,1.17-5.76-1.14-2.29-3.01-4.79-5.75-8.36-7.29-7-3.02-13.97-3-20.69,.61-8.6,4.61-9.63,16.49-2.1,22.74,3.15,2.62,6.73,4.57,10.37,6.43,6.82,3.48,13.87,6.5,20.46,10.41,5.41,3.21,10.35,6.99,13.84,12.35,6.22,9.53,5.83,26.58-3.61,36.1-8.85,8.93-19.54,11.44-31.52,10.52-13.69-1.05-23.32-8.34-30.39-19.65-1.29-2.07-1.38-3.49,.97-4.85,2.44-1.41,4.73-3.1,7.01-4.77,1.44-1.05,2.27-.83,3.09,.76,1.92,3.7,4.14,7.21,7.17,10.14,7.98,7.73,21.83,8.83,30.39,2.41,9.43-7.08,9.61-20.86,.4-28.25-5.32-4.27-11.41-7.12-17.67-9.67-7.99-3.25-15.62-7.14-21.76-13.36-13.72-13.88-8.44-36.84,9.94-43.41,4.68-1.67,9.48-2.49,14.26-2.24Z"/><path class="d" d="M120.13,57.26c0-16.71,0-33.43,0-50.14,0-3.42,.09-3.52,3.48-3.52,9.57,0,19.15-.1,28.72,.04,5.42,.08,10.79,.87,15.88,2.88,7.77,3.07,13.33,8.3,16,16.37,2.14,6.47,2.68,13.02,1.13,19.66-3.04,12.97-11.76,19.71-24.46,22.11-7.77,1.47-15.6,.81-23.4,.95-4.1,.07-4.1,.02-4.1,4.14,0,12.72,0,25.44,0,38.17,0,3.17-.27,3.43-3.39,3.46-2.16,.02-4.33,.02-6.49,0-3.12-.04-3.34-.26-3.34-3.48,0-16.88,0-33.76,0-50.64Zm13.24-22.62c0,5.32,.07,10.64-.03,15.96-.04,2.1,.56,3.02,2.81,2.96,5.07-.14,10.15-.05,15.23-.08,3.78-.02,7.46-.63,10.98-2.02,3.25-1.28,5.97-3.27,7.77-6.35,7.13-12.13,.56-26.26-13.24-28.47-7.12-1.14-14.29-.37-21.43-.58-1.91-.06-2.1,1.14-2.1,2.62,.03,5.32,0,10.64,0,15.96Z"/><path class="d" d="M51.07,83.03c-7.24,0-14.48,0-21.72,0q-4.13,0-5.72,3.93c-2.9,7.17-5.86,14.31-8.66,21.52-.81,2.09-2,3.04-4.27,2.93-2.74-.13-5.49,.01-8.24-.05-2.63-.06-2.98-.64-1.85-3,4.19-8.78,8.41-17.54,12.6-26.32C25.19,56.99,37.15,31.93,49.13,6.88c.18-.38,.34-.76,.55-1.12,.33-.55,.47-1.4,1.29-1.35,.76,.05,.96,.85,1.23,1.43,3.53,7.35,7.03,14.7,10.56,22.05,6.48,13.49,13,26.96,19.47,40.45,6.39,13.35,12.75,26.71,19.1,40.08,1.15,2.43,.86,2.9-1.83,2.95-2.75,.05-5.5-.08-8.24,.04-2.15,.09-3.37-.79-4.16-2.76-2.93-7.33-6.09-14.58-8.89-21.96-1.04-2.73-2.37-3.84-5.41-3.74-7.23,.24-14.48,.08-21.72,.08Zm-.15-55.27c-.48,.74-.69,.99-.82,1.28-6.29,13.4-12.55,26.81-18.88,40.19-.97,2.05-.01,2.22,1.64,2.22,11.74-.02,23.48,0,35.22-.01,3.28,0,3.43-.24,2.05-3.15-5.1-10.74-10.22-21.48-15.32-32.22-1.24-2.62-2.46-5.25-3.89-8.3Z"/><path class="d" d="M230.62,63.76c0-14.8-.05-29.61,.05-44.41,.02-2.52-.73-3.3-3.26-3.27-10.07,.13-20.15,.06-30.22,.05-3.19,0-3.41-.23-3.44-3.38-.02-2.25,.01-4.49,.03-6.74,0-1.62,.77-2.47,2.46-2.41,.66,.03,1.33,0,2,0,26.23,0,52.45,0,78.68,0,4.03,0,4.18,.16,4.2,4.23,0,1.66,.03,3.33,0,4.99-.06,2.94-.41,3.31-3.35,3.31-10.07,.02-20.15,0-30.22,.01-3.29,0-3.37,.07-3.37,3.35,0,28.86,0,57.72,0,86.58,0,.91-.02,1.83-.02,2.74,0,1.77-.91,2.57-2.64,2.56-2.75,0-5.5-.03-8.24,.02-1.91,.04-2.67-.81-2.65-2.71,.06-5.65,.02-11.31,.02-16.97,0-9.32,0-18.63,0-27.95Z"/><path class="d" d="M314.83,38.38c7.91,0,15.82-.13,23.72,.05,4.08,.09,7.34-.99,9.62-4.51,.49-.75,1.18-1.42,1.88-1.98,1.49-1.18,3.06-1.17,4.58,0,.46,.35,.94,.74,1.24,1.22,2.71,4.43,6.69,5.52,11.7,5.31,8.23-.34,16.48-.04,24.72-.13,2.03-.02,2.99,.67,3.5,2.62,.82,3.14,1.62,6.27,2.06,9.5,.25,1.84-.36,2.64-2.24,2.64-13.32-.02-26.64-.01-39.96-.01-1.69,0-3.07-.63-4.19-1.88-1-1.12-1.99-2.24-2.99-3.35-2.01-2.22-3.61-2.28-5.71-.25-.06,.06-.13,.11-.17,.18-3.13,4.68-7.56,5.55-12.96,5.42-14.23-.33-28.47-.11-42.7-.12-3.29,0-3.68-.42-3.22-3.61,.41-2.88,1.08-5.71,1.85-8.53,.52-1.91,1.51-2.65,3.55-2.62,8.57,.1,17.15,.04,25.72,.04Z"/><path class="d" d="M362.68,82.6c-8.66,0-17.32-.1-25.97,.06-2.95,.06-5.01-.91-6.89-3.13-4.48-5.28-5.14-5.36-9.65-.09-2.15,2.51-4.46,3.29-7.59,3.21-6.9-.17-13.82-.12-20.72-.01-2.07,.03-3.21-.71-3.97-2.59-1.22-3.01-2.43-6.01-3.13-9.2-.67-3.04-.44-3.34,2.66-3.35,10.16-.02,20.32-.21,30.46,.09,4.49,.13,7.78-1.15,10.6-4.64,2.81-3.49,4.35-3.33,7.45,0,.57,.61,1.23,1.16,1.67,1.85,1.43,2.24,3.49,2.74,6,2.73,16.15-.07,32.3-.03,48.44-.03,5.71,0,5.73,0,4.02,5.5-.67,2.14-1.52,4.23-2.16,6.38-.72,2.43-2.12,3.34-4.75,3.29-8.82-.16-17.65-.06-26.47-.06Z"/><path class="d" d="M379.96,23.65c-1.33,0-2.66,0-3.99,0-2.07-.01-3.55-1.04-4.88-2.58-4.98-5.75-5.09-5.8-10.38-.28-2.01,2.09-4.15,2.94-7.04,2.92-18.39-.09-36.77-.05-55.16-.05-.67,0-1.33,0-2-.02-1.56-.04-1.69-.71-.85-1.87,1.93-2.63,4.22-4.93,6.66-7.07C314.27,4.24,328.2-.79,344.07,.1c16.87,.95,30.54,8.42,41.42,21.19,.42,.5,.99,1.03,.71,1.75-.31,.78-1.12,.59-1.75,.6-1.5,.03-2.99,.01-4.49,0Z"/><path class="d" d="M342.57,114.91c-17.7-.17-30.97-5.91-42.22-16.53-1.31-1.23-2.24-2.21,.5-2.86,2.42-.57,3.66-2.78,5.22-4.48,2.64-2.89,4.88-3.07,7.17,.03,2.72,3.69,5.99,4.97,10.64,4.89,18.07-.28,36.14-.11,54.21-.11,.67,0,1.34-.04,2,.01,.71,.05,1.65-.29,2.04,.52,.41,.86-.45,1.35-.96,1.83-1.64,1.53-3.26,3.1-5.03,4.48-10.49,8.16-22.43,12.14-33.56,12.23Z"/></g></g></g></svg>