<?xml version="1.0" encoding="UTF-8"?><svg xmlns="http://www.w3.org/2000/svg" viewBox="0 0 210.1 113.12"><defs><style>.d{fill:#d6d3c1;}.e{fill:#414039;}</style></defs><g id="a"/><g id="b"><g id="c"><g><g><path class="d" d="M27.02,87.27l.73,2.51-1.79,1.3-1.23-7.95,2.27-.66,2.07,7.55c-1.17,1.92-2.97,3.57-5.53,4.32-5.74,1.68-11.98-2.53-15.31-13.95-3.38-11.58,0-18.42,5.6-20.05,2.25-.66,4.31-.36,6.54,.71l2.33,7.55-2.27,.66-3.28-7.43,2.22,.17,.79,2.7c-2.03-1.68-3.48-2.2-4.83-1.81-3.19,.93-4.74,6-1.82,15.99,2.91,9.96,6.81,13.35,9.97,12.43,1.48-.43,2.65-1.87,3.53-4.04Z"/><path class="d" d="M27.84,79.16c-2.2-7.52-.34-13.43,3.93-14.67,4.25-1.24,8.98,2.63,11.21,10.25,2.23,7.62,.74,13.52-3.87,14.87-4.65,1.36-9.07-2.93-11.27-10.44Zm10.12-2.84c-2.03-6.94-3.78-9.77-5.45-9.28-1.69,.49-1.62,3.81,.4,10.75,2.04,6.97,3.76,9.75,5.44,9.26,1.67-.49,1.64-3.76-.4-10.73Z"/><path class="d" d="M49.71,85.71c-.58-2.22-2.02-7.26-2.91-10.29l-.83-2.83c-.79-2.69-1.09-3.71-1.75-5.64l-1.95,.09-.56-1.92,4.93-4.97,.66,.38,1.86,5.34,2.38,8.16c.89,3.03,2.39,8.06,3.09,10.24l-4.93,1.44Zm9.03-19.96l1.66,5.7c.91,3.13,2.39,8.06,3.09,10.24l-4.84,1.42c-.58-2.22-1.99-7.17-2.91-10.29l-1.38-4.71c-1-3.42-1.78-4.55-3.09-4.17-1.29,.38-2.13,2.53-2.49,4.62l-1.1,.32-.92-3.15,1.86-.54-.49,1.63c.53-4.91,1.62-7.56,3.87-8.22,2.82-.82,5.09,1.52,6.74,7.16Zm-3.41,15.85l.67,2.28-7.84,2.29-.67-2.28,2.48-1.79,2.27-.66,3.09,.16Zm12.3-18.19l1.59,5.46c.91,3.13,2.39,8.06,3.09,10.24l-4.84,1.42c-.58-2.22-2-7.17-2.91-10.29l-1.38-4.73c-1.07-3.68-1.83-4.51-3.05-4.15-1.28,.37-2.08,2.1-2.57,4.64l-1.06,.31-.95-3.26,2.1-.62-.79,1.84c.63-5.68,1.87-7.64,3.9-8.23,3.01-.88,5.17,1.56,6.87,7.38Zm-6.47,15.43l3.03,.18,.66,2.28-7.69,2.25-.67-2.28,2.35-1.75,2.32-.68Zm8.84-2.58l3.09,.16,.66,2.28-7.67,2.24-.67-2.28,2.2-1.7,2.38-.7Z"/><path class="d" d="M67.37,45.94c-.67-2.28-.01-4.22,1.39-4.63,1.4-.41,3,.87,3.66,3.15,.66,2.27,.01,4.22-1.39,4.63-1.4,.41-3-.88-3.66-3.15Zm9.44,31.85c-.58-2.22-2.02-7.26-2.91-10.29l-.68-2.33c-.79-2.69-1.26-4.2-1.89-6.13l-1.97,.1-.56-1.92,5.29-5.07,.66,.38,1.98,7.12,1.9,6.49c.88,3.03,2.39,8.06,3.09,10.24l-4.91,1.43Zm5.69-4.13l.67,2.28-7.91,2.31-.66-2.28,2.48-1.78,2.25-.66,3.18,.13Z"/><path class="d" d="M86.17,75.06c-.58-2.22-2.02-7.26-2.91-10.29l-.83-2.83c-.79-2.69-1.11-3.7-1.75-5.64l-1.95,.09-.56-1.92,4.93-4.97,.66,.38,1.86,5.35,2.38,8.16c.89,3.03,2.39,8.06,3.09,10.24l-4.93,1.44Zm9.15-20l1.66,5.7c.91,3.13,2.39,8.06,3.09,10.24l-4.93,1.44c-.58-2.22-2-7.16-2.91-10.29l-1.5-5.13c-.92-3.14-1.72-4.11-2.91-3.76-1.06,.31-2.12,2.03-2.63,4.66l-1.01,.29-.92-3.15,2.02-.59-.73,1.7c.64-5.56,1.88-7.64,4.02-8.26,2.58-.76,5.11,1.51,6.76,7.15Zm-3.53,15.89l.67,2.28-7.84,2.29-.67-2.28,2.48-1.78,2.27-.66,3.09,.16Zm5.86-2.77l3.2,.13,.67,2.28-7.87,2.3-.67-2.28,2.41-1.77,2.25-.66Z"/><path class="d" d="M102.37,43.87c4.25-1.24,7.19,1.46,8.54,6.09,1.29,4.41,.28,8.39-3.96,9.63-4.25,1.24-7.21-1.49-8.52-5.98-1.33-4.55-.31-8.5,3.94-9.74Zm12.92,27.53c-.42-1.42-1.4-2.64-3.01-2.16l-3.13,.91c-1.3,.38-2.47,.52-3.41,.18l-.09-.32c-1.75-.34-2.83-1.71-3.37-3.55-.75-2.56-.31-5.12,.85-8.05l1.02,.57c-.16,1.09-.14,1.95,.21,3.17,.33,1.14,1,1.71,2.27,1.34l3.48-1.02c4.54-1.33,6.97,1.11,8.21,5.35,1.45,4.98-.36,10-6.09,11.67-4.94,1.44-7.18-.86-8.06-3.85-.7-2.39-.18-4.62,1.7-6.57l.55,.31c-.2,1.67-.21,2.54,.25,4.09,.85,2.91,2.47,3.78,5.18,2.98,3-.88,4.05-2.93,3.43-5.05Zm-12.63-19.08c1.01,3.46,2.22,5.38,3.6,4.98,1.4-.41,1.44-2.74,.43-6.21-1-3.44-2.31-5.29-3.63-4.9-1.33,.39-1.41,2.67-.4,6.14Zm7.74-10.9l.61,.35,1.1,3.77-4.28,1.25-.47-1.6,3.03-3.77Z"/><path class="d" d="M133.5,54.01c-.75-2.58-1.87-3.52-4.05-4.31l-1.54-.58c-4.28-1.6-7.15-3.92-8.73-9.33-1.71-5.87,.14-10.28,4.65-11.6,2.13-.62,4.45-.3,6.36,.84l1.76,6.92-2.74,.8-2.88-7.17,2.81,.7,.71,2.45c-2.14-1.42-3.56-2.1-5.1-1.65-1.7,.5-2.56,2.66-1.78,5.34,.76,2.59,2.09,3.66,4.24,4.44l1.71,.64c4.63,1.7,6.98,3.94,8.42,8.89,1.68,5.77,.19,10.64-4.91,12.13-2.24,.65-5,.57-7.22-.67l-1.94-7.32,2.78-.81,3.09,7.69-2.65-.52-.69-2.35c2.38,1.12,3.86,1.63,5.78,1.07,2.12-.62,2.68-2.96,1.91-5.61Z"/><path class="d" d="M138.21,46.93c-2.2-7.52-.34-13.43,3.93-14.67,4.25-1.24,8.98,2.63,11.21,10.25s.74,13.52-3.87,14.87c-4.65,1.36-9.07-2.93-11.27-10.44Zm10.12-2.84c-2.03-6.94-3.78-9.77-5.45-9.28-1.69,.49-1.62,3.81,.4,10.75,2.04,6.97,3.76,9.75,5.44,9.26,1.67-.49,1.64-3.76-.4-10.73Z"/><path class="d" d="M155.26,41.95c-2.2-7.52-.34-13.43,3.93-14.67,4.25-1.24,8.98,2.63,11.21,10.25,2.23,7.62,.74,13.52-3.87,14.87-4.65,1.36-9.07-2.93-11.27-10.44Zm10.12-2.84c-2.03-6.94-3.78-9.77-5.45-9.28-1.69,.49-1.62,3.81,.4,10.75,2.04,6.97,3.76,9.75,5.44,9.26,1.67-.49,1.64-3.76-.4-10.73Z"/><path class="d" d="M177.12,48.49c-.58-2.22-2.02-7.26-2.91-10.29l-.83-2.83c-.79-2.69-1.11-3.7-1.75-5.64l-1.95,.09-.56-1.92,4.93-4.97,.66,.38,1.86,5.35,2.38,8.16c.89,3.03,2.39,8.06,3.09,10.24l-4.93,1.44Zm9.15-20l1.66,5.7c.91,3.13,2.39,8.06,3.09,10.24l-4.93,1.44c-.58-2.22-2-7.16-2.91-10.29l-1.5-5.13c-.92-3.14-1.72-4.11-2.91-3.76-1.06,.31-2.12,2.03-2.63,4.66l-1.01,.3-.92-3.15,2.01-.59-.73,1.7c.64-5.56,1.88-7.64,4.01-8.26,2.58-.75,5.11,1.51,6.76,7.15Zm-3.53,15.89l.67,2.28-7.84,2.29-.67-2.28,2.48-1.78,2.27-.66,3.09,.16Zm5.86-2.77l3.2,.13,.67,2.28-7.87,2.3-.67-2.28,2.41-1.76,2.25-.66Z"/><path class="d" d="M192.71,13.51c.52,1.77,1.21,5.2,1.95,11.57l.63,4.89-1.59,.46-2.1-4.47c-2.83-5.8-4.06-9.02-4.58-10.8-.88-3.02-.25-4.93,1.5-5.44,1.72-.5,3.31,.75,4.19,3.77Zm1.47,25.93c-.73-2.51-.1-4.9,1.46-5.35,1.56-.46,3.37,1.22,4.11,3.73,.73,2.51,.09,4.85-1.47,5.3-1.56,.46-3.36-1.17-4.09-3.68Z"/></g><g/></g><g><path class="e" d="M29.1,87.23l.73,2.51-1.79,1.3-1.23-7.95,2.27-.66,2.07,7.55c-1.17,1.92-2.97,3.57-5.53,4.32-5.74,1.68-11.98-2.53-15.31-13.95-3.38-11.58,0-18.42,5.6-20.05,2.25-.66,4.31-.36,6.54,.71l2.33,7.55-2.27,.66-3.28-7.43,2.22,.17,.79,2.7c-2.03-1.68-3.48-2.2-4.83-1.81-3.19,.93-4.74,6-1.82,15.99,2.91,9.96,6.81,13.35,9.97,12.43,1.48-.43,2.65-1.87,3.53-4.04Z"/><path class="e" d="M29.92,79.12c-2.2-7.52-.34-13.43,3.93-14.67,4.25-1.24,8.98,2.63,11.21,10.25,2.23,7.62,.74,13.52-3.87,14.87-4.65,1.36-9.07-2.93-11.27-10.44Zm10.12-2.84c-2.03-6.94-3.78-9.77-5.45-9.28-1.69,.49-1.62,3.81,.4,10.75,2.04,6.97,3.76,9.75,5.44,9.26,1.67-.49,1.64-3.76-.4-10.73Z"/><path class="e" d="M51.79,85.67c-.58-2.22-2.02-7.26-2.91-10.29l-.83-2.83c-.79-2.69-1.09-3.71-1.75-5.64l-1.95,.09-.56-1.92,4.93-4.97,.66,.38,1.86,5.34,2.38,8.16c.89,3.03,2.39,8.06,3.09,10.24l-4.93,1.44Zm9.03-19.96l1.66,5.7c.91,3.13,2.39,8.06,3.09,10.24l-4.84,1.42c-.58-2.22-1.99-7.17-2.91-10.29l-1.38-4.71c-1-3.42-1.78-4.55-3.09-4.17-1.29,.38-2.13,2.53-2.49,4.62l-1.1,.32-.92-3.15,1.86-.54-.49,1.63c.53-4.91,1.62-7.56,3.87-8.22,2.82-.82,5.09,1.52,6.74,7.16Zm-3.41,15.85l.67,2.28-7.84,2.29-.67-2.28,2.48-1.79,2.27-.66,3.09,.16Zm12.3-18.19l1.59,5.46c.91,3.13,2.39,8.06,3.09,10.24l-4.84,1.42c-.58-2.22-2-7.17-2.91-10.29l-1.38-4.73c-1.07-3.68-1.83-4.51-3.05-4.15-1.28,.37-2.08,2.1-2.57,4.64l-1.06,.31-.95-3.26,2.1-.62-.79,1.84c.63-5.68,1.87-7.64,3.9-8.23,3.01-.88,5.17,1.56,6.87,7.38Zm-6.47,15.43l3.03,.18,.66,2.28-7.69,2.25-.67-2.28,2.35-1.75,2.32-.68Zm8.84-2.58l3.09,.16,.66,2.28-7.67,2.24-.67-2.28,2.2-1.7,2.38-.7Z"/><path class="e" d="M69.45,45.9c-.67-2.28-.01-4.22,1.39-4.63,1.4-.41,3,.87,3.66,3.15,.66,2.27,.01,4.22-1.39,4.63-1.4,.41-3-.88-3.66-3.15Zm9.44,31.85c-.58-2.22-2.02-7.26-2.91-10.29l-.68-2.33c-.79-2.69-1.26-4.2-1.89-6.13l-1.97,.1-.56-1.92,5.29-5.07,.66,.38,1.98,7.12,1.9,6.49c.88,3.03,2.39,8.06,3.09,10.24l-4.91,1.43Zm5.69-4.13l.67,2.28-7.91,2.31-.66-2.28,2.48-1.78,2.25-.66,3.18,.13Z"/><path class="e" d="M88.25,75.02c-.58-2.22-2.02-7.26-2.91-10.29l-.83-2.83c-.79-2.69-1.11-3.7-1.75-5.64l-1.95,.09-.56-1.92,4.93-4.97,.66,.38,1.86,5.35,2.38,8.16c.89,3.03,2.39,8.06,3.09,10.24l-4.93,1.44Zm9.15-20l1.66,5.7c.91,3.13,2.39,8.06,3.09,10.24l-4.93,1.44c-.58-2.22-2-7.16-2.91-10.29l-1.5-5.13c-.92-3.14-1.72-4.11-2.91-3.76-1.06,.31-2.12,2.03-2.63,4.66l-1.01,.29-.92-3.15,2.02-.59-.73,1.7c.64-5.56,1.88-7.64,4.02-8.26,2.58-.76,5.11,1.51,6.76,7.15Zm-3.53,15.89l.67,2.28-7.84,2.29-.67-2.28,2.48-1.78,2.27-.66,3.09,.16Zm5.86-2.77l3.2,.13,.67,2.28-7.87,2.3-.67-2.28,2.41-1.77,2.25-.66Z"/><path class="e" d="M104.45,43.83c4.25-1.24,7.19,1.46,8.54,6.09,1.29,4.41,.28,8.39-3.96,9.63-4.25,1.24-7.21-1.49-8.52-5.98-1.33-4.55-.31-8.5,3.94-9.74Zm12.92,27.53c-.42-1.42-1.4-2.64-3.01-2.16l-3.13,.91c-1.3,.38-2.47,.52-3.41,.18l-.09-.32c-1.75-.34-2.83-1.71-3.37-3.55-.75-2.56-.31-5.12,.85-8.05l1.02,.57c-.16,1.09-.14,1.95,.21,3.17,.33,1.14,1,1.71,2.27,1.34l3.48-1.02c4.54-1.33,6.97,1.11,8.21,5.35,1.45,4.98-.36,10-6.09,11.67-4.94,1.44-7.18-.86-8.06-3.85-.7-2.39-.18-4.62,1.7-6.57l.55,.31c-.2,1.67-.21,2.54,.25,4.09,.85,2.91,2.47,3.78,5.18,2.98,3-.88,4.05-2.93,3.43-5.05Zm-12.63-19.08c1.01,3.46,2.22,5.38,3.6,4.98,1.4-.41,1.44-2.74,.43-6.21-1-3.44-2.31-5.29-3.63-4.9-1.33,.39-1.41,2.67-.4,6.14Zm7.74-10.9l.61,.35,1.1,3.77-4.28,1.25-.47-1.6,3.03-3.77Z"/><path class="e" d="M135.58,53.97c-.75-2.58-1.87-3.52-4.05-4.31l-1.54-.58c-4.28-1.6-7.15-3.92-8.73-9.33-1.71-5.87,.14-10.28,4.65-11.6,2.13-.62,4.45-.3,6.36,.84l1.76,6.92-2.74,.8-2.88-7.17,2.81,.7,.71,2.45c-2.14-1.42-3.56-2.1-5.1-1.65-1.7,.5-2.56,2.66-1.78,5.34,.76,2.59,2.09,3.66,4.24,4.44l1.71,.64c4.63,1.7,6.98,3.94,8.42,8.89,1.68,5.77,.19,10.64-4.91,12.13-2.24,.65-5,.57-7.22-.67l-1.94-7.32,2.78-.81,3.09,7.69-2.65-.52-.69-2.35c2.38,1.12,3.86,1.63,5.78,1.07,2.12-.62,2.68-2.96,1.91-5.61Z"/><path class="e" d="M140.29,46.89c-2.2-7.52-.34-13.43,3.93-14.67,4.25-1.24,8.98,2.63,11.21,10.25s.74,13.52-3.87,14.87c-4.65,1.36-9.07-2.93-11.27-10.44Zm10.12-2.84c-2.03-6.94-3.78-9.77-5.45-9.28-1.69,.49-1.62,3.81,.4,10.75,2.04,6.97,3.76,9.75,5.44,9.26,1.67-.49,1.64-3.76-.4-10.73Z"/><path class="e" d="M157.34,41.91c-2.2-7.52-.34-13.43,3.93-14.67,4.25-1.24,8.98,2.63,11.21,10.25,2.23,7.62,.74,13.52-3.87,14.87-4.65,1.36-9.07-2.93-11.27-10.44Zm10.12-2.84c-2.03-6.94-3.78-9.77-5.45-9.28-1.69,.49-1.62,3.81,.4,10.75,2.04,6.97,3.76,9.75,5.44,9.26,1.67-.49,1.64-3.76-.4-10.73Z"/><path class="e" d="M179.21,48.45c-.58-2.22-2.02-7.26-2.91-10.29l-.83-2.83c-.79-2.69-1.11-3.7-1.75-5.64l-1.95,.09-.56-1.92,4.93-4.97,.66,.38,1.86,5.35,2.38,8.16c.89,3.03,2.39,8.06,3.09,10.24l-4.93,1.44Zm9.15-20l1.66,5.7c.91,3.13,2.39,8.06,3.09,10.24l-4.93,1.44c-.58-2.22-2-7.16-2.91-10.29l-1.5-5.13c-.92-3.14-1.72-4.11-2.91-3.76-1.06,.31-2.12,2.03-2.63,4.66l-1.01,.3-.92-3.15,2.01-.59-.73,1.7c.64-5.56,1.88-7.64,4.01-8.26,2.58-.75,5.11,1.51,6.76,7.15Zm-3.53,15.89l.67,2.28-7.84,2.29-.67-2.28,2.48-1.78,2.27-.66,3.09,.16Zm5.86-2.77l3.2,.13,.67,2.28-7.87,2.3-.67-2.28,2.41-1.76,2.25-.66Z"/><path class="e" d="M194.79,13.47c.52,1.77,1.21,5.2,1.95,11.57l.63,4.89-1.59,.46-2.1-4.47c-2.83-5.8-4.06-9.02-4.58-10.8-.88-3.02-.25-4.93,1.5-5.44,1.72-.5,3.31,.75,4.19,3.77Zm1.47,25.93c-.73-2.51-.1-4.9,1.46-5.35,1.56-.46,3.37,1.22,4.11,3.73,.73,2.51,.09,4.85-1.47,5.3-1.56,.46-3.36-1.17-4.09-3.68Z"/></g></g></g></svg>