<?xml version="1.0" encoding="UTF-8"?><svg xmlns="http://www.w3.org/2000/svg" viewBox="0 0 84.9 75"><defs><style>.d{fill:#414039;}</style></defs><g id="a"/><g id="b"><g id="c"><g><path class="d" d="M20.83,0c1.14,0,1.73,0,2.33,0,13.22,0,26.44,0,39.66,0,6.36,0,10.08,3.67,10.08,9.97,.01,15.48-.03,30.96,.05,46.44,0,1.84-.57,2.17-2.25,2.15-8.1-.08-16.21-.04-24.31-.04-3.13,0-3.87,.76-3.92,3.84-.03,1.79,.14,3.58-.26,5.36-1.04,4.63-5.03,7.59-9.8,7.23-4.41-.33-7.92-3.94-8.25-8.52-.07-.93-.05-1.86-.05-2.79,0-16.94-.03-33.88,.02-50.82,.01-4.42-.04-8.78-3.29-12.82Zm27.99,21.48c-5.31,0-10.62,.03-15.94-.02-1.27-.01-1.88,.33-1.72,1.66,.06,.46,.07,.94,0,1.39-.28,1.79,.51,2.22,2.23,2.21,9.83-.08,19.65-.01,29.48-.05,3.77-.01,3.26,.67,3.41-3.36,.06-1.54-.48-1.88-1.92-1.86-5.18,.08-10.36,.03-15.54,.03Zm-.14,13.34c5.24,0,10.48-.06,15.72,.03,1.52,.03,2.06-.47,1.85-1.92-.06-.39-.06-.8,0-1.19,.25-1.7-.36-2.26-2.16-2.24-9.88,.09-19.77,.02-29.65,.06-3.56,.01-3.18-.68-3.3,3.27-.05,1.57,.45,2.05,2.02,2.02,5.17-.09,10.35-.03,15.52-.03Zm.06-16.31c4.84,0,9.68,.01,14.52,0,3.34-.01,2.84,.34,3.02-2.98,.1-1.87-.55-2.32-2.34-2.31-9.88,.08-19.76,.04-29.64,.04-3.15,0-3.05,0-3.16,3.07-.07,1.81,.58,2.25,2.29,2.22,5.1-.1,10.21-.03,15.32-.03Zm.05,24.52c4.71,0,9.43,.03,14.14,0,3.7-.03,3.21,.66,3.34-3.44,.05-1.54-.54-1.96-1.97-1.88-1.85,.1-3.72,.02-5.58,.02-8.5,0-17,.03-25.49-.02-1.51,0-2.28,.41-2.07,2.02,.06,.46,.06,.93,0,1.39-.18,1.47,.39,1.97,1.9,1.95,5.24-.08,10.49-.03,15.73-.03Z"/><path class="d" d="M45.01,74.84c1.97-3.13,3.03-6.34,2.93-9.88-.03-1.09,.93-.92,1.63-.92,3.72-.02,7.43,0,11.15,0,7.36,0,14.73,.04,22.09-.03,1.68-.02,2.2,.54,2.08,2.18-.37,4.95-4,8.74-8.84,8.78-9.95,.08-19.9,.03-29.85,.03-.31,0-.62-.07-1.18-.14Z"/><path class="d" d="M9.32,13.38c-2.52,0-5.05,0-7.57,0-.68,0-1.27,0-1.48-.93C-.93,7.35,1.99,1.93,6.79,.44c5.37-1.67,11.04,2.03,11.72,7.63q.64,5.31-4.6,5.31c-1.53,0-3.06,0-4.58,0Z"/></g></g></g></svg>