<?xml version="1.0" encoding="UTF-8"?><svg xmlns="http://www.w3.org/2000/svg" viewBox="0 0 507.3 154.52"><defs><style>.d{fill:#f2efd2;}.e{fill:#d3cfb4;}.f{fill:#414039;}.g{fill:#968260;}</style></defs><g id="a"/><g id="b"><g id="c"><g><path class="f" d="M48.54,110.77c-5.01-2.24-9.49-5.4-14.2-8.16-10.89-6.37-21.71-12.87-32.51-19.4-.65-.4-2.19-.3-1.77-1.85,3.14-1.33,5.9-3.32,8.82-5.04,13.21-7.78,26.4-15.6,39.59-23.41,.02,19.29,.04,38.57,.06,57.86Z"/><path class="e" d="M48.54,110.77c-.02-19.29-.04-38.57-.06-57.86l.06-.12c12.17,7.25,24.31,14.56,36.54,21.71,3.77,2.2,7.24,4.97,11.48,6.32l-.02-.02,.46,.6c.22,1.19-.93,1.32-1.52,1.67-15.18,9.08-30.39,18.1-45.61,27.13-.41,.25-.9,.37-1.35,.56Z"/><path class="e" d="M48.48,52.92c-13.19,7.81-26.38,15.63-39.59,23.41-2.92,1.72-5.68,3.71-8.82,5.04,3.04-6.09,6.78-11.78,10.23-17.64C22.44,43.13,34.65,22.58,46.88,2.05c.47-.79,.43-2.32,2.06-2-.66,.9-.37,1.93-.37,2.9-.02,16.62-.02,33.24-.02,49.85l-.06,.12Z"/><path class="g" d="M48.55,52.8c0-16.62,0-33.24,.02-49.85,0-.97-.29-2,.37-2.9,8.18,13.77,16.35,27.54,24.53,41.31,7.41,12.48,14.82,24.97,22.22,37.46,.37,.63,.59,1.35,.88,2.02-4.24-1.35-7.72-4.12-11.48-6.32-12.23-7.15-24.37-14.46-36.54-21.71Z"/><path class="g" d="M48.59,154.52c-.99,.02-1.17-.9-1.57-1.46-15.31-20.86-30.6-41.74-45.88-62.63-.23-.32-.34-.73-.5-1.1l.15-.13c4.55,1.86,8.51,4.75,12.71,7.21,11.74,6.9,23.42,13.9,35.12,20.87-.01,12.41-.02,24.83-.03,37.24Z"/><path class="e" d="M48.59,154.52c.01-12.41,.02-24.83,.03-37.24,15.97-9.5,31.94-18.99,47.9-28.49l-.03-.03c.23,.87-.43,1.38-.85,1.96-15.27,20.88-30.56,41.75-45.85,62.62-.33,.46-.58,1.02-1.21,1.18Z"/><path class="f" d="M407.04,43.67c4.46-3.42,6.93-3.44,10.81-.22,.71,.59,.98,.54,1.56-.04,2.52-2.52,5.54-3.13,8.69-1.6,3.19,1.54,4.21,4.5,4.21,7.89,0,6.65-.07,13.3,.04,19.95,.03,1.74-.61,2.02-2.15,2.02-5.46,0-5.46,.05-5.46-5.45,0-4.9-.02-9.81,.01-14.71,.01-1.81-.48-3.2-2.57-3.18-2.09,.02-2.56,1.47-2.56,3.24,0,5.98-.07,11.97,.04,17.95,.03,1.8-.55,2.22-2.26,2.2-4.99-.05-4.99,.03-4.99-4.93,0-4.82,0-9.64,0-14.46,0-1.83,.25-3.9-2.48-4.01-1.89-.08-2.7,1.24-2.71,4.2,0,5.65-.07,11.3,.04,16.95,.03,1.74-.45,2.23-2.2,2.21-5.35-.06-5.35,.02-5.35-5.31,0-7.15-.02-14.29,0-21.44,.02-3.88-.57-3.31,3.49-3.37,.5,0,1,.04,1.5,0,1.38-.13,2.54,0,2.31,2.12Z"/><path class="f" d="M306.84,128.97c-8.78,7.01-21.52,2.33-22.57-10.56-.35-4.24,.28-8.3,2.69-11.91,4.17-6.25,11.28-7.63,19.34-3.51,0-3.62,.1-7.05-.04-10.46-.08-1.87,.35-2.57,2.41-2.53,5.66,.12,5.66,.01,5.66,5.72,0,11.14-.04,22.27,.04,33.41,.01,1.75-.45,2.4-2.21,2.19-1.07-.13-2.17-.1-3.24,0-1.47,.13-2.41-.22-2.08-2.34Zm-.54-12.52c0-.5,0-.99,0-1.49-.07-3.66-2.43-6.39-5.92-6.84-3.84-.5-6.4,1.12-7.51,4.89-.91,3.07-.68,6.06,.99,8.87,1.06,1.78,2.63,2.65,4.68,2.85,4.07,.38,8.34-2.36,7.77-8.27Z"/><path class="f" d="M217.24,44.32c2.44-1.94,4.57-3.17,7.15-3.39,7.55-.66,12.65,3.96,12.94,12.07,.2,5.64,.01,11.3,.08,16.95,.01,1.28-.35,1.68-1.67,1.73-6.74,.29-6.74,.33-6.74-6.42,0-3.74,.04-7.48-.02-11.22-.06-3.55-2.17-5.69-5.51-5.75-3.61-.06-6.13,2.14-6.2,5.7-.1,5.15-.1,10.3,0,15.45,.04,1.75-.48,2.24-2.23,2.24-5.96-.02-5.97,.05-5.96-5.95,0-10.97,.05-21.93,0-32.9,0-1.69,.18-2.48,2.23-2.45,5.92,.1,5.92,0,5.92,5.95v7.98Z"/><path class="f" d="M265.32,59.36c-3.16,0-6.32,.04-9.48-.02-1.33-.03-1.55,.43-1.18,1.63,1.05,3.41,5.09,5.51,8.86,4.57,2.07-.52,3.92-1.5,5.33-3.06,1.11-1.21,1.83-.98,2.68,.14,.3,.39,.7,.71,1.04,1.07q3,3.1-.45,5.56c-7.44,5.31-17.95,4.14-22.88-2.53-4.39-5.95-3.92-15.93,1.01-21.3,4.68-5.1,13.32-6.13,19.51-2.33,4.54,2.79,7.76,9.86,7.02,15.1-.18,1.27-.9,1.17-1.73,1.17-3.24,0-6.49,0-9.73,0Zm-3.94-5.9c1.74,0,3.48-.1,5.21,.02,2.11,.15,1.93-.82,1.26-2.19-1.05-2.15-4.01-3.87-6.6-3.62-2.78,.27-5.07,1.39-6.29,4.14-.6,1.36-.17,1.74,1.21,1.67,1.73-.08,3.47-.02,5.21-.02Z"/><path class="f" d="M149.68,59.36c-3.08,0-6.15,.08-9.22-.03-1.84-.06-1.91,.71-1.38,2.09,1.14,3,5.01,4.96,8.44,4.18,2.15-.49,4.09-1.48,5.58-3.1,1.09-1.19,1.86-1.04,2.72,.13,.24,.33,.55,.62,.84,.92,3.21,3.32,3.2,3.35-.7,5.97-8.4,5.63-19.6,3.38-23.71-4.92-4.08-8.24-1.42-20.93,9.71-23.38,10.79-2.37,19.78,5.48,19.07,16.64-.08,1.22-.47,1.54-1.61,1.52-3.24-.06-6.48-.02-9.72-.02Zm-4.03-5.9c1.83,0,3.66-.07,5.49,.02,1.57,.08,1.64-.66,1.19-1.82-.86-2.23-3.96-4.1-6.69-4.03-2.8,.07-5.73,2.03-6.5,4.3-.34,1-.26,1.57,1.02,1.53,1.83-.06,3.66-.01,5.49-.01Z"/><path class="f" d="M342.53,59.36c-3,0-6,.1-8.99-.03-2.27-.1-2.05,1.02-1.43,2.43,1.27,2.86,5.14,4.6,8.44,3.83,2.16-.51,4.07-1.55,5.55-3.17,1.04-1.13,1.74-.87,2.54,.13,.21,.26,.45,.49,.68,.73,3.51,3.65,3.48,3.82-.98,6.57-8.07,4.97-18.17,3.06-22.67-4.28-3.83-6.26-2.84-15.59,2.2-20.56,4.79-4.73,13.07-5.62,18.95-1.96,5.89,3.66,7.28,10.07,7.01,15.3-.06,1.17-.84,1.02-1.57,1.02-3.25,0-6.49,0-9.74,0Zm-3.96-5.9c1.82,0,3.64-.06,5.46,.02,1.78,.08,1.74-.75,1.13-1.96-1.34-2.66-3.7-3.83-6.48-3.82-2.78,0-5.11,1.2-6.45,3.86-.64,1.28-.6,2,1.13,1.92,1.73-.08,3.47-.02,5.21-.02Z"/><path class="f" d="M344.46,128.55c-4.52,3.97-9.08,4.73-14.06,2.6-3.2-1.37-4.88-3.95-5.11-7.35-.23-3.43,1.1-6.13,4.23-7.81,2.59-1.39,5.32-2.34,8.26-2.6,1.5-.13,2.93-.46,4.31-1.11,.99-.46,1.74-1,1.67-2.19-.06-1.14-.83-1.76-1.78-2.2-3.14-1.46-7.22-.1-8.67,3.15-.67,1.5-1.29,1.81-2.73,1.23-.91-.36-1.94-.44-2.92-.63-2.95-.59-3.04-.65-1.68-3.45,2.38-4.87,6.52-7.11,11.77-7.56,4.94-.42,9.25,.76,12.26,5.04,1.28,1.82,1.83,3.9,1.85,6.1,.03,5.9-.05,11.79,.05,17.68,.03,1.63-.56,2.02-2.01,1.86-.9-.1-1.84-.12-2.74,0-1.89,.27-3.07-.2-2.71-2.77Zm-.41-11.38c-2.81,2.08-6.07,1.78-8.86,3.03-1.23,.55-2.21,1.23-2.1,2.71,.12,1.61,1.28,2.16,2.69,2.43,5.14,.99,8.63-2.27,8.27-8.17Z"/><path class="f" d="M184.34,132.28c-9.04-.04-15.43-6.72-15.35-16.03,.08-9.27,6.36-15.67,15.4-15.71,9.12-.04,15.65,6.49,15.43,15.88-.23,9.92-6.11,15.57-15.48,15.86Zm7.29-16.42c-.02-.21,0-1.14-.18-2.02-.71-3.59-3.2-5.72-6.73-5.81-3.75-.1-6.36,1.85-7.22,5.51-.44,1.88-.44,3.81,0,5.69,.88,3.8,3.85,5.85,7.75,5.47,3.94-.39,6.32-3.41,6.38-8.82Z"/><path class="f" d="M439.19,116.24c.02-9.3,6.27-15.69,15.32-15.69,9.16,0,15.47,6.49,15.42,15.9-.04,9.38-6.41,15.88-15.5,15.84-9.08-.04-15.27-6.55-15.24-16.04Zm22.49,.21c0-5.05-2.21-8.03-6.25-8.39-4.42-.4-7.21,1.86-8.12,6.58-.86,4.49,1.61,9.03,5.42,9.92,5.13,1.19,8.94-2.26,8.96-8.11Z"/><path class="f" d="M255.82,104.14c3.21-2.79,6.45-3.98,10.22-3.49,5.72,.73,9.56,5.02,9.76,11.38,.18,5.89,.02,11.79,.07,17.69,0,1.16-.34,1.53-1.54,1.61-6.65,.4-6.64,.44-6.65-6.21,0-3.65,.04-7.31-.01-10.96-.05-3.87-2.17-6.1-5.68-6.12-3.85-.02-6.15,2.28-6.16,6.23-.02,4.98-.05,9.97,.03,14.95,.03,1.55-.31,2.14-2.03,2.15-6.11,.02-6.11,.09-6.11-5.99,0-7.14,.11-14.29-.06-21.43-.06-2.3,.69-2.93,2.79-2.63,.9,.13,1.84,.12,2.74,0,1.83-.24,3.08,.12,2.63,2.83Z"/><path class="f" d="M487.53,103.93c3.16-2.61,6.42-3.78,10.19-3.26,5.27,.72,9.22,4.76,9.44,10.28,.25,6.3,.08,12.62,.14,18.93,0,1.06-.32,1.57-1.42,1.42-.08-.01-.17,0-.25,0q-6.44,.28-6.44-6.13c0-3.65,.04-7.31-.01-10.96-.05-3.92-2.12-6.14-5.63-6.17-3.9-.04-6.1,2.14-6.15,6.2-.05,4.9-.08,9.8,.02,14.7,.04,1.73-.25,2.47-2.26,2.44-6.04-.09-6.05,.01-6.04-6.05,0-7.31,.06-14.62-.01-21.92-.02-1.63,.43-2.26,2.08-2.08,1.15,.12,2.34,.14,3.49,0,1.81-.22,3.06,.12,2.85,2.62Z"/><path class="f" d="M382.85,69.38c-4.33,3.41-8.62,3.98-13.25,2.07-3.7-1.53-5.67-4.46-5.8-8.29-.22-6.64-.42-13.32,.05-19.93,.26-3.72,3.73-.89,5.61-1.6,1.03-.39,2.46-.48,2.41,1.63-.12,5.4-.04,10.8-.04,16.2,0,3.54,1.74,5.53,4.91,5.61,3.63,.08,5.89-1.96,5.93-5.54,.06-5.32,.09-10.64-.03-15.95-.04-1.71,.54-2.06,2.12-2.06,5.98-.02,5.98-.07,5.98,5.89,0,7.31-.08,14.63,.05,21.94,.03,1.94-.56,2.5-2.38,2.29-1.15-.13-2.34-.14-3.49,0-1.51,.18-2.17-.44-2.08-2.28Z"/><path class="f" d="M228.53,129.06c-6.23,4.68-12.14,4.64-16.34,.16-1.76-1.88-2.82-4.1-2.82-6.72,0-6.4,.07-12.79-.04-19.19-.03-1.76,.67-2.01,2.18-2.01,5.95-.02,5.95-.06,5.95,5.89,0,3.99,0,7.97,0,11.96,0,3.56,1.7,5.49,4.91,5.57,3.73,.09,5.91-1.82,5.96-5.46,.08-5.32,.06-10.63,0-15.95-.02-1.43,.25-2.01,1.88-2.02,6.18-.06,6.18-.13,6.18,5.96,0,7.23-.08,14.46,.05,21.68,.04,2.05-.64,2.61-2.52,2.39-1.07-.12-2.17-.11-3.24,0-1.49,.15-2.43-.22-2.15-2.25Z"/><path class="f" d="M148,121.72c0,2.58-.06,5.15,.03,7.73,.05,1.34-.27,1.85-1.76,1.89-6.69,.18-6.68,.23-6.68-6.44,0-3.74-.04-7.48,.02-11.22,.02-1.28-.35-1.87-1.68-1.71-.49,.06-1,.04-1.5,0-1.56-.13-3.95,.72-4.49-.38-.79-1.63-.32-3.87-.34-5.86-.01-.97,.72-.94,1.41-.96,2.07-.04,4.62,.63,6.07-.34,1.46-.98,.22-3.71,.57-5.65,.71-3.91,3.72-6.64,8.03-6.9,3.07-.18,6.16-.05,9.23-.06,.25,0,.62-.07,.73,.06,1.51,1.89,.4,4.08,.63,6.13,.15,1.3-1.04,1.01-1.8,1.02-2,.03-3.99,0-5.99,0-1.1,0-2.04,.43-2.3,1.53-.3,1.28-.45,2.65,.09,3.89,.25,.56,1.06,.3,1.62,.3,2.83,.02,5.66,.05,8.49-.01,1.23-.03,1.72,.26,1.77,1.64,.23,5.59,.28,5.54-5.28,5.61-2.21,.03-5.04-.98-6.47,.47-1.31,1.33-.3,4.12-.4,6.26-.05,.99,0,1.99,0,2.99Z"/><path class="f" d="M178.06,56.63c0-1.99-.08-3.99,.03-5.98,.08-1.46-.47-1.94-1.86-1.78-.66,.08-1.33,.01-1.99,.01q-3.53,0-3.53-3.58,0-3.75,3.87-3.75,3.48,0,3.48-3.33,0-4.2,4.15-4.2c.58,0,1.18,.07,1.74-.01,1.94-.29,2.56,.43,2.51,2.43-.12,5.12-.02,5.12,5.16,5.12,1,0,2,0,2.99,0q3.5,0,3.5,3.6t-3.85,3.73c-2.08,0-4.16,.07-6.24-.03-1.34-.06-1.7,.44-1.68,1.72,.07,3.4,.06,6.81,.01,10.21-.03,2.27,1.13,3.12,3.25,3.08,1.75-.03,3.49,.04,5.24-.02,1.07-.04,1.55,.36,1.43,1.44,0,.08,0,.17,0,.25q.31,6.09-5.76,6.1c-2.33,0-4.67,.19-6.9-.71-3.65-1.46-5.42-4.24-5.56-8.08-.08-2.07-.01-4.15-.02-6.23Z"/><path class="f" d="M371.03,116.49c0-.58,0-1.16,0-1.74-.03-1.91,.63-4.33-.29-5.58-1.01-1.36-3.57-.39-5.45-.45-1.17-.04-1.53-.4-1.6-1.58-.33-5.67-.37-5.75,5.33-5.75,1.72,0,2.04-.6,2.04-2.15,.01-5.46,.07-5.36,5.62-5.49,2.06-.05,2.68,.5,2.62,2.59-.14,5-.03,5,5.03,5,1.16,0,2.33-.01,3.49,0,3.77,.05,3.25-.51,3.28,3.32,.03,4.02,0,4-4.08,4.03-2.48,.02-5.72-.82-7.25,.41-1.6,1.3-.48,4.66-.5,7.12-.06,7.27-.98,7.65,7.43,7.38,2.06-.07,2.66,.44,2.59,2.55-.16,5.14-.05,5.18-5.17,5.14-2.97-.02-5.97,.39-8.77-1.22-2.79-1.6-4.16-3.98-4.3-7.09-.1-2.16-.02-4.32-.02-6.48h0Z"/><path class="f" d="M415.93,131.3c-4.33,0-8.65-.05-12.98,.03-1.39,.03-1.82-.36-1.85-1.8-.11-5.62-.16-5.62,5.53-5.62q5.18,0,5.18-5.15c0-2.57-.09-5.15,.03-7.72,.08-1.68-.34-2.4-2.17-2.26-2.15,.16-4.32,.05-6.49,.03-.53,0-1.36,.24-1.39-.6-.09-2.07-.07-4.15,0-6.22,.03-.88,.83-.64,1.36-.64,5.16-.02,10.32,.03,15.47-.04,1.52-.02,1.52,.81,1.52,1.9-.02,6.15,.07,12.29-.06,18.44-.04,1.92,.55,2.44,2.39,2.31,2.24-.15,4.49-.04,6.74-.03,.65,0,1.46-.11,1.48,.86,.04,1.91,.08,3.82-.02,5.73-.06,1.17-1.1,.77-1.75,.77-4.33,.03-8.65,.02-12.98,.02Z"/><path class="f" d="M296.21,44.48c3.23-3,6.41-3.84,9.97-3.59,4.08,.28,8.01,3.33,9.33,7.19,.39,1.13-.04,1.51-.94,1.8-1.65,.54-3.33,1.02-4.96,1.62-.97,.36-1.4,.02-1.98-.78-1.77-2.41-4.23-3.11-7.04-2.2-2.35,.76-3.92,2.85-3.97,5.75-.09,5.06-.11,10.13,0,15.18,.04,1.77-.52,2.22-2.24,2.22-5.89-.02-5.89,.05-5.89-5.75,0-7.39,.05-14.77-.04-22.16-.02-1.72,.42-2.44,2.21-2.24,1.15,.13,2.33,.12,3.49,0,1.69-.17,2.53,.39,2.07,2.95Z"/><path class="f" d="M415.79,96.75q-4.13,0-4.13-4.2,0-3.83,3.98-3.83,4.52,0,4.52,4.06t-4.38,3.96Z"/><polygon class="e" points="96.52 88.8 96.65 88.74 96.49 88.77 96.52 88.8"/><path class="g" d="M97.01,81.42l-.46-.6c.34,.06,.44,.3,.46,.6Z"/><path class="g" d="M.63,89.33l-.3-.28c.06-.05,.15-.14,.16-.13,.1,.08,.19,.18,.28,.28l-.15,.13Z"/><path class="d" d="M306.31,116.45c.57,5.91-3.7,8.66-7.77,8.27-2.05-.19-3.62-1.07-4.68-2.85-1.67-2.81-1.89-5.8-.99-8.87,1.11-3.77,3.67-5.39,7.51-4.89,3.49,.45,5.85,3.18,5.92,6.84,0,.5,0,.99,0,1.49Z"/><path class="d" d="M261.38,53.46c-1.74,0-3.48-.06-5.21,.02-1.39,.07-1.82-.32-1.21-1.67,1.22-2.74,3.51-3.87,6.29-4.14,2.59-.25,5.55,1.47,6.6,3.62,.67,1.37,.84,2.34-1.26,2.19-1.73-.12-3.47-.02-5.21-.02Z"/><path class="d" d="M338.57,53.46c-1.74,0-3.48-.06-5.21,.02-1.72,.08-1.77-.63-1.13-1.92,1.34-2.67,3.67-3.86,6.45-3.86,2.78,0,5.14,1.17,6.48,3.82,.61,1.21,.65,2.04-1.13,1.96-1.82-.08-3.64-.02-5.46-.02Z"/><path class="d" d="M344.05,117.17c.36,5.89-3.13,9.15-8.27,8.17-1.4-.27-2.57-.82-2.69-2.43-.11-1.47,.87-2.15,2.1-2.71,2.78-1.25,6.05-.95,8.86-3.03Z"/><path class="d" d="M191.63,115.86c-.06,5.41-2.43,8.44-6.38,8.82-3.9,.38-6.86-1.67-7.75-5.47-.44-1.88-.44-3.81,0-5.69,.85-3.66,3.47-5.61,7.22-5.51,3.53,.1,6.02,2.22,6.73,5.81,.18,.89,.16,1.81,.18,2.02Z"/><path class="d" d="M461.69,116.45c-.01,5.85-3.82,9.3-8.96,8.11-3.8-.89-6.28-5.42-5.42-9.92,.91-4.72,3.69-6.98,8.12-6.58,4.04,.36,6.26,3.35,6.25,8.39Z"/></g></g></g></svg>