<?xml version="1.0" encoding="UTF-8"?><svg xmlns="http://www.w3.org/2000/svg" viewBox="0 0 208.48 95.02"><defs><style>.f{font-family:Baskerville-BoldItalic, Baskerville;font-size:4.16px;}.f,.g{fill:#414039;}.h{fill:#f3f1d5;}.i{fill:#848172;}.j{font-family:BradleyHandITCTT-Bold, Bradley Hand;font-size:14.52px;}.k{stroke-width:8px;}.k,.l{fill:#d3cfb4;}.k,.l,.m,.n{stroke-miterlimit:10;}.k,.m,.n{stroke:#878476;}.l{stroke:#f2efd2;}.m,.n{fill:none;}.n{stroke-width:.5px;}</style></defs><g id="a"/><g id="b"><g id="c"><rect class="k" x="4" y="4" width="127" height="83"/><rect class="l" x="97" y="15" width="11" height="13"/><rect class="l" x="112" y="15" width="11" height="13"/><g id="d"><path class="g" d="M101.57,22c-.15,.59-.3,1.18-.45,1.77-.15,.59-.3,1.18-.49,1.77-.06,.2-.15,.4-.29,.57-.28,.33-.7,.34-.96,.03-.14-.16-.17-.35-.1-.55,.09-.25,.23-.47,.36-.69,.27-.42,.53-.85,.77-1.29,.44-.8,.66-1.67,.75-2.57,.07-.72,.15-1.43,.22-2.15,.01-.1,.03-.2,.08-.3,.1-.16,.28-.26,.45-.23,.2,.03,.35,.18,.38,.37,.01,.1,.02,.2,.02,.29,0,.94,0,1.87,.01,2.8,0,.23,0,.47,.13,.69,.2,.35,.59,.46,.94,.25,.28-.17,.44-.41,.44-.76,0-.34,0-.67,0-1,0-.43,0-.85,.02-1.28,.02-.25,.2-.44,.44-.44,.23,0,.43,.19,.44,.43,0,.44,0,.88,0,1.31,0,.56-.02,1.12,.03,1.68,.01,.12,.04,.24,.09,.35,.07,.15,.17,.18,.3,.06,.1-.09,.18-.2,.27-.29,.05-.05,.1-.12,.17-.06,.07,.05,.06,.12,.04,.19-.01,.04-.03,.08-.05,.11-.19,.3-.43,.54-.74,.71-.37,.2-.67,.06-.78-.34-.02-.08,0-.2-.07-.22-.09-.03-.12,.1-.18,.16-.29,.28-.62,.45-1.03,.49-.49,.05-.85-.18-1.04-.65-.13-.33-.15-.67-.18-1.02,0-.06,0-.13,0-.19h-.02Z"/></g><circle class="m" cx="80.5" cy="27.5" r="9"/><text class="f" transform="translate(113.27 22.08)"><tspan x="0" y="0">20Ȼ</tspan></text><path class="n" d="M89.49,30.21c2.16-.03,4.49,.46,6.65,.43,.05,0,8.94-2,9-2s7.92,1.23,7.93,1.23c.05,0,6.38-.09,6.43-.09"/><path class="n" d="M89.58,25.54c2.16-.03,4.49,.46,6.65,.43,.05,0,8.94-2,9-2s7.92,1.23,7.93,1.23c.05,0,6.38-.09,6.43-.09"/><path class="n" d="M86.85,21.07c2.16-.03,4.49,.46,6.65,.43,.05,0,8.94-2,9-2s7.92,1.23,7.93,1.23c.05,0,6.38-.09,6.43-.09"/><path class="n" d="M86.85,34.07c2.16-.03,4.49,.46,6.65,.43,.05,0,8.94-2,9-2s7.92,1.23,7.93,1.23c.05,0,6.38-.09,6.43-.09"/><g><g><path class="g" d="M89.36,32.08c.05,.12-.06,.22-.1,.34,.17,.01,.33,.02,.48,.04,.48,.09,.79,.42,.69,.81-.05,.22,.04,.22,.21,.21,.32-.02,.6-.12,.7-.41,.05-.15,.12-.38-.25-.27-.11,.03-.22,0-.26-.09-.02-.04,0-.11,.04-.14,.07-.07,.17-.09,.29-.07,.3,.05,.45,.34,.32,.63-.16,.37-.53,.5-.93,.51-.28,.01-.32,.08-.25,.3,.09,.28,.04,.56-.31,.7-.15,.06-.15,.18-.21,.28-.12,.22-.26,.43-.61,.46,.5-1.61,.04-2.25-1.76-2.5,.2,.79-.31,1.75,.87,2.3-.33,.08-.35,.15-.13,.32,.28,.22,.5,.48,.75,.74-.13,.17-.34,.02-.51,.11,.11,.35,.46,.51,.79,.7-.74,.14-1.63-.28-2.01-.94-.29-.51-.29-1.03-.12-1.57,.08-.26,.17-.53,.22-.8,.03-.19,.06-.39-.17-.61,.09,.55-.35,.89-.49,1.33-.15,0-.12-.16-.23-.2v-.47c.17-.51,.59-.98,.2-1.61,.35,.15,.61,.18,.88,.05,.12-.05,.3-.14,.42-.04,.16,.12-.09,.25-.05,.41l1.16-.53h.36Zm-1.16,.84c1.1,.23,1.41,.9,1.42,1.77,.13-.3,.5-.51,.31-.87-.1-.19-.23-.37-.12-.61,.05-.11-.06-.26-.2-.27-.45-.03-.89-.24-1.41-.02Zm-.94,1.85c-.28,.81,.11,1.69,.73,1.82,.02-.66-.48-1.17-.73-1.82Z"/><path class="g" d="M88.77,33.49c.32,.31,.41,.62,.36,.97-.02,.14-.1,.28-.28,.25-.19-.03-.13-.19-.09-.29,.09-.29,.06-.58,.01-.93Z"/><path class="g" d="M87.66,36.98c.26,.09,.45,.15,.64,.21,.07,.02,.15,.06,.14,.13-.02,.09-.11,.12-.2,.11-.28-.03-.43-.2-.57-.45Z"/><path class="g" d="M90.63,33.91c.16-.03,.29-.06,.41-.08,.12-.02,.27-.04,.28,.1,.01,.15-.15,.18-.28,.19-.15,0-.29-.05-.42-.2Z"/><path class="g" d="M88.27,33.28c.23,.1,.37,.21,.34,.4-.01,.08-.11,.14-.2,.1-.22-.1-.11-.29-.14-.5Z"/></g><g><path class="g" d="M72.69,32.66c-.05,.12,.06,.22,.1,.34-.17,.01-.33,.02-.48,.04-.48,.09-.79,.42-.69,.81,.05,.22-.04,.22-.21,.21-.32-.02-.6-.12-.7-.41-.05-.15-.12-.38,.25-.27,.11,.03,.22,0,.26-.09,.02-.04,0-.11-.04-.14-.07-.07-.17-.09-.29-.07-.3,.05-.45,.34-.32,.63,.16,.37,.53,.5,.93,.51,.28,.01,.32,.08,.25,.3-.09,.28-.04,.56,.31,.7,.15,.06,.15,.18,.21,.28,.12,.22,.26,.43,.61,.46-.5-1.61-.04-2.25,1.76-2.5-.2,.79,.31,1.75-.87,2.3,.33,.08,.35,.15,.13,.32-.28,.22-.5,.48-.75,.74,.13,.17,.34,.02,.51,.11-.11,.35-.46,.51-.79,.7,.74,.14,1.63-.28,2.01-.94,.29-.51,.29-1.03,.12-1.57-.08-.26-.17-.53-.22-.8-.03-.19-.06-.39,.17-.61-.09,.55,.35,.89,.49,1.33,.15,0,.12-.16,.23-.2v-.47c-.17-.51-.59-.98-.2-1.61-.35,.15-.61,.18-.88,.05-.12-.05-.3-.14-.42-.04-.16,.12,.09,.25,.05,.41l-1.16-.53h-.36Zm1.16,.84c-1.1,.23-1.41,.9-1.42,1.77-.13-.3-.5-.51-.31-.87,.1-.19,.23-.37,.12-.61-.05-.11,.06-.26,.2-.27,.45-.03,.89-.24,1.41-.02Zm.94,1.85c.28,.81-.11,1.69-.73,1.82-.02-.66,.48-1.17,.73-1.82Z"/><path class="g" d="M73.28,34.07c-.32,.31-.41,.62-.36,.97,.02,.14,.1,.28,.28,.25,.19-.03,.13-.19,.09-.29-.09-.29-.06-.58-.01-.93Z"/><path class="g" d="M74.39,37.55c-.26,.09-.45,.15-.64,.21-.07,.02-.15,.06-.14,.13,.02,.09,.11,.12,.2,.11,.28-.03,.43-.2,.57-.45Z"/><path class="g" d="M71.42,34.49c-.16-.03-.29-.06-.41-.08-.12-.02-.27-.04-.28,.1-.01,.15,.15,.18,.28,.19,.15,0,.29-.05,.42-.2Z"/><path class="g" d="M73.78,33.85c-.23,.1-.37,.21-.34,.4,.01,.08,.11,.14,.2,.1,.22-.1,.11-.29,.14-.5Z"/></g><g id="e"><g><path class="g" d="M80.36,18.1h.81s.08,.01,.12,.02c.71,.03,1.41,.14,2.09,.34,1.84,.53,3.38,1.52,4.61,2.97,1.19,1.41,1.91,3.03,2.15,4.86,.13,.99,.1,1.98-.09,2.96-.34,1.77-1.12,3.33-2.36,4.64-1.65,1.76-3.69,2.75-6.1,2.96-1.24,.11-2.46-.03-3.65-.42-2.12-.7-3.79-1.99-5.01-3.85-.86-1.31-1.33-2.75-1.46-4.31-.01-.13-.02-.26-.04-.39,0-.24,0-.49,0-.73,0-.03,.01-.07,.02-.1,.03-.28,.04-.55,.08-.83,.11-.9,.36-1.76,.74-2.58,.8-1.75,2.02-3.14,3.66-4.15,1.26-.78,2.64-1.22,4.12-1.34,.1,0,.2-.02,.31-.04Zm-7.78,6.06h-.03c-.54,1.34-.74,2.73-.6,4.18,.06,.67,.2,1.33,.42,1.98,.03-.03,.03-.03,.04-.04,.03-.04,.05-.07,.08-.11l.09,.1h0s.08,.05,.11,.05c.02,0,.03-.05,.05-.07,.02-.03,.05-.06,.08-.08,.03-.02,.06-.04,.09-.05,.05-.02,.09-.04,.14-.06,.03-.01,.07,0,.09-.02,.12-.1,.24-.09,.37-.04,.05,.02,.08,.04,.06,.1-.03,.11,0,.22,.07,.31,.1,.1,.21,.19,.32,.28,.07,.06,.14,.11,.21,.16,.04,.02,.09,.02,.08-.05-.02-.09,.01-.17,.04-.25,.02-.05,0-.11-.01-.17,0-.03-.02-.06-.01-.08,.02-.09,.05-.17,.08-.28,0,.05,.02,.08,.02,.12-.01,.19,.07,.31,.25,.39,.04,.02,.08,.08,.1,.13,.07,.18,.14,.36,.21,.54,0,.02,.03,.04,.04,.05,.1,.02,.13,.1,.16,.19,.02,.04,.04,.09,.07,.12,.07,.09,.14,.18,.21,.28,.1,.16,.2,.31,.29,.48,.07,.13,.12,.28,.18,.42-.06,.2-.03,.41-.06,.61-.03,.22-.05,.42-.02,.64,.01,.1-.01,.23-.05,.32-.03,.07-.11,.11-.18,.15-.02,.01-.08-.05-.12-.07-.03-.01-.07-.01-.1,0-.04,.01-.08,.04-.13,.06,.03,.02,.07,.06,.1,.09,.58,.46,1.2,.84,1.88,1.14,.29,.13,.6,.23,.9,.35,.08,.03,.13,.02,.16-.08,.02-.07,.07-.13,.1-.19,.17,.06,.22,.16,.19,.31-.01,.08,.04,.1,.1,.12,.5,.12,1,.21,1.51,.24,1.08,.08,2.15-.03,3.19-.34,3.8-1.11,6.42-4.63,6.41-8.58,0-.04,0-.07,0-.12-.13,.06-.24,.04-.34-.04-.03-.02-.07-.03-.1-.04-.13-.06-.27-.11-.4-.18-.14-.08-.26-.18-.39-.28-.13-.1-.26-.2-.26-.4,0-.02,0-.04-.01-.05-.07-.13-.13-.26-.27-.34-.04-.02-.07-.07-.11-.1-.12-.13-.25-.25-.37-.38-.04-.04-.07-.08-.11-.12-.05-.06-.1-.13-.15-.19-.05-.06-.11-.11-.15-.17-.04-.06-.09-.09-.17-.08-.12,0-.14-.02-.19-.14-.03-.07-.07-.13-.12-.18-.14-.14-.29-.26-.42-.4-.07-.07-.11-.17-.17-.26,0-.01,0-.05,0-.06,.05-.05,.03-.1-.02-.13-.21-.16-.2-.4-.14-.6,.05-.16,.08-.29,.06-.45-.01-.09,0-.18,0-.27,0-.06,.01-.07,.06-.04,.04,.02,.08,.03,.13,.05,.02-.07,.02-.12,.04-.17,.03-.08,.02-.16-.05-.21-.16-.13-.32-.26-.48-.38-.07-.05-.11-.1-.07-.19,.02-.06,.02-.12-.05-.15-.11-.05-.15-.14-.19-.24,0-.02-.02-.05-.04-.06-.17-.06-.24-.18-.22-.37,.01-.08-.02-.11-.1-.11-.03,0-.07-.02-.07-.04-.01-.13-.13-.2-.19-.29-.03-.05-.05-.12-.07-.17-.02-.06-.04-.13-.08-.17-.05-.04-.11,0-.17,.04-.09,.07-.13,.05-.2-.04-.03-.04-.07-.09-.11-.1-.16-.06-.29-.2-.47-.18-.01,0-.03,0-.04-.02-.09-.07-.21-.1-.26-.22,0-.02-.05-.04-.07-.04-.13,0-.24-.04-.35-.09-.08-.04-.16,0-.17,.09-.02,.1-.07,.17-.15,.23-.06,.05-.08,.11-.08,.19,0,.04-.01,.08-.03,.11-.04,.07-.09,.14-.13,.2-.02,.03-.05,.06-.08,.08l-.02-.02,.05-.12s-.06-.03-.08-.05c-.05-.06-.11-.06-.16-.02-.1,.09-.2,.11-.33,.1-.11,0-.14,0-.12-.12,.01-.08-.03-.1-.09-.1-.02,0-.05,0-.08,0,.01-.05,.03-.08,.03-.11,0-.05,0-.1-.03-.13-.05-.08-.11-.15-.16-.23-.02-.03-.01-.08,0-.11,.05-.07,.1-.13,.17-.19,.03-.03,.09-.03,.14-.03,.08,.01,.13,0,.19-.06,.12-.12,.09-.27,.11-.43-.13,.06-.26-.07-.38,.04-.01,.01-.05,0-.07,0-.08-.02-.15-.07-.23-.08-.17-.01-.35,0-.53,0-.07,0-.13,.02-.2,.02-.09,0-.18-.01-.27,0-.26,.03-.53,.06-.79,.09-.05,0-.1,.02-.15,.03,.08,.02,.12,.06,.12,.14,0,.02,0,.04,.02,.05,.04,.11,.01,.14-.1,.17-.11,.03-.26,.05-.32,.13-.13,.16-.25,.3-.45,.37-.03,.01-.05,.06-.09,.07-.03,.01-.08,.02-.1,0-.07-.06-.13-.03-.2,0-.13,.07-.26,.14-.4,.18-.09,.03-.17,.05-.24,.12-.07,.08-.15,.15-.22,.23-.03,.03-.04,.07-.08,.12h.14c0,.09,.02,.16,.02,.22,0,.02-.03,.05-.05,.06-.06,.04-.15,.05-.19,.11-.08,.11-.14,.24-.22,.36-.03,.04-.06,.09-.1,.11-.07,.03-.1,.07-.13,.14-.02,.06-.05,.14-.13,.15-.02-.08-.06-.17-.05-.25,.04-.22,.11-.43,.17-.64,0-.03,.03-.07,.06-.1,.17-.18,.35-.35,.52-.54,.12-.14,.25-.26,.29-.44,.01-.05,.02-.14,0-.16-.07-.04-.11,.03-.15,.07-.04,.04-.07,.08-.09,.11-.04-.03-.07-.07-.08-.06-.09,.02-.19,.03-.26,.08-.13,.09-.24,.2-.36,.31-.05,.05-.1,.1-.13,.17-.07,.12-.19,.15-.29,.07-.06-.05-.25-.05-.32,0-.46,.31-.89,.66-1.28,1.06-.03,.03-.05,.05-.09,.1,.1-.01,.18-.03,.25-.03,.05,0,.1,.04,.13,.08,.01,.02-.01,.07-.03,.11,0,.02-.03,.03-.03,.04,0,.03-.01,.07,0,.1,0,0,.04,.03,.05,.02,.03-.02,.05-.04,.06-.07,.02-.07,.06-.12,.14-.15,.05,.33,.1,.65-.18,.9,.05,.05,.11,.09,.13,.14,.04,.12-.12,.31-.25,.29-.08-.02-.13,.02-.19,.05-.03,.01-.06,.03-.1,.03-.1,0-.2,.01-.24,.13-.01,.03-.05,.05-.08,.08-.03,.03-.07,.06-.09,.1-.06,.09-.03,.14,.07,.17,.02,0,.05,.03,.05,.05,0,.18-.12,.38-.28,.42-.07,.02-.14,.06-.21,.09-.09,.04-.18,.12-.3,.08l.03-.09c-.11-.01-.29,.11-.31,.21-.02,.08,0,.1,.08,.08,.06-.02,.11-.05,.17-.08,0,.02,0,.03,0,.04-.08,.08-.11,.16-.04,.27,.04,.06,0,.1-.07,.13-.06,.02-.11,.06-.15,.1-.08,.09-.16,.18-.3,.2,0-.04-.01-.07-.02-.11,0-.03-.02-.07-.04-.1-.06-.1-.05-.13,.05-.19,.03-.02,.07-.03,.11-.06,.02-.01,.03-.04,.03-.06,0-.02-.02-.05-.04-.06-.03,0-.07,0-.11,0-.05,.01-.1,.03-.15,.05v-.1Zm17.15,2.94s.01-.05,0-.07c-.04-.38-.08-.76-.13-1.15-.01-.11-.09-.15-.18-.09-.04,.03-.07,.1-.09,.15-.02,.06,0,.13-.02,.17-.07,.13-.06,.27-.06,.4,0,.06,.02,.13,.06,.17,.11,.13,.23,.25,.34,.37,.01,.01,.04,.02,.06,.03Zm-15.04,6.87v-.02c0-.07-.02-.14-.05-.2-.01-.03-.03-.07-.06-.09-.13-.07-.19-.18-.2-.33,0-.06-.06-.13-.11-.18-.01-.01-.1,0-.1,.02,0,.09-.04,.2,0,.26,.16,.2,.34,.37,.51,.55Zm-.78-.85c-.13-.3-.17-.36-.31-.4l.31,.4Z"/><path class="h" d="M72.58,24.16v.1c.06-.02,.1-.04,.15-.05,.03,0,.07,0,.11,0,.02,0,.03,.04,.04,.06,0,.02-.02,.04-.03,.06-.03,.02-.07,.03-.11,.06-.1,.06-.1,.09-.05,.19,.02,.03,.03,.06,.04,.1,0,.03,.01,.07,.02,.11,.14-.02,.22-.11,.3-.2,.04-.05,.1-.08,.15-.1,.07-.02,.11-.07,.07-.13-.07-.11-.04-.19,.04-.27,0,0,0-.02,0-.04-.06,.03-.12,.06-.17,.08-.08,.02-.1,0-.08-.08,.03-.1,.21-.22,.31-.21l-.03,.09c.12,.03,.21-.04,.3-.08,.07-.03,.14-.07,.21-.09,.16-.04,.29-.23,.28-.42,0-.02-.03-.04-.05-.05-.1-.03-.12-.08-.07-.17,.02-.04,.06-.07,.09-.1,.03-.03,.07-.05,.08-.08,.05-.12,.14-.12,.24-.13,.03,0,.07-.01,.1-.03,.06-.03,.11-.06,.19-.05,.13,.03,.29-.17,.25-.29-.02-.05-.08-.09-.13-.14,.27-.25,.22-.57,.18-.9-.08,.03-.12,.08-.14,.15,0,.03-.04,.05-.06,.07,0,0-.05-.01-.05-.02,0-.03,0-.07,0-.1,0-.02,.03-.03,.03-.04,.01-.04,.04-.09,.03-.11-.03-.04-.09-.08-.13-.08-.07,0-.15,.01-.25,.03,.04-.05,.07-.08,.09-.1,.39-.39,.82-.75,1.28-1.06,.07-.04,.25-.04,.32,0,.11,.08,.23,.05,.29-.07,.03-.06,.08-.12,.13-.17,.11-.11,.23-.22,.36-.31,.07-.05,.17-.06,.26-.08,.02,0,.05,.03,.08,.06,.03-.03,.06-.07,.09-.11,.04-.05,.08-.12,.15-.07,.03,.02,.01,.11,0,.16-.04,.18-.17,.3-.29,.44-.16,.19-.35,.36-.52,.54-.02,.03-.05,.06-.06,.1-.06,.21-.13,.42-.17,.64-.01,.07,.03,.16,.05,.25,.09-.02,.11-.09,.13-.15,.03-.07,.06-.11,.13-.14,.04-.02,.07-.07,.1-.11,.07-.12,.13-.25,.22-.36,.04-.05,.13-.07,.19-.11,.02-.01,.05-.04,.05-.06,0-.07,0-.14-.02-.21h-.14c.03-.06,.05-.1,.08-.13,.07-.08,.15-.15,.22-.23,.06-.07,.15-.09,.24-.12,.14-.04,.27-.11,.4-.18,.07-.04,.13-.07,.2,0,.02,.02,.07,0,.1,0,.03-.02,.05-.06,.09-.07,.2-.07,.32-.21,.45-.37,.06-.08,.21-.11,.32-.13,.11-.03,.14-.05,.1-.17,0-.02-.02-.04-.02-.05,0-.08-.03-.12-.12-.14,.05-.01,.1-.03,.15-.03,.26-.03,.53-.07,.79-.09,.09,0,.18,0,.27,0,.07,0,.13-.02,.2-.02,.18,0,.35-.01,.53,0,.08,0,.15,.05,.23,.08,.02,0,.06,.01,.07,0,.12-.11,.24,.02,.38-.04-.02,.16,.01,.31-.11,.43-.05,.05-.11,.07-.19,.06-.04,0-.1,0-.14,.03-.06,.05-.12,.12-.17,.19-.02,.03-.02,.08,0,.11,.05,.08,.11,.15,.16,.23,.02,.04,.03,.09,.03,.13,0,.03-.02,.06-.03,.11,.04,0,.06,0,.08,0,.06,0,.11,.02,.09,.1-.02,.11,0,.11,.12,.12,.13,.01,.23-.01,.33-.1,.05-.04,.11-.04,.16,.02,.02,.02,.05,.03,.08,.05l-.05,.12,.02,.02s.05-.05,.08-.08c.05-.07,.09-.13,.13-.2,.02-.03,.03-.07,.03-.11,0-.08,.02-.14,.08-.19,.07-.06,.13-.13,.15-.23,.02-.09,.09-.13,.17-.09,.11,.05,.22,.1,.35,.09,.02,0,.06,.02,.07,.04,.05,.12,.17,.15,.26,.22,.01,0,.03,.02,.04,.02,.19-.02,.32,.12,.47,.18,.04,.02,.09,.06,.11,.1,.06,.09,.11,.11,.2,.04,.05-.04,.11-.09,.17-.04,.04,.04,.06,.11,.08,.17,.03,.06,.04,.12,.07,.17,.06,.1,.18,.16,.19,.29,0,.02,.05,.04,.07,.04,.08,0,.11,.04,.1,.11-.02,.18,.05,.3,.22,.37,.02,0,.03,.04,.04,.06,.04,.1,.08,.2,.19,.24,.07,.03,.07,.1,.05,.15-.03,.09,0,.14,.07,.19,.16,.12,.33,.25,.48,.38,.07,.05,.08,.13,.05,.21-.02,.05-.03,.1-.04,.17-.05-.02-.09-.03-.13-.05-.05-.03-.07-.01-.06,.04,0,.09,0,.18,0,.27,.02,.16,0,.3-.06,.45-.06,.2-.07,.44,.14,.6,.05,.04,.07,.08,.02,.13-.01,.01-.02,.04,0,.06,.05,.09,.1,.18,.17,.26,.13,.14,.28,.26,.42,.4,.05,.05,.1,.11,.12,.18,.05,.11,.07,.14,.19,.14,.07,0,.12,.02,.17,.08,.04,.06,.1,.11,.15,.17,.05,.06,.1,.13,.15,.19,.03,.04,.07,.08,.11,.12,.12,.13,.25,.25,.37,.38,.03,.04,.06,.08,.11,.1,.14,.08,.2,.21,.27,.34,0,.02,.02,.04,.01,.05,0,.19,.12,.3,.26,.4,.13,.1,.25,.2,.39,.28,.12,.07,.26,.12,.4,.18,.03,.02,.08,.02,.1,.04,.1,.09,.21,.11,.34,.04,0,.05,0,.09,0,.12,.02,3.95-2.61,7.46-6.41,8.58-1.04,.31-2.11,.41-3.19,.34-.51-.04-1.01-.12-1.51-.24-.06-.02-.12-.04-.1-.12,.02-.15-.03-.25-.19-.31-.03,.06-.08,.12-.1,.19-.03,.1-.07,.11-.16,.08-.3-.12-.61-.22-.9-.35-.68-.29-1.3-.68-1.88-1.14-.04-.03-.07-.06-.1-.09,.04-.02,.08-.05,.13-.06,.03,0,.07,0,.1,0,.04,.02,.1,.08,.12,.07,.07-.03,.15-.08,.18-.15,.04-.1,.07-.22,.05-.32-.03-.22,0-.42,.02-.64,.03-.2,0-.41,.06-.61-.06-.14-.11-.28-.18-.42-.09-.16-.19-.32-.29-.48-.06-.1-.14-.18-.21-.28-.03-.04-.05-.08-.07-.12-.03-.08-.05-.16-.16-.19-.02,0-.04-.03-.04-.05-.07-.18-.14-.36-.21-.54-.02-.05-.06-.11-.1-.13-.18-.07-.26-.2-.25-.39,0-.04-.01-.07-.02-.12-.03,.1-.06,.19-.08,.28,0,.02,.01,.05,.01,.08,0,.06,.03,.12,.01,.17-.03,.08-.05,.16-.04,.25,.01,.06-.04,.07-.08,.05-.07-.05-.14-.1-.21-.16-.11-.09-.22-.18-.32-.28-.08-.08-.1-.19-.07-.31,.01-.06-.01-.08-.06-.1-.13-.05-.26-.06-.37,.04-.02,.02-.06,.01-.09,.02-.05,.02-.1,.04-.14,.06-.03,.01-.06,.03-.09,.05-.03,.02-.06,.05-.08,.08-.02,.02-.04,.07-.05,.07-.04,0-.08-.03-.11-.04h0l-.09-.1s-.05,.07-.08,.11c0,0-.02,.02-.04,.04-.23-.65-.36-1.31-.42-1.98-.13-1.44,.06-2.84,.6-4.18h.03Zm9.32,7.79c.03-.07,.06-.11,.14-.12,.03,0,.08-.06,.08-.09,.02-.15,.13-.08,.2-.1,.02,0,.06,.06,.09,.08,.03,.02,.08,.06,.11,.05,.11-.03,.21-.23,.19-.35-.02-.1-.04-.2-.04-.3,0-.12,.05-.16,.17-.16,.13,0,.26,0,.39,0,.04,0,.09-.02,.13-.05,.09-.07,.18-.14,.27-.22,.08-.07,.16-.14,.15-.26,0-.06,.03-.07,.08-.07,.21,0,.42,.17,.45,.38,.03,.21,.15,.37,.35,.43,.09,.03,.16,.07,.22,.14,.07,.08,.14,.17,.22,.23,.09,.07,.14,.14,.15,.25,.02,.13,.2,.29,.33,.28,.13,0,.25,.01,.36,.07,.12,.06,.26,.07,.32,.22,.01,.03,.05,.06,.08,.08,.25,.16,.53,.25,.81,.35,.25,.09,.49,.04,.68-.15,.09-.09,.09-.16,0-.23-.12-.1-.26-.18-.39-.26-.05-.04-.12-.06-.16-.11-.11-.13-.26-.19-.42-.25-.1-.04-.22-.09-.29-.18-.11-.14-.19-.31-.27-.47-.02-.03,0-.09,.01-.13,.06-.09,.04-.18,.02-.27-.05-.17-.1-.34-.04-.53,.04-.12,.04-.26,.02-.39-.03-.2,.02-.37,.13-.53,.08-.11,.12-.21,.1-.34-.01-.1-.03-.21-.02-.31,.02-.15-.04-.23-.18-.3-.07-.03-.09-.07-.11-.14-.02-.07-.04-.15-.08-.2-.17-.2-.33-.41-.57-.55-.08-.05-.14-.13-.22-.18-.21-.12-.34-.28-.3-.54,0-.03,0-.07,0-.1,.05-.19-.03-.33-.16-.46-.09-.09-.18-.17-.32-.2-.05-.01-.09-.07-.14-.11-.06-.06-.12-.14-.19-.18-.07-.04-.12-.09-.15-.17-.04-.14-.06-.28-.17-.39-.02-.02-.02-.05-.02-.08,0-.12-.08-.19-.17-.24-.16-.07-.32-.14-.48-.19-.04-.02-.11,0-.15,.01-.1,.06-.2,.04-.31,0-.1-.03-.18-.08-.25-.16-.02-.03-.05-.05-.08-.06-.19-.08-.38-.17-.6-.16-.08,0-.13,.02-.18,.08-.06,.09-.14,.13-.25,.14-.05,0-.09,.04-.14,.05-.07,.02-.14,.06-.21,.07-.17,0-.34,0-.52-.01-.04,0-.08,0-.11-.02-.14-.09-.3-.07-.45-.07-.1,0-.17-.04-.25-.09-.14-.11-.28-.22-.43-.32-.02-.02-.07-.02-.1-.01-.16,.06-.33,.07-.51,.07-.14,0-.26,.05-.37,.14-.08,.07-.17,.13-.26,.18-.13,.07-.18,.17-.14,.3,.02,.08,.05,.16,.08,.24,.07,.16,0,.3-.18,.32-.16,.02-.28-.03-.39-.15-.15-.17-.28-.18-.48-.08-.02,0-.04,.01-.05,.02-.2,.06-.4,.11-.54,.29-.03,.03-.08,.04-.12,.06-.07,.02-.14,.04-.21,.07-.11,.05-.16,.02-.21-.08-.03-.07-.09-.14-.15-.18-.15-.11-.34-.11-.52-.12-.19-.01-.38,0-.56,.02-.16,.02-.34,.06-.43,.21-.08,.13-.2,.24-.23,.41-.01,.1-.04,.18-.02,.28,.03,.18,.02,.35-.15,.47-.07,.05-.12,.11-.18,.17-.08,.08-.08,.18-.03,.27,.02,.04,.04,.08,.05,.12,.02,.2,.2,.3,.29,.45,0,0,.02,.02,.03,.02,.13,.02,.26,.06,.39,.04,.16-.03,.31-.02,.45,.05,.22,.1,.46,.19,.67,.32,.14,.08,.24,.23,.35,.35,.08,.08,.16,.17,.21,.27,.04,.08,.06,.17,.17,.19,0,0,.02,.02,.02,.03,.03,.16,.15,.18,.28,.17,.12,0,.19,.07,.24,.17,.1,.18,.14,.41,.35,.52h0c.13,.2,.25,.39,.28,.63,.02,.14,.1,.25,.2,.35,.08,.08,.17,.03,.26,.05,.07,.02,.15,.05,.19,.1,.09,.11,.19,.24,.1,.43,.14-.04,.16,.08,.23,.14,.09,.06,.19,.11,.28,.16,.02,0,.04,0,.06,0,.06,0,.11,0,.17,0,.21,0,.22,0,.25-.21,0-.04,0-.08,.03-.11,.02-.03,.06-.07,.08-.06,.11,.02,.22,.05,.31,.1,.09,.06,.16,.15,.24,.23,.08,.08,.16,.08,.23-.01,.06-.08,.11-.17,.18-.24,.03-.03,.07-.08,.11-.08,.13,0,.25,0,.38,.03,.09,.02,.17,.06,.25,.1,.09,.05,.22,.06,.25,.19,.02,.08,.06,.14,.15,.16,.03,.01,.06,.05,.09,.08,.14,.2,.16,.21,.43,.17l.03,.06Zm-8.53-3.11v.03s.04,.04,.07,.04c.1,0,.17,.06,.25,.12,.03,.03,.08,.05,.13,.06,.09,0,.12,.05,.09,.13-.02,.09,.02,.15,.1,.2,.05,.03,.09,.06,.14,.09,.11,.08,.16,.08,.26-.01,.09-.08,.14-.07,.23,0,.09,.08,.19,.15,.29,.23,.01,0,.03,.01,.05,.02-.02-.05-.05-.09-.08-.13-.06-.07-.14-.12-.14-.23,0-.09-.05-.15-.13-.19-.05-.02-.1-.06-.12-.11-.11-.2-.32-.24-.51-.27-.08-.01-.15-.03-.22-.06-.05-.02-.14-.04-.17,0-.07,.07-.14,.11-.24,.1Zm5.38,6.87c.07-.07,.09-.15,.09-.25,0-.1-.01-.2,.07-.29,.04-.04,.07-.11,.08-.18,.02-.12-.06-.19-.17-.19-.04,0-.08-.03-.12-.05-.05-.03-.08-.08-.13-.1-.08-.04-.11-.1-.13-.17-.03-.1-.09-.2-.14-.3-.01-.02-.05-.02-.08-.04,0,.03-.03,.06-.02,.09,.04,.14,.1,.28,.14,.42,.03,.09,.05,.19,.08,.28,.03,.11,.06,.21,.1,.32,.02,.06,.06,.12,.08,.19,.04,.09,.05,.2,.15,.27Z"/><path class="h" d="M89.73,27.1s-.05-.02-.06-.03c-.12-.12-.24-.24-.34-.37-.04-.04-.06-.11-.06-.17,0-.14-.01-.27,.06-.4,.03-.05,0-.12,.02-.17,.02-.06,.04-.12,.09-.15,.09-.06,.17-.03,.18,.09,.05,.38,.09,.76,.13,1.15,0,.02,0,.04,0,.07Z"/><path class="h" d="M74.69,33.97c-.17-.18-.35-.36-.51-.55-.04-.05-.01-.17,0-.26,0,0,.09-.03,.1-.02,.05,.05,.1,.12,.11,.18,.01,.15,.07,.26,.2,.33,.03,.02,.05,.06,.06,.09,.02,.07,.04,.14,.06,.2v.02Z"/><path class="h" d="M73.91,33.12l-.31-.4c.14,.04,.18,.1,.31,.4Z"/><path class="g" d="M81.9,31.94l-.03-.06c-.27,.04-.29,.04-.43-.17-.02-.03-.05-.07-.09-.08-.08-.03-.12-.08-.15-.16-.03-.12-.16-.14-.25-.19-.08-.04-.16-.09-.25-.1-.12-.02-.25-.03-.38-.03-.04,0-.08,.05-.11,.08-.06,.08-.11,.16-.18,.24-.07,.09-.15,.09-.23,.01-.08-.08-.15-.18-.24-.23-.09-.06-.2-.08-.31-.1-.02,0-.06,.04-.08,.06-.02,.03-.02,.07-.03,.11-.02,.2-.04,.22-.25,.21-.06,0-.11,0-.17,0-.02,0-.05,0-.06,0-.09-.05-.19-.1-.28-.16-.08-.05-.1-.18-.23-.14,.09-.19-.02-.31-.1-.43-.04-.05-.12-.08-.19-.1-.08-.02-.18,.02-.26-.05-.1-.1-.18-.21-.2-.35-.03-.24-.15-.43-.28-.62h0c-.22-.11-.25-.34-.35-.52-.05-.1-.12-.17-.24-.17-.13,0-.25-.01-.28-.17,0,0-.01-.02-.02-.03-.11-.02-.13-.11-.17-.19-.06-.1-.14-.19-.21-.27-.11-.12-.21-.26-.35-.35-.21-.13-.45-.22-.67-.32-.15-.07-.29-.08-.45-.05-.12,.02-.26-.02-.39-.04-.01,0-.03,0-.03-.02-.09-.15-.27-.25-.29-.45,0-.04-.03-.08-.05-.12-.05-.09-.05-.2,.03-.27,.06-.06,.12-.13,.18-.17,.17-.12,.18-.3,.15-.47-.01-.1,0-.19,.02-.28,.02-.17,.14-.28,.23-.41,.09-.15,.27-.19,.43-.21,.19-.02,.38-.04,.56-.02,.18,.01,.36,.02,.52,.12,.06,.04,.12,.11,.15,.18,.05,.11,.1,.13,.21,.08,.07-.03,.14-.04,.21-.07,.04-.02,.1-.03,.12-.06,.14-.18,.34-.23,.54-.29,.02,0,.04,0,.05-.02,.2-.1,.34-.08,.48,.08,.11,.12,.23,.17,.39,.15,.17-.02,.25-.16,.18-.32-.03-.08-.06-.16-.08-.24-.04-.13,.01-.23,.14-.3,.09-.05,.18-.11,.26-.18,.11-.09,.23-.14,.37-.14,.17,0,.34,0,.51-.07,.03-.01,.08,0,.1,.01,.14,.1,.29,.21,.43,.32,.07,.06,.15,.1,.25,.09,.15,0,.31-.02,.45,.07,.03,.02,.07,.02,.11,.02,.17,0,.34,.02,.52,.01,.07,0,.14-.04,.21-.07,.05-.02,.09-.05,.14-.05,.11,0,.19-.05,.25-.14,.04-.06,.1-.08,.18-.08,.22-.01,.41,.08,.6,.16,.03,.01,.06,.04,.08,.06,.07,.08,.15,.13,.25,.16,.11,.04,.2,.05,.31,0,.04-.02,.11-.03,.15-.01,.16,.06,.33,.12,.48,.19,.1,.04,.17,.12,.17,.24,0,.03,0,.06,.02,.08,.11,.11,.13,.25,.17,.39,.02,.08,.07,.13,.15,.17,.07,.04,.13,.12,.19,.18,.04,.04,.09,.1,.14,.11,.13,.03,.22,.11,.32,.2,.13,.13,.22,.26,.16,.46,0,.03,0,.07,0,.1-.04,.26,.08,.42,.3,.54,.08,.05,.14,.13,.22,.18,.23,.14,.39,.35,.57,.55,.05,.05,.06,.13,.08,.2,.02,.07,.04,.11,.11,.14,.15,.07,.2,.15,.18,.3-.01,.1,0,.2,.02,.31,.01,.13-.03,.23-.1,.34-.11,.15-.16,.33-.13,.53,.02,.13,.02,.27-.02,.39-.06,.19-.02,.36,.04,.53,.03,.09,.04,.18-.02,.27-.02,.03-.03,.09-.01,.13,.08,.16,.16,.33,.27,.47,.07,.08,.18,.14,.29,.18,.16,.06,.3,.13,.42,.25,.04,.05,.11,.07,.16,.11,.13,.09,.27,.17,.39,.26,.1,.08,.1,.14,0,.23-.2,.19-.43,.24-.68,.15-.28-.1-.56-.19-.81-.35-.03-.02-.07-.04-.08-.08-.06-.14-.21-.16-.32-.22-.11-.06-.23-.08-.36-.07-.13,0-.32-.15-.33-.28-.01-.11-.06-.19-.15-.25-.08-.06-.15-.15-.22-.23-.06-.07-.13-.12-.22-.14-.21-.06-.32-.22-.35-.43-.03-.21-.24-.39-.45-.38-.05,0-.09,.02-.08,.07,0,.12-.07,.19-.15,.26-.09,.07-.17,.15-.27,.22-.04,.03-.08,.04-.13,.05-.13,0-.26,0-.39,0-.12,0-.17,.04-.17,.16,0,.1,.02,.2,.04,.3,.02,.12-.08,.32-.19,.35-.03,0-.08-.03-.11-.05-.03-.02-.07-.09-.09-.08-.07,.02-.19-.05-.2,.1,0,.03-.05,.09-.08,.09-.08,0-.11,.04-.14,.12Z"/><path class="g" d="M73.36,28.83c.1,.02,.17-.03,.24-.1,.03-.03,.12-.02,.17,0,.07,.04,.14,.05,.22,.06,.2,.04,.4,.07,.51,.27,.02,.05,.08,.08,.12,.11,.08,.04,.13,.1,.13,.19,0,.11,.08,.16,.14,.23,.03,.04,.06,.08,.08,.13-.02,0-.03,0-.05-.02-.1-.08-.2-.15-.29-.23-.09-.08-.14-.08-.23,0-.1,.09-.15,.09-.26,.01-.05-.03-.09-.06-.14-.09-.08-.05-.12-.11-.1-.2,.02-.08,0-.12-.09-.13-.04,0-.09-.03-.13-.06-.07-.06-.15-.11-.25-.12-.02,0-.05-.03-.07-.04v-.03Z"/><path class="g" d="M78.74,35.7c-.1-.07-.11-.17-.15-.27-.03-.06-.06-.12-.08-.19-.04-.1-.07-.21-.1-.32-.03-.09-.05-.19-.08-.28-.05-.14-.1-.28-.14-.42,0-.02,.01-.06,.02-.09,.03,.01,.07,.02,.08,.04,.05,.1,.11,.2,.14,.3,.03,.08,.05,.14,.13,.17,.05,.02,.08,.07,.13,.1,.04,.02,.08,.06,.12,.05,.12,0,.2,.07,.17,.19-.01,.06-.04,.13-.08,.18-.08,.09-.08,.18-.07,.29,0,.09-.01,.18-.09,.25Z"/></g></g></g><text class="j" transform="translate(13.65 34.2) scale(.52 1)"><tspan x="0" y="0">To: Mu Methods</tspan><tspan x="0" y="17.43">from: 0x000</tspan></text><g><path class="i" d="M73.93,47.23v-2.74h5v3.5h-.49l-4.51-.76Zm5,27.23v3.5h-5v-2.74l4.51-.76h.49Zm-2.61-14.17c0-5.25,0-10.54-.09-15.79h5.4c-.09,5.14-.09,10.44-.09,15.79v1.68c0,5.45,0,10.75,.09,16h-5.4c.09-5.14,.09-10.44,.09-15.79v-1.89Zm10.18-15.79l2.25,2.88h-9.82v-2.88h10.86l.22,8.77h-2.59l-.92-8.77Zm-.73,17.69h-6.84v-3h6.84v3Zm4.86,7l-.22,8.77h-11.48v-2.84h10.44l-2.25,2.84,.92-8.77h2.59Zm-5.81-9.12l.47-4.88h1.8v10.97h-1.8l-.47-5.14v-.95Z"/><path class="i" d="M93.88,77.96c.06-2.29,.09-7.54,.09-10.7v-2.95c0-2.8,0-3.87-.09-5.9l-1.9-.46v-2l6.13-3.39,.53,.55,.28,5.65v8.5c0,3.16,.03,8.4,.09,10.7h-5.14Zm6.55-2.37v2.37h-8.17v-2.37l2.88-1.02h2.37l2.93,1.02Zm7.72-14.26v5.94c0,3.26,.03,8.4,.09,10.7h-5.05c.06-2.29,.09-7.44,.09-10.7v-4.9c0-3.56-.43-4.87-1.8-4.87s-2.75,1.83-3.69,3.74h-1.14v-3.28h1.94l-.93,1.43c1.88-4.57,3.67-6.81,6.02-6.81,2.94,0,4.46,2.88,4.46,8.76Zm-1.35,13.24l2.86,1.02v2.37h-8.02v-2.37l2.74-1.02h2.41Zm10.54-12.99v5.69c0,3.26,.03,8.4,.09,10.7h-5.04c.06-2.29,.09-7.44,.09-10.7v-4.93c0-3.83-.49-4.84-1.77-4.84s-2.59,1.43-3.77,3.74h-1.1v-3.4h2.19l-1.27,1.55c2.2-5.28,3.93-6.81,6.05-6.81,3.13,0,4.53,2.95,4.53,9.01Zm-1.33,12.99l2.93,1.02v2.37h-7.99v-2.37l2.59-1.02h2.48Z"/><path class="i" d="M126.31,63.77c1.28-.62,3.48-1.57,4.95-2.14v2.13c-1.46,.61-3.14,1.35-4.05,2.04-1.41,.97-2.32,2.69-2.32,5.08,0,2.55,.82,3.73,1.87,3.73,.59,0,1.08-.41,2.07-1.59l1.25-1.54,.32,.74-1.3,2.32c-1.5,2.62-2.47,4.19-4.72,4.19-2.4,0-4.07-2.32-4.07-6.51,0-3.62,1.22-6.17,6.01-8.45Zm2.36,10.02v-12.75c0-4.51-.53-5.85-2.52-5.85-.76,0-1.56,.15-2.91,.73l2.14-1.98-.22,3.54c-.08,3.39-1.08,4.75-2.28,4.75-1.11,0-1.85-.88-2.09-2.55,.16-4.24,2.66-7.11,7.14-7.11,3.98,0,5.56,2.76,5.56,9.58v11.42c0,1.01,.25,1.49,.7,1.49,.33,0,.58-.28,.94-1.12l.82,.9c-.75,2.78-1.85,3.85-3.74,3.85-2.11,0-3.27-1.82-3.54-4.9Z"/><path class="i" d="M138.39,77.96c.06-2.29,.09-7.54,.09-10.7v-2.43c0-2.8-.03-4.38-.09-6.42l-1.92-.46v-2l6.5-3.39,.53,.55-.09,7.39v6.76c0,3.16,.03,8.4,.09,10.7h-5.12Zm6.62-2.37v2.37h-8.24v-2.37l2.88-1.02h2.35l3.02,1.02Zm-6.75-30.85c0-2.38,1.17-4.05,2.63-4.05s2.63,1.68,2.63,4.05-1.17,4.05-2.63,4.05-2.63-1.69-2.63-4.05Z"/><path class="i" d="M152.81,40.96l.5,.52-.12,7.12v18.66c0,3.57,.03,7.13,.09,10.7h-5.13c.06-3.57,.09-7.13,.09-10.7v-21.34l-1.93-.51v-2.15l6.5-2.29Zm2.15,34.62v2.37h-8.49v-2.37l2.97-1.02h2.35l3.17,1.02Z"/><path class="i" d="M163.23,47.23v-2.74h10.13v2.74l-4.62,.76h-.89l-4.62-.76Zm11.94,27.04c2.79,0,4.45-3.05,4.45-10.74v-19.04h2.02v19.04c0,10.81-3.06,15.37-8.19,15.37-4.59,0-7.93-3.72-7.93-13.6v-5.54c0-5.03,0-10.18-.09-15.27h5.4c-.09,5-.09,10.15-.09,15.27v3.91c0,7.8,1.48,10.59,4.42,10.59Zm4.94-26.58l-3.3-.47v-2.74h7.41v2.74l-3.19,.47h-.91Z"/><path class="i" d="M184.73,76.39l.08-6.25h2.5l.7,6.82-1.75-.99v-2.1c1.36,1.34,2.45,2.05,3.89,2.05,1.79,0,2.77-.95,2.77-3,0-1.6-.57-2.65-2.62-3.64l-1.67-.79c-2.4-1.15-3.76-3.77-3.76-7.6,0-4.7,2.3-8.33,6.48-8.33,1.83,0,3.32,.73,4.92,2.05l-.21,5.58h-2.49l-.89-6.28,1.72,1.22v1.88c-1.11-1.16-1.78-1.64-3.17-1.64s-2.31,1.01-2.31,2.85c0,1.41,.46,2.39,2.6,3.44l1.51,.71c2.95,1.44,4.13,4.09,4.13,7.88,0,5.39-2.65,8.48-7.02,8.48-2.03,0-3.77-.77-5.4-2.34Z"/><path class="i" d="M206.05,48.75c0,1.85-.3,5.33-1.37,11.65l-.76,4.88h-1.66l-.76-4.88c-1.1-6.36-1.37-9.8-1.37-11.65,0-3.15,1.14-4.8,2.96-4.8s2.96,1.65,2.96,4.8Zm-5.86,25.3c0-2.61,1.27-4.73,2.9-4.73s2.9,2.12,2.9,4.73-1.27,4.68-2.9,4.68-2.9-2.07-2.9-4.68Z"/></g><g><path class="g" d="M72.34,46.24v-2.74h5v3.5h-.49l-4.51-.76Zm5,27.23v3.5h-5v-2.74l4.51-.76h.49Zm-2.61-14.17c0-5.25,0-10.54-.09-15.79h5.4c-.09,5.14-.09,10.44-.09,15.79v1.68c0,5.45,0,10.75,.09,16h-5.4c.09-5.14,.09-10.44,.09-15.79v-1.89Zm10.18-15.79l2.25,2.88h-9.82v-2.88h10.86l.22,8.77h-2.59l-.92-8.77Zm-.73,17.69h-6.84v-3h6.84v3Zm4.86,7l-.22,8.77h-11.48v-2.84h10.44l-2.25,2.84,.92-8.77h2.59Zm-5.81-9.12l.47-4.88h1.8v10.97h-1.8l-.47-5.14v-.95Z"/><path class="g" d="M92.3,76.97c.06-2.29,.09-7.54,.09-10.7v-2.95c0-2.8,0-3.87-.09-5.9l-1.9-.46v-2l6.13-3.39,.53,.55,.28,5.65v8.5c0,3.16,.03,8.4,.09,10.7h-5.14Zm6.55-2.37v2.37h-8.17v-2.37l2.88-1.02h2.37l2.93,1.02Zm7.72-14.26v5.94c0,3.26,.03,8.4,.09,10.7h-5.05c.06-2.29,.09-7.44,.09-10.7v-4.9c0-3.56-.43-4.87-1.8-4.87s-2.75,1.83-3.69,3.74h-1.14v-3.28h1.94l-.93,1.43c1.88-4.57,3.67-6.81,6.02-6.81,2.94,0,4.46,2.88,4.46,8.76Zm-1.35,13.24l2.86,1.02v2.37h-8.02v-2.37l2.74-1.02h2.41Zm10.54-12.99v5.69c0,3.26,.03,8.4,.09,10.7h-5.04c.06-2.29,.09-7.44,.09-10.7v-4.93c0-3.83-.49-4.84-1.77-4.84s-2.59,1.43-3.77,3.74h-1.1v-3.4h2.19l-1.27,1.55c2.2-5.28,3.93-6.81,6.05-6.81,3.13,0,4.53,2.95,4.53,9.01Zm-1.33,12.99l2.93,1.02v2.37h-7.99v-2.37l2.59-1.02h2.48Z"/><path class="g" d="M124.73,62.78c1.28-.62,3.48-1.57,4.95-2.14v2.13c-1.46,.61-3.14,1.35-4.05,2.04-1.41,.97-2.32,2.69-2.32,5.08,0,2.55,.82,3.73,1.87,3.73,.59,0,1.08-.41,2.07-1.59l1.25-1.54,.32,.74-1.3,2.32c-1.5,2.62-2.47,4.19-4.72,4.19-2.4,0-4.07-2.32-4.07-6.51,0-3.62,1.22-6.17,6.01-8.45Zm2.36,10.02v-12.75c0-4.51-.53-5.85-2.52-5.85-.76,0-1.56,.15-2.91,.73l2.14-1.98-.22,3.54c-.08,3.39-1.08,4.75-2.28,4.75-1.11,0-1.85-.88-2.09-2.55,.16-4.24,2.66-7.11,7.14-7.11,3.98,0,5.56,2.76,5.56,9.58v11.42c0,1.01,.25,1.49,.7,1.49,.33,0,.58-.28,.94-1.12l.82,.9c-.75,2.78-1.85,3.85-3.74,3.85-2.11,0-3.27-1.82-3.54-4.9Z"/><path class="g" d="M136.8,76.97c.06-2.29,.09-7.54,.09-10.7v-2.43c0-2.8-.03-4.38-.09-6.42l-1.92-.46v-2l6.5-3.39,.53,.55-.09,7.39v6.76c0,3.16,.03,8.4,.09,10.7h-5.12Zm6.62-2.37v2.37h-8.24v-2.37l2.88-1.02h2.35l3.02,1.02Zm-6.75-30.85c0-2.38,1.17-4.05,2.63-4.05s2.63,1.68,2.63,4.05-1.17,4.05-2.63,4.05-2.63-1.69-2.63-4.05Z"/><path class="g" d="M151.23,39.98l.5,.52-.12,7.12v18.66c0,3.57,.03,7.13,.09,10.7h-5.13c.06-3.57,.09-7.13,.09-10.7v-21.34l-1.93-.51v-2.15l6.5-2.29Zm2.15,34.62v2.37h-8.49v-2.37l2.97-1.02h2.35l3.17,1.02Z"/><path class="g" d="M161.65,46.24v-2.74h10.13v2.74l-4.62,.76h-.89l-4.62-.76Zm11.94,27.04c2.79,0,4.45-3.05,4.45-10.74v-19.04h2.02v19.04c0,10.81-3.06,15.37-8.19,15.37-4.59,0-7.93-3.72-7.93-13.6v-5.54c0-5.03,0-10.18-.09-15.27h5.4c-.09,5-.09,10.15-.09,15.27v3.91c0,7.8,1.48,10.59,4.42,10.59Zm4.94-26.58l-3.3-.47v-2.74h7.41v2.74l-3.19,.47h-.91Z"/><path class="g" d="M183.15,75.4l.08-6.25h2.5l.7,6.82-1.75-.99v-2.1c1.36,1.34,2.45,2.05,3.89,2.05,1.79,0,2.77-.95,2.77-3,0-1.6-.57-2.65-2.62-3.64l-1.67-.79c-2.4-1.15-3.76-3.77-3.76-7.6,0-4.7,2.3-8.33,6.48-8.33,1.83,0,3.32,.73,4.92,2.05l-.21,5.58h-2.49l-.89-6.28,1.72,1.22v1.88c-1.11-1.16-1.78-1.64-3.17-1.64s-2.31,1.01-2.31,2.85c0,1.41,.46,2.39,2.6,3.44l1.51,.71c2.95,1.44,4.13,4.09,4.13,7.88,0,5.39-2.65,8.48-7.02,8.48-2.03,0-3.77-.77-5.4-2.34Z"/><path class="g" d="M204.46,47.76c0,1.85-.3,5.33-1.37,11.65l-.76,4.88h-1.66l-.76-4.88c-1.1-6.36-1.37-9.8-1.37-11.65,0-3.15,1.14-4.8,2.96-4.8s2.96,1.65,2.96,4.8Zm-5.86,25.3c0-2.61,1.27-4.73,2.9-4.73s2.9,2.12,2.9,4.73-1.27,4.68-2.9,4.68-2.9-2.07-2.9-4.68Z"/></g></g></g></svg>