<?xml version="1.0" encoding="UTF-8"?><svg xmlns="http://www.w3.org/2000/svg" viewBox="0 0 270.38 69.59"><defs><style>.d{fill:#605f54;}</style></defs><g id="a"/><g id="b"><g id="c"><path class="d" d="M225.81,9.09c-10.03-1.45-19.76-1.47-29.09,2.3-3.65,1.48-6.36,3.67-6.55,7.68-.08,1.77-.85,3.49-3.18,3.02-2.41-.49-2.77-2.4-2.11-4.34,1.56-4.6,5.57-6.92,10.13-8.54,10.24-3.65,20.98-3.95,31.75-3.53,5.91,.23,11.79,1.05,18,1.63-1.88-5.67-7.97-4.93-12.24-7.15,18.97-2.07,38.95,16.17,35.65,32.88-2.33-2.77-7.37-3.29-5.08-8.42,.76-1.69-1.78-3.03-3.5-3.96-12.67-6.88-32.55,2.57-33.64,15.98-.45,5.54,1.66,10.07,7.06,12.84,6.2,3.18,10.86,.02,15.39-4.15-2.3,9.29-13.72,10.29-23.16,2.55,.91,6.29,6.91,10.62,14.56,10.52,7.51-.1,13.76-4.99,14.52-11.34,.72-6.02-3.56-9.41-15.45-12.16,.2-.49,.23-1.2,.61-1.42,8.33-4.88,20.33-1.36,23.99,6.93,.72,1.63,.32,4.88,4.29,2.56,1.52-.89,2.37,.53,2.54,2.01,.34,3.03-.53,5.69-2.43,8.2-2.08,2.74-7.03,3.95-5,9.03,.57,1.42-2.97,2.52-5.14,2.91-12.2,2.18-23.26-.06-31.5-8.74-8.14-8.57-7.05-18.33-1.97-28.03,.55-1.05,1.95-1.91,1.14-3.83-6.11,4.78-10.11,10.72-13.95,16.77-4.48,7.07-8.88,14.18-15.31,20.01-5.74,5.21-12.48,8.4-20.71,8.28-2.59-.04-5.59,.38-7.61-2.5,3.98-2.24,9.52-.02,12.62-4.11,.07-1.19-1.45-1.33-2.26-2.04-.95-.83-1.46-1.77-.88-2.89,.53-1.01,1.7-.53,2.61-.71,10-2.01,19.71-4.72,25.62-13.14,4.05-5.77,7.54-11.88,11.38-18-2.77-.83-4.44,.79-6.21,1.66-8.47,4.14-15.99,9.49-22.89,15.56-19.72,17.34-43.12,23.82-70.41,21.76-25.1-1.89-47.54-9.48-68.47-21.69-7.21-4.21-14.99-6.99-23.83-6.96,7.07-2.37,13.59-1.15,19.84,1.83,9.68,4.63,19.23,9.5,29,13.97,6.87,3.14,13.94,5.99,21.86,6.68-20.24-9.23-37.59-22.75-57.91-31.78-4.11-1.83-8.46-3.18-13.04-3.74-8.69-1.06-10.71-.35-24.84,8.55,.64-8.69,7.56-13.77,23.42-16.99-1.52-2.3-4.14-2.71-6.36-3.66-1.03-.44-2.56-.66-2.22-2.06,.34-1.38,1.89-1.05,3-1.06,8.34-.03,16.02,2.35,23.55,5.34,1.96,.78,4.17,2.81,4.45-1.63,.16-2.46,2.33-.84,3.23,.14,2.94,3.19,5.94,6.37,8.55,9.78,10.34,13.54,22.3,25.35,38.29,33.7,10.64,5.56,21.3,6.84,33.93,3.85-4.94-2.44-9.45-3.83-12.99-6.74-3.63-2.98-8.93-7.73-7.42-10.45,3.81-6.86-.84-14.48,3.98-20.83,2.52-3.31,4.16-3.7,6.06,.91,1.66-2.16,2.9-3.92,4.3-5.57,8.71-10.27,24.9-12.96,35.03-5.87,6.84,4.79,8.52,13.29,3.56,18.73-2.93,3.21-6.69,4.55-11.18,2.92-3.71-1.36-5.59-3.95-5.39-7.65,.07-1.26,.12-2.65,1.61-3.29,1.68-.72,2.42,.49,3.36,1.45,2.45,2.51,5.4,2.44,7.86,.34,2.48-2.11,2.34-4.96,.58-7.49-2.61-3.76-6.85-4.92-11.38-4.83-10.22,.21-17.37,5.12-21.4,13.33-4.13,8.42-4.21,17.01,2.3,24.67,3.17,3.73,7.73,5.49,14.45,5.01-5.01-2.17-9.52-2.93-12.4-6.16-3.19-3.58-3.73-7.54-1.84-11.73,2.15-4.78,5.92-6.33,11.4-4.68-.36,.42-.61,1.04-.98,1.11-3.27,.63-6.15,1.54-6.66,5.17-.54,3.81,.95,6.86,4.33,8.95,8.41,5.17,17.17,5.2,25.9,.75,6.97-3.56,13.02-8.32,19.27-12.8,13.61-9.75,25.93-21.35,43.6-25.6Zm23.54-2.53c-1.25,1.83,2.94,5.86-3.32,5.47-18.57-1.15-34.53,4.7-49.05,15.14-17.97,12.92-34.13,28.47-57.46,34.07,1.56,.19,2.92,.05,4.23-.25,17.96-4.01,32.29-13.67,45.82-24.54,19.93-16,42.06-25.9,70-20.74-2.33-4.37-5.98-6.96-10.22-9.15ZM27.82,19.78c13.14,3.47,23.68,10.93,35.86,17.09-6.78-10.8-10.26-13.62-22.58-17.85-4.36-1.5-8.73,.94-13.28,.76Zm227.79,18.78c3.33,12.71-2.19,19.91-16.07,22.44,11.23,2.88,18.21,.11,22.69-8.34,.53-.99,1.19-2.74,.24-2.9-4.71-.81-2.3-4.03-2.82-6.21-.42-1.76-.49-3.6-4.04-5Zm-122.78,17.05c-9.1-5.4-12.64-13.15-11.99-22.75,.06-.9,.12-1.83-.1-2.69-.16-.62-.65-1.5-1.2-1.65-1.18-.32-1.7,.72-1.91,1.52-1.71,6.66,1.23,12.99,2.82,19.15,1.08,4.15,7.08,5.78,12.39,6.43Zm66.27-1.18c-5.08,1.7-9.75,3.82-11.18,9.21,4.9-1.89,8.6-4.98,11.18-9.21Z"/><path class="d" d="M116.48,57.89c-7.36-.23-13.95-2.42-19.03-7.39-1.92-1.88-4.82-4.69-2.03-6.98,2.86-2.33,6.01-.14,7.94,2.4,3.55,4.66,7.74,8.66,13.12,11.97Z"/><path class="d" d="M58.93,51.2c-5.05,.6-8.79,.88-11.99,2.88-1.56,.98-3.35,1.73-4.48-.34-1.1-2.01,.1-3.57,2.11-4.36,4.49-1.76,8.77-1.02,14.36,1.82Z"/><path class="d" d="M48.88,45.82c-5.12,.36-8.5,.39-11.62,1.74-1.28,.55-2.74,1.12-3.44-.6-.73-1.8,.61-2.69,2.23-3.18,4-1.21,7.62-.15,12.83,2.04Z"/><path class="d" d="M127.71,29.37c1.54-3.37,3.46-5.29,6.42-6.29,1.55-.52,2.85-.13,3.33,1.31,.41,1.25-.56,1.97-1.81,2.37-2.39,.77-4.76,1.56-7.93,2.6Z"/></g></g></svg>