<?xml version="1.0" encoding="UTF-8"?><svg xmlns="http://www.w3.org/2000/svg" viewBox="0 0 291.52 154.72"><defs><style>.e{fill:#d3cfb4;}.f{fill:#414039;}.g{fill:#605f54;}</style></defs><g id="a"/><g id="b"><g id="c"><g><path class="e" d="M169.1,37.36c-2.98,1.69-5.89,2.49-9.68,2.49-8.79,0-14.79-5.57-14.79-14.9s5.61-14.77,15.3-14.77c2.81,0,5.8,.64,8.28,1.96l.17,6.66h-3.32l-1.5-6.79,2.96,.61v2.25c-2.09-1.64-3.89-2.28-5.76-2.28-4.63,0-8.57,3.86-8.57,12.36s3.77,12.47,8.5,12.47c1.79,0,3-.49,4.85-1.51l-3.25,2.75v-3.25c0-3.46-.04-6.71-.13-10.2h7.06c-.08,3.42-.13,6.8-.13,10.35v1.79Zm-10.73-9.85v-2.3h13.02v2.3l-5.01,.67h-2.8l-5.22-.67Z"/><path class="e" d="M175.55,39.06c.08-1.92,.13-6.33,.13-8.98v-2.04c0-2.35-.04-3.68-.13-5.39l-2.64-.38v-1.68l8.95-2.84,.73,.46-.13,6.2v5.67c0,2.65,.04,7.05,.13,8.98h-7.04Zm9.11-1.99v1.99h-11.34v-1.99l3.96-.85h3.23l4.15,.85Zm-9.29-25.88c0-1.99,1.61-3.4,3.62-3.4s3.62,1.41,3.62,3.4-1.61,3.4-3.62,3.4-3.62-1.42-3.62-3.4Z"/><path class="e" d="M197.76,36.21c.79,0,1.49-.32,2.32-.95l1.04,1.03c-1.13,2.17-3.13,3.41-6.25,3.41-3.87,0-6.14-1.72-6.14-5.94,0-1.49,.04-2.63,.04-4.3v-8.14h-2.76v-2.55l5.05-.65-2.45,1.72,2.7-7.45h4.36l-.1,7.7v13.2c0,2.01,.91,2.92,2.18,2.92Zm2.3-17.81v2.93h-7.85v-2.93h7.85Z"/><path class="e" d="M201.94,13.27v-2.3h13.48v2.3l-6.23,.64h-1.26l-5.99-.64Zm7.24,22.85l6.23,.64v2.3h-13.48v-2.3l5.99-.64h1.26Zm-4.02-11.89c0-4.4,0-8.85-.13-13.25h7.43c-.13,4.32-.13,8.76-.13,13.25v1.31c0,4.67,0,9.12,.13,13.52h-7.43c.13-4.32,.13-8.76,.13-13.25v-1.58Zm3.59,1.65v-2.49h16.29v2.49h-16.29Zm9.62-12.6v-2.3h13.48v2.3l-6.14,.64h-1.19l-6.14-.64Zm7.34,22.85l6.14,.64v2.3h-13.48v-2.3l6.14-.64h1.19Zm-4.26-11.89c0-4.4,0-8.85-.13-13.25h7.43c-.13,4.32-.13,8.76-.13,13.25v1.58c0,4.4,0,8.85,.13,13.25h-7.43c.13-4.32,.13-8.76,.13-13.52v-1.31Z"/><path class="e" d="M241.78,32.05c0,2.66,.86,3.52,2.32,3.52,1.69,0,3.75-1.72,5.03-3.51h1.64v2.83h-2.8l1.37-1.23c-2.04,3.81-4.88,6.05-8.4,6.05s-6.11-2.05-6.04-7.69l.16-11.5,1.36,1.37-3.82-.85v-1.8l8.71-1.23,.67,.46-.21,6.04v7.56Zm6.35,7.48l-.35-5.03,.16-14.01,1.36,1.4-3.7-.85v-1.65l8.51-1.39,.67,.46-.13,6.04v14.2l-2.85-2.66,5.08,1.07v1.99l-8.76,.43Z"/><path class="e" d="M258.94,37.1l4-.85-1.78,2.84c.08-1.92,.13-6.33,.13-8.98V12.08l-2.65-.33v-1.8l8.82-1.92,.69,.43-.17,5.98v6.51l.13,.56v14.47l-1.08,3.71-8.08-.58v-1.99Zm16.37-8.43c0-5.05-1.71-7.21-4.25-7.21-2.25,0-4.16,2.35-5.55,3.8l-.38-.71c2.45-4.59,5.29-6.8,9.06-6.8,4.65,0,8.37,3.7,8.37,10.81s-4.32,11.15-9.13,11.15c-3.84,0-6.09-2.17-7.99-6.59l.38-.81c1.76,2.36,3.08,3.78,5.18,3.78,2.49,0,4.31-2.37,4.31-7.42Z"/></g><g id="d"><g><path class="e" d="M70.97,153.72l-.08-.02c-.14-.03-.28-.07-.42-.07-2.55-.13-5.2-.45-8.08-.99-14.36-2.69-26.89-9.08-37.25-18.98C9.86,119.05,1.75,100.67,1.04,79.01c-.18-5.38,.3-10.92,1.41-16.47C6.09,44.4,15.01,29.34,28.97,17.79,41.26,7.62,55.66,2.01,71.78,1.11c1.25-.07,2.53-.11,3.8-.11,3.5,0,7.07,.27,10.62,.81,9.56,1.44,18.5,4.64,26.55,9.5,14.73,8.89,25.46,21.64,31.87,37.9,2.57,6.51,4.2,13.39,4.84,20.44,.11,1.2,.2,2.41,.28,3.62l.12,1.68v4.98l-.03,.16c-.03,.2-.06,.4-.07,.6-.12,4.45-.66,8.77-1.58,12.86-5.43,23.87-19.01,41.58-40.36,52.65-6.88,3.57-14.55,5.92-22.78,6.97-1.16,.15-2.32,.27-3.48,.39l-1.61,.17h-9.01Zm21.7-21.44v9.91c0,.39,0,.78,.03,1.17,.12,1.92,1.34,3.23,3.25,3.51,.26,.04,.52,.06,.77,.06,.61,0,1.24-.11,1.85-.33,9.78-3.46,18.41-8.79,25.64-15.85,14.01-13.69,21.58-30.74,22.5-50.68,.21-4.59-.09-9.4-.88-14.31-2.7-16.56-10.1-30.68-22-41.98-12.48-11.83-27.55-18.34-44.8-19.35-1.28-.07-2.57-.11-3.85-.11-4.52,0-9.09,.47-13.58,1.4-13.89,2.88-25.94,9.37-35.81,19.29C12.18,38.71,4.91,55.67,4.19,75.44c-.19,5.32,.24,10.68,1.29,15.93,3.9,19.49,13.99,35.15,30,46.54,5.01,3.56,10.68,6.48,16.87,8.66,.6,.21,1.23,.32,1.87,.32,.38,0,.78-.04,1.17-.11,1.83-.35,2.96-1.94,2.95-4.16-.01-1.82-.03-3.64-.06-5.46-.03-1.91-.05-3.83-.06-5.74,0-1.05-.69-1.17-.98-1.17-.13,0-.27,.02-.45,.06-1.99,.43-4.01,.64-5.98,.64-.6,0-1.21-.02-1.82-.06-4.19-.28-7.6-1.61-10.44-4.08-1.91-1.67-3.34-3.84-4.63-7.06-1.93-4.82-4.48-8.07-8.03-10.24-.84-.51-1.48-1.13-1.92-1.83-.13-.21-.27-.5-.2-.71,.07-.21,.34-.36,.56-.46,.59-.26,1.22-.39,1.87-.39,.14,0,.28,0,.42,.02,1.97,.17,3.83,.84,5.52,1.99,2.03,1.38,3.73,3.27,5.35,5.97,2.35,3.91,5.37,6.24,9.24,7.12,1.07,.24,2.17,.37,3.28,.37,2.37,0,4.87-.56,7.65-1.7,.65-.27,.82-.79,.89-1.21,.62-3.54,1.79-6.15,3.66-8.21,.11-.12,.45-.49,.29-.91-.16-.42-.65-.47-.82-.49-.07,0-.13-.02-.2-.04-.08-.02-.17-.03-.26-.05-3.67-.47-6.93-1.19-9.99-2.19-9.93-3.27-16.31-9.94-18.98-19.83-.81-3.02-1.3-6.3-1.53-10.33-.21-3.74,.03-7.05,.75-10.12,.98-4.19,2.93-8.04,5.78-11.43,.27-.32,.72-.85,.45-1.67-1.72-5.29-1.6-10.83,.38-16.92,.45-1.38,.47-1.38,1.41-1.38,.16,0,.34,0,.54,0,.17,0,.34,.02,.51,.03,1.83,.18,3.68,.62,5.64,1.35,3.3,1.23,6.65,3.04,10.56,5.69,.44,.3,.85,.44,1.28,.44,.19,0,.38-.03,.58-.08,5.52-1.49,11.12-2.24,16.67-2.24,1.05,0,2.12,.03,3.17,.08,4.86,.25,9.24,.91,13.41,2.04,.33,.09,.63,.13,.91,.13,.59,0,1.14-.19,1.73-.59,4.5-3.05,8.17-4.92,11.91-6.04,1.42-.43,2.96-.82,4.53-.82,.34,0,.69,.02,1.04,.06,.31,.04,.42,.12,.51,.37,2.25,6.29,2.51,12.04,.79,17.58-.24,.77-.11,1.38,.44,2.02,3.71,4.41,5.86,9.58,6.4,15.39,.44,4.79,.08,9.82-1.08,14.94-2.28,10.09-8.17,17.02-17.49,20.61-3.47,1.33-7.32,2.25-12.12,2.87-.04,0-.08,0-.12,0-.21,0-.72,.01-.91,.53-.19,.51,.18,.86,.34,1.01l.08,.08c1.06,1.19,1.88,2.59,2.53,4.27,.86,2.25,1.32,4.72,1.36,7.34,.03,2.35,.03,4.71,.02,7.06v2.54l-.05,.5Z"/><path class="f" d="M75.58,1.5c3.47,0,7.02,.27,10.55,.8,9.5,1.43,18.37,4.61,26.37,9.44,14.64,8.83,25.29,21.5,31.66,37.66,2.55,6.47,4.17,13.3,4.81,20.3,.11,1.2,.2,2.43,.28,3.61,.04,.54,.08,1.09,.12,1.63v4.91c0,.05-.02,.11-.02,.16-.03,.19-.06,.41-.07,.65-.12,4.41-.65,8.7-1.57,12.76-5.4,23.72-18.89,41.32-40.1,52.32-6.83,3.54-14.44,5.87-22.61,6.92-1.15,.15-2.34,.27-3.48,.39-.52,.05-1.05,.11-1.57,.17h-8.94c-.13-.04-.3-.08-.51-.09-2.53-.13-5.16-.45-8.02-.98-14.26-2.67-26.71-9.01-37-18.85C10.3,118.78,2.24,100.51,1.54,79c-.18-5.34,.3-10.84,1.4-16.35C6.55,44.61,15.42,29.65,29.29,18.17,41.49,8.08,55.8,2.5,71.81,1.61c1.25-.07,2.51-.11,3.77-.11m-21.37,145.88c.41,0,.84-.04,1.27-.12,2.05-.39,3.37-2.21,3.36-4.65-.01-1.84-.03-3.68-.06-5.51-.02-1.9-.05-3.79-.06-5.69,0-1.23-.8-1.66-1.48-1.66-.17,0-.34,.02-.55,.07-1.96,.42-3.93,.63-5.88,.63-.59,0-1.19-.02-1.79-.06-4.08-.27-7.4-1.56-10.15-3.96-1.85-1.61-3.24-3.73-4.5-6.87-1.97-4.92-4.59-8.25-8.23-10.49-.77-.47-1.36-1.03-1.76-1.66-.09-.15-.13-.24-.14-.29,.04-.03,.11-.09,.26-.15,.53-.23,1.09-.34,1.67-.34,.13,0,.25,0,.38,.02,1.88,.16,3.66,.8,5.28,1.9,1.97,1.34,3.62,3.18,5.21,5.81,2.42,4.03,5.55,6.43,9.56,7.35,1.11,.25,2.25,.38,3.39,.38,2.43,0,5-.57,7.84-1.74,.98-.41,1.14-1.3,1.19-1.59,.61-3.44,1.73-5.97,3.54-7.96,.54-.59,.51-1.1,.39-1.42-.18-.47-.59-.74-1.23-.81-.05,0-.1-.02-.15-.03-.1-.02-.2-.04-.3-.05-3.63-.47-6.87-1.18-9.89-2.17-9.9-3.25-16-9.63-18.65-19.48-.81-2.99-1.29-6.24-1.52-10.23-.21-3.69,.03-6.95,.74-9.98,.97-4.11,2.88-7.89,5.68-11.22,.29-.35,.9-1.06,.54-2.14-1.69-5.19-1.57-10.62,.38-16.61,.09-.27,.29-.9,.37-.99,.02-.01,.14-.04,.56-.04,.16,0,.33,0,.53,0,.16,0,.32,.02,.48,.03,1.79,.17,3.59,.61,5.52,1.33,3.26,1.22,6.58,3.01,10.46,5.64,.33,.23,.86,.53,1.56,.53,.23,0,.47-.03,.71-.1,5.47-1.47,11.04-2.22,16.54-2.22,1.04,0,2.1,.03,3.15,.08,4.82,.24,9.17,.91,13.3,2.03,.37,.1,.71,.15,1.04,.15,.7,0,1.34-.21,2.02-.68,4.46-3.02,8.09-4.86,11.77-5.97,1.39-.42,2.88-.8,4.39-.8,.33,0,.66,.02,.98,.06,.04,0,.07,.01,.09,.01v.03c2.23,6.18,2.48,11.83,.79,17.26-.29,.93-.12,1.72,.53,2.49,3.64,4.33,5.76,9.41,6.28,15.11,.44,4.74,.08,9.71-1.07,14.78-2.24,9.92-8.02,16.73-17.18,20.25-3.43,1.32-7.24,2.22-12,2.84h-.07c-.7,.01-1.16,.3-1.37,.86-.2,.55-.05,1.07,.46,1.55l.05,.05c1.02,1.14,1.81,2.49,2.44,4.12,.84,2.2,1.29,4.61,1.32,7.16,.03,2.35,.03,4.74,.02,7.05,0,.68,0,1.36,0,2.04h-.04v10.93c0,.38,0,.78,.03,1.19,.14,2.13,1.55,3.66,3.67,3.97,.28,.04,.57,.06,.85,.06,.67,0,1.35-.12,2.02-.36,9.85-3.48,18.54-8.85,25.83-15.97,14.11-13.78,21.73-30.94,22.65-51.01,.21-4.62-.09-9.47-.89-14.41-2.71-16.67-10.17-30.89-22.15-42.26-12.56-11.92-27.74-18.47-45.12-19.49-1.29-.08-2.59-.11-3.88-.11-4.55,0-9.16,.47-13.68,1.41-13.99,2.9-26.12,9.43-36.06,19.43C11.73,38.45,4.41,55.53,3.69,75.42c-.2,5.36,.24,10.76,1.3,16.05,3.92,19.62,14.08,35.38,30.2,46.85,5.05,3.59,10.76,6.52,16.99,8.72,.65,.23,1.33,.35,2.03,.35M75.58,.5c-1.27,0-2.55,.04-3.82,.11-16.18,.91-30.62,6.46-43.1,16.8C14.39,29.2,5.59,44.32,1.96,62.45c-1.1,5.47-1.6,11.01-1.42,16.58,.71,21.57,8.61,40.03,24.26,54.99,10.56,10.09,23.13,16.42,37.51,19.11,2.69,.5,5.41,.86,8.15,1,.15,0,.31,.06,.46,.09h9.09c1.71-.19,3.42-.34,5.13-.56,8.05-1.03,15.75-3.29,22.94-7.03,21.8-11.3,35.18-29.12,40.61-52.98,.97-4.26,1.48-8.58,1.6-12.95,0-.26,.06-.51,.09-.77v-5.02c-.13-1.77-.25-3.54-.41-5.3-.65-7.09-2.27-13.96-4.88-20.58-6.43-16.29-17.06-29.08-32.08-38.15-8.26-4.98-17.19-8.13-26.74-9.57-3.56-.54-7.12-.81-10.7-.81h0Zm-21.37,145.88c-.57,0-1.14-.09-1.7-.29-5.97-2.11-11.59-4.92-16.75-8.59-16.08-11.44-25.93-26.92-29.79-46.23-1.04-5.21-1.47-10.5-1.28-15.81,.71-19.45,7.71-36.26,21.47-50.09C36.04,15.42,47.95,9.06,61.71,6.21c4.45-.92,8.95-1.39,13.47-1.39,1.27,0,2.54,.04,3.82,.11,17.14,1,32.03,7.4,44.49,19.21,12.01,11.39,19.2,25.37,21.85,41.69,.77,4.7,1.1,9.45,.88,14.2-.91,19.67-8.22,36.55-22.35,50.34-7.3,7.13-15.83,12.34-25.46,15.74-.55,.19-1.11,.3-1.69,.3-.23,0-.47-.02-.7-.05-1.67-.25-2.71-1.36-2.82-3.05-.03-.42-.02-.84-.02-1.25,0-3.27,0-6.53,0-9.8h.04c0-3.37,.04-6.74-.01-10.11-.04-2.57-.46-5.09-1.39-7.51-.62-1.62-1.46-3.12-2.62-4.42-.15-.17-.42-.32-.32-.58,.1-.26,.4-.19,.62-.22,4.18-.55,8.29-1.39,12.24-2.9,9.75-3.75,15.52-10.89,17.8-20.96,1.12-4.97,1.56-10.01,1.09-15.09-.54-5.88-2.7-11.13-6.51-15.66-.41-.49-.54-.92-.34-1.55,1.88-6.05,1.31-12.01-.79-17.89-.17-.46-.47-.65-.92-.7-.37-.04-.74-.06-1.1-.06-1.6,0-3.15,.39-4.68,.84-4.38,1.31-8.29,3.56-12.04,6.1-.5,.34-.95,.5-1.45,.5-.24,0-.5-.04-.78-.11-4.42-1.2-8.93-1.83-13.51-2.06-1.07-.05-2.13-.08-3.2-.08-5.68,0-11.28,.77-16.8,2.26-.16,.04-.31,.06-.45,.06-.36,0-.67-.13-1-.36-3.36-2.28-6.85-4.32-10.67-5.75-1.87-.7-3.78-1.19-5.77-1.38-.18-.02-.36-.03-.55-.04-.21,0-.39,0-.56,0-1.24,0-1.4,.23-1.88,1.73-1.85,5.7-2.26,11.45-.38,17.23,.17,.52-.06,.84-.36,1.19-2.87,3.42-4.87,7.29-5.89,11.64-.79,3.38-.97,6.8-.77,10.27,.2,3.53,.63,7.02,1.55,10.43,2.76,10.24,9.29,16.88,19.31,20.17,3.28,1.08,6.65,1.77,10.08,2.21,.16,.02,.31,.06,.46,.08,.45,.05,.55,.21,.21,.57-2.19,2.4-3.23,5.33-3.79,8.46-.07,.4-.2,.68-.59,.84-2.43,1-4.9,1.67-7.46,1.67-1.04,0-2.1-.11-3.17-.35-4.02-.92-6.85-3.45-8.92-6.89-1.45-2.41-3.16-4.54-5.5-6.13-1.75-1.18-3.66-1.89-5.76-2.07-.15-.01-.31-.02-.46-.02-.71,0-1.41,.14-2.07,.43-.92,.4-1.11,1.03-.58,1.89,.52,.84,1.26,1.48,2.08,1.99,3.86,2.36,6.2,5.93,7.83,10,1.11,2.76,2.5,5.28,4.77,7.25,3.08,2.68,6.72,3.94,10.74,4.2,.62,.04,1.24,.06,1.85,.06,2.04,0,4.07-.22,6.09-.65,.13-.03,.24-.04,.34-.04,.31,0,.48,.16,.48,.67,.02,3.73,.1,7.47,.12,11.2,.01,1.97-.96,3.36-2.54,3.66-.36,.07-.72,.1-1.08,.1h0Z"/></g></g><g><path class="f" d="M166.44,36.22c-2.98,1.69-5.89,2.49-9.68,2.49-8.79,0-14.79-5.57-14.79-14.9s5.61-14.77,15.3-14.77c2.81,0,5.8,.64,8.28,1.96l.17,6.66h-3.32l-1.5-6.79,2.96,.61v2.25c-2.09-1.64-3.89-2.28-5.76-2.28-4.63,0-8.57,3.86-8.57,12.36s3.77,12.47,8.5,12.47c1.79,0,3-.49,4.85-1.51l-3.25,2.75v-3.25c0-3.46-.04-6.71-.13-10.2h7.06c-.08,3.42-.13,6.8-.13,10.35v1.79Zm-10.73-9.85v-2.3h13.02v2.3l-5.01,.67h-2.8l-5.22-.67Z"/><path class="f" d="M172.89,37.91c.08-1.92,.13-6.33,.13-8.98v-2.04c0-2.35-.04-3.68-.13-5.39l-2.64-.38v-1.68l8.95-2.84,.73,.46-.13,6.2v5.67c0,2.65,.04,7.05,.13,8.98h-7.04Zm9.11-1.99v1.99h-11.34v-1.99l3.96-.85h3.23l4.15,.85Zm-9.29-25.88c0-1.99,1.61-3.4,3.62-3.4s3.62,1.41,3.62,3.4-1.61,3.4-3.62,3.4-3.62-1.42-3.62-3.4Z"/><path class="f" d="M195.1,35.07c.79,0,1.49-.32,2.32-.95l1.04,1.03c-1.13,2.17-3.13,3.41-6.25,3.41-3.87,0-6.14-1.72-6.14-5.94,0-1.49,.04-2.63,.04-4.3v-8.14h-2.76v-2.55l5.05-.65-2.45,1.72,2.7-7.45h4.36l-.1,7.7v13.2c0,2.01,.91,2.92,2.18,2.92Zm2.3-17.81v2.93h-7.85v-2.93h7.85Z"/><path class="f" d="M199.28,12.13v-2.3h13.48v2.3l-6.23,.64h-1.26l-5.99-.64Zm7.24,22.85l6.23,.64v2.3h-13.48v-2.3l5.99-.64h1.26Zm-4.02-11.89c0-4.4,0-8.85-.13-13.25h7.43c-.13,4.32-.13,8.76-.13,13.25v1.31c0,4.67,0,9.12,.13,13.52h-7.43c.13-4.32,.13-8.76,.13-13.25v-1.58Zm3.59,1.65v-2.49h16.29v2.49h-16.29Zm9.62-12.6v-2.3h13.48v2.3l-6.14,.64h-1.19l-6.14-.64Zm7.34,22.85l6.14,.64v2.3h-13.48v-2.3l6.14-.64h1.19Zm-4.26-11.89c0-4.4,0-8.85-.13-13.25h7.43c-.13,4.32-.13,8.76-.13,13.25v1.58c0,4.4,0,8.85,.13,13.25h-7.43c.13-4.32,.13-8.76,.13-13.52v-1.31Z"/><path class="f" d="M239.11,30.91c0,2.66,.86,3.52,2.32,3.52,1.69,0,3.75-1.72,5.03-3.51h1.64v2.83h-2.8l1.37-1.23c-2.04,3.81-4.88,6.05-8.4,6.05s-6.11-2.05-6.04-7.69l.16-11.5,1.36,1.37-3.82-.85v-1.8l8.71-1.23,.67,.46-.21,6.04v7.56Zm6.35,7.48l-.35-5.03,.16-14.01,1.36,1.4-3.7-.85v-1.65l8.51-1.39,.67,.46-.13,6.04v14.2l-2.85-2.66,5.08,1.07v1.99l-8.76,.43Z"/><path class="f" d="M256.28,35.96l4-.85-1.78,2.84c.08-1.92,.13-6.33,.13-8.98V10.94l-2.65-.33v-1.8l8.82-1.92,.69,.43-.17,5.98v6.51l.13,.56v14.47l-1.08,3.71-8.08-.58v-1.99Zm16.37-8.43c0-5.05-1.71-7.21-4.25-7.21-2.25,0-4.16,2.35-5.55,3.8l-.38-.71c2.45-4.59,5.29-6.8,9.06-6.8,4.65,0,8.37,3.7,8.37,10.81s-4.32,11.15-9.13,11.15c-3.84,0-6.09-2.17-7.99-6.59l.38-.81c1.76,2.36,3.08,3.78,5.18,3.78,2.49,0,4.31-2.37,4.31-7.42Z"/></g><g><path class="g" d="M164.28,59.49c-1.14,.6-2.26,.97-3.64,.97-3.31,0-5.56-2.44-5.56-5.78s2.26-5.77,5.63-5.77c1.35,0,2.38,.25,3.31,.79l.07,2.4h-1.02l-.42-2.45,1.03,.32v.94c-.89-.81-1.78-1.17-2.82-1.17-2.28,0-3.97,1.78-3.97,4.94s1.55,4.93,4.08,4.93c.93,0,1.61-.21,2.54-.67l-.77,.79v-.97c0-1.26-.02-2.55-.05-3.81h1.65c-.03,1.24-.05,2.52-.05,3.81v.72Zm-3.3-3.86v-.67h4.33v.67l-1.82,.17h-.37l-2.14-.17Z"/><path class="g" d="M166.32,56.33c0-2.73,1.86-4.16,3.79-4.16s3.79,1.43,3.79,4.16-1.88,4.1-3.79,4.1-3.79-1.38-3.79-4.1Zm6.02,0c0-2.22-.82-3.42-2.23-3.42s-2.23,1.2-2.23,3.42,.79,3.35,2.23,3.35,2.23-1.13,2.23-3.35Z"/><path class="g" d="M180.63,56.16c0,2.07,1.1,3.2,2.64,3.2,.95,0,1.78-.46,2.29-1.27l.41,.22c-.46,1.37-1.52,2.12-3.07,2.12-2.26,0-3.71-1.58-3.71-4.12s1.83-4.15,3.82-4.15c1.48,0,2.71,.92,2.92,2.15-.09,.42-.34,.62-.76,.62-.55,0-.78-.33-.9-.79l-.4-1.44,.78,.62c-.56-.29-1.11-.41-1.58-.41-1.41,0-2.43,1.12-2.43,3.24Z"/><path class="g" d="M188.13,49.5l-1.35-.17v-.58l2.53-.74,.23,.13-.07,2.34v3.49l.05,.21v2.56c0,1.02,.02,2.72,.05,3.47h-1.49c.03-.74,.05-2.44,.05-3.47v-7.24Zm2.56,10.12v.59h-3.83v-.59l1.8-.33h.38l1.65,.33Zm3.91-4.42v1.54c0,1.06,.02,2.72,.05,3.47h-1.5c.03-.74,.05-2.41,.05-3.47v-1.41c0-1.51-.39-2-1.36-2-.81,0-1.49,.31-2.42,1.15h-.36v-.77h.86l-.74,.31c.8-1.08,2.13-1.87,3.3-1.87,1.42,0,2.12,.88,2.12,3.04Zm-.46,4.09l1.65,.33v.59h-3.83v-.59l1.8-.33h.38Z"/><path class="g" d="M203.9,55.33c0,.38-.05,.7-.11,.92h-6.11v-.7h3.88c.79,0,.98-.38,.98-.85,0-.95-.78-1.79-1.79-1.79s-2.22,.88-2.22,3.25c0,2.09,1.05,3.2,2.68,3.2,1.05,0,1.71-.47,2.29-1.16l.39,.31c-.6,1.18-1.66,1.92-3.17,1.92-2.22,0-3.67-1.54-3.67-4.06s1.74-4.21,3.79-4.21c1.73,0,3.08,1.17,3.08,3.17Z"/><path class="g" d="M206.86,56.16c0,2.07,1.1,3.2,2.64,3.2,.95,0,1.78-.46,2.29-1.27l.41,.22c-.46,1.37-1.52,2.12-3.07,2.12-2.26,0-3.71-1.58-3.71-4.12s1.83-4.15,3.82-4.15c1.48,0,2.71,.92,2.92,2.15-.09,.42-.34,.62-.76,.62-.55,0-.78-.33-.9-.79l-.4-1.44,.78,.62c-.56-.29-1.11-.41-1.58-.41-1.41,0-2.43,1.12-2.43,3.24Z"/><path class="g" d="M215.58,48.01l.23,.13-.07,2.34v6.25c0,1.15,.02,2.34,.05,3.47h-1.49c.03-1.13,.05-2.32,.05-3.47v-7.24l-1.35-.17v-.58l2.58-.74Zm1.51,11.62v.59h-4.08v-.59l1.85-.33h.38l1.85,.33Zm3.41-7.25l-5.45,5.57v-.96l4.43-4.61h1.02Zm-.71,6.9l1.84,.34v.59h-2.25l-2.72-4.39,.98-1,3.23,5.12-1.08-.67Zm-.91-5.9l-1.51-.37v-.63h3.83v.63l-1.83,.28-.49,.1Z"/><path class="g" d="M228.4,57.3c0,1.44,.42,1.95,1.31,1.95,.83,0,1.69-.43,2.49-1.24h.36v.86h-.86l.58-.26c-.93,1.28-2.05,1.83-3.14,1.83-1.33,0-2.16-.79-2.14-2.97l.05-4.36,.36,.33-1.53-.33v-.58l2.43-.23,.17,.17-.08,2.31v2.55Zm3.85,3.04l-.23-1.93,.05-5.32,.36,.33-1.53-.33v-.58l2.4-.23,.17,.17-.05,2.31v4.97l-.44-.43,1.56,.33v.59l-2.29,.13Z"/><path class="g" d="M235.94,59.8l-.06-1.81h.9l.44,1.96-.82-.38v-.57c.59,.44,1.21,.68,2.03,.68,1.25,0,1.84-.5,1.84-1.25,0-.7-.48-1.06-1.53-1.44l-.77-.28c-1.21-.44-2-1.1-2-2.23,0-1.21,1.02-2.32,2.88-2.32,.9,0,1.59,.25,2.31,.68l-.07,1.68h-.85l-.34-1.69,.61,.27v.44c-.53-.41-1.08-.62-1.68-.62-1.01,0-1.53,.44-1.53,1.13,0,.73,.4,1.01,1.53,1.42l.51,.18c1.65,.6,2.27,1.38,2.27,2.42,0,1.25-1.09,2.37-3.22,2.37-.93,0-1.66-.22-2.47-.63Z"/><path class="g" d="M246.86,56.33c0-2.73,1.86-4.16,3.79-4.16s3.79,1.43,3.79,4.16-1.88,4.1-3.79,4.1-3.79-1.38-3.79-4.1Zm6.02,0c0-2.22-.82-3.42-2.23-3.42s-2.23,1.2-2.23,3.42,.79,3.35,2.23,3.35,2.23-1.13,2.23-3.35Z"/><path class="g" d="M257.95,57.3c0,1.44,.42,1.95,1.31,1.95,.83,0,1.69-.43,2.49-1.24h.36v.86h-.86l.58-.26c-.93,1.28-2.05,1.83-3.14,1.83-1.33,0-2.16-.79-2.14-2.97l.05-4.36,.36,.33-1.53-.33v-.58l2.43-.23,.17,.17-.08,2.31v2.55Zm3.85,3.04l-.23-1.93,.05-5.32,.36,.33-1.53-.33v-.58l2.4-.23,.17,.17-.05,2.31v4.97l-.44-.43,1.56,.33v.59l-2.29,.13Z"/><path class="g" d="M268.48,59.57c.36,0,.69-.15,1.11-.46l.38,.44c-.41,.55-1.1,.87-1.94,.87-1.16,0-1.88-.6-1.88-1.89,0-.41,.02-.76,.02-1.4v-3.88h-1.37v-.73l2.04-.26-.68,.55,.53-2.69h1l-.13,2.89v5.33c0,.85,.36,1.22,.92,1.22Zm1.33-7.2v.87h-2.94v-.87h2.94Z"/><path class="g" d="M270.34,63.91l-.23-.55c1.3-.64,2.28-1.57,2.56-3.13l.07,.7-.81-.63c-.44-.35-.63-.78-.63-1.18,0-.58,.35-1.05,1.02-1.05,.31,0,.62,.1,1.04,.48,.12,.42,.18,.8,.18,1.2,0,2-1.61,3.58-3.2,4.17Z"/><path class="g" d="M155.92,73.11l-1.62-.28v-.63h3.77v.63l-1.79,.28h-.36Zm5.28-.91l2.41,6.42h-.37l1.97-6.42h.94l-2.7,7.93h-.62c-1.59-4.07-2.02-5.42-2.43-6.72h.6l-2.5,6.72h-.61l-2.95-7.93h1.56l2.17,6.42h-.36l2.33-6.42h.56Zm-2.09,.63v-.63h3.66v.63l-1.57,.28h-.35l-1.73-.28Zm6.15,.28l-1.53-.28v-.63h3.02v.63l-1.17,.28h-.33Z"/><path class="g" d="M174.21,75.15c0,.38-.05,.7-.11,.92h-6.11v-.7h3.88c.79,0,.98-.38,.98-.85,0-.95-.78-1.79-1.79-1.79s-2.22,.88-2.22,3.25c0,2.09,1.05,3.2,2.68,3.2,1.05,0,1.71-.47,2.29-1.16l.39,.31c-.6,1.18-1.66,1.92-3.17,1.92-2.22,0-3.67-1.54-3.67-4.06s1.74-4.21,3.79-4.21c1.73,0,3.08,1.17,3.08,3.17Z"/><path class="g" d="M175.62,72.72l-.31-.46c.92-.71,1.37-1.23,1.77-2.35l.12,.63-.75-.68c-.5-.43-.64-.81-.64-1.22,0-.66,.38-.97,.96-.97,.34,0,.64,.09,.9,.34,.14,.35,.22,.75,.22,1.17,0,1.44-1.04,2.75-2.28,3.55Z"/><path class="g" d="M179.76,76.56v-.79c0-.91-.02-1.41-.05-2.07l-1.3-.15v-.58l2.3-1,.25,.17,.2,2.06v2.36c0,1.02,.02,2.72,.05,3.47h-1.49c.03-.74,.05-2.44,.05-3.47Zm-1.22,2.88l1.8-.33h.41l1.8,.33v.59h-4.01v-.59Zm1.92-5.1h.96l-.4,.13c.51-1.56,1.53-2.49,2.5-2.49,.49,0,.99,.24,1.19,.6,0,.78-.31,1.21-.97,1.21-.39,0-.71-.15-1.01-.42l-.45-.39,.8-.14c-1,.52-1.59,1.35-1.96,2.61h-.66v-1.11Z"/><path class="g" d="M192.28,75.15c0,.38-.05,.7-.11,.92h-6.11v-.7h3.88c.79,0,.98-.38,.98-.85,0-.95-.78-1.79-1.79-1.79s-2.22,.88-2.22,3.25c0,2.09,1.05,3.2,2.68,3.2,1.05,0,1.71-.47,2.29-1.16l.39,.31c-.6,1.18-1.66,1.92-3.17,1.92-2.22,0-3.67-1.54-3.67-4.06s1.74-4.21,3.79-4.21c1.73,0,3.08,1.17,3.08,3.17Z"/><path class="g" d="M197.68,76.14c0-2.73,1.86-4.16,3.79-4.16s3.79,1.43,3.79,4.16-1.88,4.1-3.79,4.1-3.79-1.38-3.79-4.1Zm6.02,0c0-2.22-.82-3.42-2.23-3.42s-2.23,1.2-2.23,3.42,.79,3.35,2.23,3.35,2.23-1.13,2.23-3.35Z"/><path class="g" d="M210.66,83.39v.59h-4.25v-.59l1.85-.33h.4l2,.33Zm-2.89-7.61c0-.91-.02-1.41-.05-2.07l-1.3-.15v-.58l2.3-1,.25,.16,.13,1.4,.07,.05v5.15l-.05,.11v1.62c0,1.15,.02,2.34,.05,3.51h-1.45c.03-1.17,.05-2.33,.05-3.48v-4.72Zm3.39-2.86c-.62,0-1.45,.33-2.61,1.47l-.15-.3c.96-1.47,2.03-2.11,3.17-2.11,1.75,0,3.14,1.55,3.14,4.1s-1.47,4.17-3.39,4.17c-1.03,0-2.05-.48-2.92-2.2l.15-.27c.85,1.08,1.62,1.53,2.43,1.53,1.24,0,2.24-.97,2.24-3.09s-.86-3.31-2.07-3.31Z"/><path class="g" d="M223.08,75.15c0,.38-.05,.7-.11,.92h-6.11v-.7h3.88c.79,0,.98-.38,.98-.85,0-.95-.78-1.79-1.79-1.79s-2.22,.88-2.22,3.25c0,2.09,1.05,3.2,2.68,3.2,1.05,0,1.71-.47,2.29-1.16l.39,.31c-.6,1.18-1.66,1.92-3.17,1.92-2.22,0-3.67-1.54-3.67-4.06s1.74-4.21,3.79-4.21c1.73,0,3.08,1.17,3.08,3.17Z"/><path class="g" d="M225.76,80.03c.03-.74,.05-2.44,.05-3.47v-.79c0-.91-.02-1.41-.05-2.07l-1.3-.15v-.58l2.3-1,.25,.17,.2,1.91v2.51c0,1.02,.02,2.72,.05,3.47h-1.49Zm2.63-.59v.59h-3.83v-.59l1.8-.33h.38l1.65,.33Zm3.83-4.42v1.54c0,1.06,.02,2.72,.05,3.47h-1.49c.03-.74,.05-2.41,.05-3.47v-1.41c0-1.51-.39-2-1.36-2-.81,0-1.5,.34-2.42,1.14h-.36v-.76h.86l-.71,.31c.8-1.08,2.1-1.87,3.27-1.87,1.42,0,2.11,.88,2.11,3.04Zm-.46,4.09l1.65,.33v.59h-3.83v-.59l1.8-.33h.38Z"/><path class="g" d="M238.58,79.61l-.06-1.81h.9l.44,1.96-.82-.38v-.57c.59,.44,1.21,.68,2.03,.68,1.25,0,1.84-.5,1.84-1.25,0-.7-.48-1.06-1.53-1.44l-.77-.28c-1.21-.44-2-1.1-2-2.23,0-1.21,1.02-2.32,2.88-2.32,.9,0,1.59,.25,2.31,.68l-.07,1.68h-.85l-.34-1.69,.61,.27v.44c-.53-.41-1.08-.62-1.68-.62-1.01,0-1.53,.44-1.53,1.13,0,.73,.4,1.01,1.53,1.42l.51,.18c1.65,.6,2.27,1.38,2.27,2.42,0,1.25-1.09,2.37-3.22,2.37-.93,0-1.66-.22-2.47-.63Z"/><path class="g" d="M245.66,76.14c0-2.73,1.86-4.16,3.79-4.16s3.79,1.43,3.79,4.16-1.88,4.1-3.79,4.1-3.79-1.38-3.79-4.1Zm6.02,0c0-2.22-.82-3.42-2.23-3.42s-2.23,1.2-2.23,3.42,.79,3.35,2.23,3.35,2.23-1.13,2.23-3.35Z"/><path class="g" d="M256.74,77.12c0,1.44,.42,1.95,1.31,1.95,.83,0,1.69-.43,2.49-1.24h.36v.86h-.86l.58-.26c-.93,1.28-2.05,1.83-3.14,1.83-1.33,0-2.16-.79-2.14-2.97l.05-4.36,.36,.33-1.53-.33v-.58l2.43-.23,.17,.17-.08,2.31v2.55Zm3.85,3.04l-.23-1.93,.05-5.32,.36,.33-1.53-.33v-.58l2.4-.23,.17,.17-.05,2.31v4.97l-.44-.43,1.56,.33v.59l-2.29,.13Z"/><path class="g" d="M265.36,76.56v-.79c0-.91-.02-1.41-.05-2.07l-1.3-.15v-.58l2.3-1,.25,.17,.2,2.06v2.36c0,1.02,.02,2.72,.05,3.47h-1.49c.03-.74,.05-2.44,.05-3.47Zm-1.22,2.88l1.8-.33h.41l1.8,.33v.59h-4.01v-.59Zm1.92-5.1h.96l-.4,.13c.51-1.56,1.53-2.49,2.5-2.49,.49,0,.99,.24,1.19,.6,0,.78-.31,1.21-.97,1.21-.39,0-.71-.15-1.01-.42l-.45-.39,.8-.14c-1,.52-1.59,1.35-1.96,2.61h-.66v-1.11Z"/><path class="g" d="M272.41,75.97c0,2.07,1.1,3.2,2.64,3.2,.95,0,1.78-.46,2.29-1.27l.41,.22c-.46,1.37-1.52,2.12-3.07,2.12-2.26,0-3.71-1.58-3.71-4.12s1.83-4.15,3.82-4.15c1.48,0,2.71,.92,2.92,2.15-.09,.42-.34,.62-.76,.62-.55,0-.78-.33-.9-.79l-.4-1.44,.78,.62c-.56-.29-1.11-.41-1.58-.41-1.41,0-2.43,1.12-2.43,3.24Z"/><path class="g" d="M285.93,75.15c0,.38-.05,.7-.11,.92h-6.11v-.7h3.88c.79,0,.98-.38,.98-.85,0-.95-.78-1.79-1.79-1.79s-2.22,.88-2.22,3.25c0,2.09,1.05,3.2,2.68,3.2,1.05,0,1.71-.47,2.29-1.16l.39,.31c-.6,1.18-1.66,1.92-3.17,1.92-2.22,0-3.67-1.54-3.67-4.06s1.74-4.21,3.79-4.21c1.73,0,3.08,1.17,3.08,3.17Z"/><path class="g" d="M288.07,79.18c0-.58,.47-1.08,1.07-1.08s1.07,.51,1.07,1.08-.47,1.07-1.07,1.07-1.07-.49-1.07-1.07Zm2.01-9.4c0,.61-.18,2.15-.42,4.45l-.23,2.25h-.61l-.23-2.25c-.24-2.3-.42-3.84-.42-4.45,0-.73,.36-1.04,.95-1.04s.95,.31,.95,1.04Z"/></g></g></g></svg>