<?xml version="1.0" encoding="UTF-8"?><svg xmlns="http://www.w3.org/2000/svg" viewBox="0 0 623.86 164.13"><defs><style>.d{fill:#414039;}</style></defs><g id="a"/><g id="b"><g id="c"><g><path class="d" d="M0,82.11c0-21.2,0-42.41,0-63.61C.02,7.37,7.32,.36,18.48,.01c7.44-.23,13.06,2.31,17.81,8.05,17.67,21.33,35.55,42.47,53.35,63.69,15.13,18.03,30.24,36.07,45.37,54.1,.37,.45,.77,.88,1.17,1.3,.41,.43,.88,.8,1.54,.6,.69-.21,.76-.82,.79-1.41,.04-.66,.03-1.33,.03-1.99,0-28.61,0-57.21-.03-85.82,0-1.16,.65-2.8-.79-3.36-1.21-.47-1.99,1.01-2.82,1.72-10.23,8.78-20.4,17.61-30.59,26.43-.44,.38-.88,.77-1.36,1.1-1.72,1.17-3.45,1.23-5.01-.23-1.53-1.43-1.84-3.17-.66-4.95,2.85-4.3,5.75-8.56,8.64-12.83,8.57-12.67,17.19-25.32,25.71-38.03,4.53-6.75,12.63-9.89,20.28-7.63,7.52,2.22,12.75,9.11,12.78,17.2,.07,20.21,.03,40.41,.03,60.62,0,22.12-.28,44.24,.12,66.36,.2,11.17-8.86,19.58-19.31,19.19-6.97-.26-12.44-2.28-16.98-7.74-22.13-26.59-44.43-53.04-66.68-79.54-11.02-13.12-22.04-26.23-33.07-39.34-.57-.67-1.05-1.72-2.16-1.27-1.05,.43-.83,1.53-.83,2.42,0,29.19,0,58.38,0,87.56,0,.88-.27,1.98,.8,2.42,1.04,.43,1.68-.54,2.34-1.11,10.3-8.82,20.57-17.67,30.85-26.52,.19-.16,.36-.34,.55-.51,2.45-2.12,4.43-2.33,6.2-.66,1.62,1.52,1.59,3.7-.04,6.1-2.43,3.58-4.86,7.16-7.28,10.74-8.76,12.95-17.5,25.92-26.28,38.85-4.13,6.07-9.85,9.15-17.26,8.34-6.76-.73-11.48-4.49-14.37-10.59C.18,150.88,0,148.33,0,145.73c.01-21.2,0-42.41,0-63.61Z"/><path class="d" d="M296.79,105.84c0-3.04,.14-6-.02-8.94-.81-14.03-1.04-28.07-.93-42.12,.05-6.23,0-12.47,.02-18.7,.01-2.92,.57-3.46,3.55-3.49,3.25-.03,6.49-.04,9.74,0,2.93,.04,3.48,.59,3.48,3.56,.02,14.47,0,28.93,0,43.4,0,15.96,0,31.92,0,47.88,0,3.84-.31,4.2-4.11,4.12-3.65-.08-7.33,.46-10.94-.44-3.73-.93-6.63-3.07-8.71-6.25-9.89-15.18-19.75-30.39-29.63-45.58-4.66-7.17-9.35-14.32-14.57-21.4,0,1.5-.09,3.01,.01,4.51,1.52,21.9,1.46,43.84,1.34,65.78-.02,3.05-.65,3.71-3.64,3.76-3.25,.05-6.49,.06-9.74,0-2.8-.05-3.55-.79-3.58-3.61-.05-5.07-.02-10.14-.02-15.21,0-25.02,0-50.05,0-75.07,0-1,0-2,.09-2.99,.13-1.44,.95-2.38,2.4-2.38,4.07,0,8.15-.48,12.19,.42,4.22,.94,7.24,3.39,9.58,7,13.86,21.33,27.79,42.62,41.71,63.91,.42,.65,.63,1.55,1.75,1.86Z"/><path class="d" d="M546.26,105.94c0-7.07,0-14.13,0-21.2,0-4.1,.6-4.7,4.81-4.71,11.15-.02,22.31-.01,33.46,0,2.5,0,4.98-.14,7.44-.67,8.77-1.87,12.89-7.74,12.18-17.42-.52-7.17-6.64-12.96-14.54-13.18-9.73-.26-19.48-.03-29.21-.18-6.26-.1-11.04-2.8-13.58-8.78-.19-.46-.37-.93-.49-1.41-1.11-4.48-.08-5.8,4.52-5.81,12.07,0,24.14-.13,36.21,.05,6.95,.1,13.77,1.23,19.87,4.92,9.04,5.47,13.16,13.88,13.81,24.06,.57,8.84-1.38,17.03-7.74,23.7-3.78,3.96-8.5,6.32-13.7,7.82-2.87,.83-2.89,.86-1.11,3.12,8.06,10.27,16.12,20.54,24.17,30.81,.75,.96,1.92,1.89,1.31,3.27-.68,1.57-2.27,1.13-3.54,1.11-3.24-.03-6.48,.22-9.72-.31-3.82-.63-6.8-2.5-9.13-5.55-7.13-9.3-14.35-18.55-21.41-27.9-1.52-2.01-3.17-2.91-5.68-2.73-2.65,.18-5.33,.18-7.99,0-2.48-.16-3.35,.65-3.32,3.22,.13,9.72,.06,19.45,.05,29.18,0,3.73-.38,4.1-4.19,4.11-3.08,.01-6.16-.02-9.24,0-2.27,.01-3.31-.99-3.29-3.34,.07-7.4,.02-14.8,.02-22.2Z"/><path class="d" d="M479.19,32.59c2.33,0,4.67,.08,6.99-.02,2.32-.1,3.63,.82,4.48,3.05,5.92,15.44,11.93,30.85,17.94,46.26,5.95,15.26,11.93,30.5,17.89,45.75,1.13,2.89,.55,3.77-2.59,3.83-3.5,.07-7-.03-10.49,.04-2.02,.04-3.23-.78-3.95-2.69-7.26-19.2-14.58-38.39-21.88-57.58-2.25-5.9-4.51-11.8-6.77-17.7-.26-.69-.41-1.56-1.32-1.63-1.1-.08-1.27,.92-1.55,1.67-4.67,12.18-9.34,24.36-13.99,36.55-4.92,12.89-9.81,25.79-14.7,38.68-.66,1.75-1.79,2.71-3.74,2.69-3.75-.04-7.5,.05-11.24-.04-2.65-.06-3.3-1.12-2.37-3.51,10.09-25.95,20.19-51.9,30.29-77.85,1.9-4.88,3.8-9.76,5.62-14.67,.74-2.01,2.05-2.89,4.16-2.84,2.41,.05,4.83,.01,7.24,.01Z"/><path class="d" d="M374.84,131.13c-9.49,0-18.98,0-28.47,0-3.72,0-4.11-.41-4.12-4.2,0-16.54,0-33.09,0-49.63,0-3.82,.5-4.33,4.31-4.33,17.65,0,35.29,0,52.94,0,3.79,0,4.06,.3,4.07,4.17,0,2.66,.01,5.32,0,7.98-.02,3.35-.49,3.84-3.93,3.89-2.83,.04-5.66,.01-8.49,.01-9.74,0-19.48,0-29.22,0-3.17,0-3.35,.2-3.35,3.43,0,6.57-.01,13.13,0,19.7,0,3.17,.18,3.35,3.43,3.35,13.4,.01,26.8,0,40.2,0,4.73,0,4.84,.13,4.85,4.94,0,2.49-.08,4.99,.02,7.48,.1,2.38-.94,3.24-3.28,3.22-9.66-.07-19.31-.03-28.97-.03Z"/><path class="d" d="M374.72,32.58c9.4,0,18.81,0,28.21,0,3.73,0,4.12,.41,4.13,4.18,0,2.74,.02,5.49,0,8.23-.03,3.06-.55,3.6-3.69,3.61-12.4,.02-24.8,.01-37.2,.01-3.25,0-6.49,.07-9.74-.02-7.48-.22-13.59-5.42-14.12-11.93-.26-3.22,.47-4.07,3.7-4.07,9.57-.02,19.14,0,28.71,0Z"/></g></g></g></svg>