<?xml version="1.0" encoding="UTF-8"?><svg xmlns="http://www.w3.org/2000/svg" viewBox="0 0 75 54.74"><defs><style>.d{fill:#414039;}</style></defs><g id="a"/><g id="b"><g id="c"><g><path class="d" d="M38.66,40.75c2.33,1.88,5.12,2.71,8.05,2.93,6.91,.51,13.42-1.11,19.64-4.01,1.88-.88,3.81-1.56,5.88-1.76,.95-.09,1.94,.08,2.5,.98,.56,.89,.17,1.8-.45,2.43-6.03,6.15-12.5,11.73-21.34,13.2-4.57,.76-9.12-.52-13.59-1.49-3.55-.78-7.01-1.92-10.39-3.34-3.43-1.45-6.72-.02-9.9,1.15-3.1,1.14-3.16,1.27-3.21-1.94-.09-5.1,0-10.2-.02-15.3,0-1.25,.86-1.33,1.75-1.53,8.41-1.84,16.71-1.08,24.96,.95,3.99,.98,8.02,1.87,11.6,4.03,.3,.18,.62,.35,.88,.58,.59,.52,1.12,1.15,.93,1.98-.21,.94-1.12,1-1.85,1.03-3.58,.14-7.17,.18-10.75-.12-1.51-.13-3.03-.17-4.54-.25l-.14,.5Z"/><path class="d" d="M30.59,0c5.92-.02,10.98,4.08,11.86,9.98,.34,2.27,1.24,3.39,3.44,3.88,2.05,.46,4.03,1.26,6.03,1.97,.99,.35,1.54,.1,1.87-.9,.51-1.56,1.15-3.09,1.64-4.66,.45-1.44,1.3-1.67,2.55-1.06,.42,.2,.85,.41,1.3,.55,1.08,.35,1.31,1.03,.92,2.06-.6,1.6-1.1,3.23-1.72,4.81-.36,.91-.2,1.36,.77,1.7,2.75,.95,2.92,.9,3.88-1.89,.38-1.11,.76-2.22,1.15-3.33,.38-1.05,1.12-1.27,2.11-.89,.55,.21,1.09,.44,1.65,.63,1.07,.36,1.29,1.06,.91,2.07-.54,1.43-.99,2.89-1.56,4.31-.45,1.11-.23,1.67,.96,2.1,2.07,.73,1.98,.79,.9,3.93-.61,1.76-1.75,1-2.71,.68-7.69-2.55-15.38-5.14-23.05-7.76-1.27-.43-2.09-.4-2.94,.87-3.28,4.85-9.39,6.58-14.64,4.3-5.43-2.36-8.47-7.94-7.34-13.46C19.79,3.95,24.56,.02,30.59,0Zm-7.19,12.05c-.03,4.07,3.15,7.32,7.2,7.34,3.87,.03,7.24-3.33,7.23-7.19-.01-3.91-3.31-7.2-7.2-7.21-4.11,0-7.2,3.01-7.22,7.06Z"/><path class="d" d="M.02,43.43c0-3.05,.05-6.11-.02-9.16-.03-1.37,.48-1.9,1.84-1.87,2.46,.06,4.93,.06,7.4,0,1.26-.03,1.82,.45,1.82,1.74-.02,6.22-.02,12.44,0,18.67,0,1.17-.47,1.7-1.69,1.68-2.58-.05-5.17-.05-7.75,0-1.25,.02-1.62-.56-1.61-1.72,.04-3.11,.01-6.22,.01-9.33Z"/></g></g></g></svg>