<?xml version="1.0" encoding="UTF-8"?><svg xmlns="http://www.w3.org/2000/svg" viewBox="0 0 80.23 75"><defs><style>.d{fill:#414039;}</style></defs><g id="a"/><g id="b"><g id="c"><g><path class="d" d="M36.43,54.3c5.87,0,11.75,0,17.62,0,4.55,0,9.1,.01,13.65,0,2.5,0,3.13-.61,3.14-3.05,.01-12.92,.01-25.83,0-38.75,0-2.49-.6-3.11-3.08-3.11-16.06-.02-32.13-.01-48.19,0-2.51,0-3.15,.7-3.15,3.28-.01,4.08-.05,8.17,.02,12.25,.02,1.35-.37,1.81-1.71,1.51-2.01-.44-4-.09-5.96,.35-1.15,.26-1.72,.16-1.71-1.25,.05-7.23,0-14.46,.05-21.68C7.13,1.25,8.41,.02,10.99,.02,32.74,0,54.49,0,76.25,.01c2.67,0,3.96,1.29,3.97,3.96,.02,18.61,.02,37.21,0,55.82,0,2.52-1.31,3.83-3.84,3.92-2.34,.08-4.69,.1-7.03,0-1.44-.06-2.17,.3-1.96,1.88,.1,.72,.03,1.47,0,2.21-.1,2.13-1.31,3.69-3.38,3.81-3,.18-6.02,.18-9.02,.02-2.19-.12-3.33-1.62-3.48-3.95-.25-3.95-.25-4.07-4.24-3.9-2.07,.09-3.24-.61-4.58-2.25-1.96-2.4-4.57-4.26-6.9-6.35l.64-.88Z"/><path class="d" d="M43.75,15.7c6.29,0,12.58,.04,18.87-.03,1.43-.02,1.99,.27,1.98,1.85-.07,9.5-.07,19,0,28.5,.01,1.66-.6,2.01-2.1,2-9.7-.05-19.41-.07-29.11,.01-1.77,.01-2.02-.57-1.94-2.19,.3-6.54-2.24-11.85-7.44-15.84-.79-.61-1.34-1.17-1.32-2.26,.06-3.48,.07-6.96,0-10.44-.03-1.39,.56-1.65,1.79-1.64,6.42,.05,12.85,.02,19.27,.02Zm.85,18.55c1.95-.05,3.64,.09,5.3,1.61,2.06,1.9,5.45,1.25,7.39-.92,1.83-2.05,1.9-5.26,.15-7.37-1.86-2.24-5.29-3.1-7.32-1.21-1.96,1.82-4.02,1.69-6.25,1.7-.74,0-1.48-.05-2.2,.05-1.7,.22-2.62,1.25-2.74,2.94-.11,1.65,.98,2.98,2.68,3.18,.99,.12,2,.02,3,.02Z"/><path class="d" d="M12.97,32.07c8.86,.17,14.78,8.69,11.84,17.27-.48,1.39-.22,2.17,.75,3.12,3.87,3.78,7.68,7.63,11.5,11.47,2.43,2.43,2.44,3.83,.04,6.27-1.13,1.14-2.25,2.28-3.41,3.4-1.79,1.73-3.7,1.87-5.12,.4-1.32-1.36-1.14-3.29,.4-5,.44-.5,1.54-.87,.99-1.71-.61-.92-1.48-1.76-2.4-2.36-.56-.37-.95,.53-1.37,.91-1,.93-2,1.82-3.52,1.48-2.65-.6-3.42-3.48-1.61-5.67,.53-.64,2.23-1.21,.98-2.3-1.28-1.11-1.81-3.55-4.53-2.55-7.34,2.68-14.8-1.03-16.99-8.27-2.1-6.94,2.24-14.3,9.48-16.04,.97-.23,1.98-.28,2.97-.41Zm5.11,12.85c0-3.01-2.34-5.3-5.37-5.25-2.9,.04-5.18,2.37-5.16,5.27,.01,2.94,2.49,5.38,5.39,5.31,2.88-.07,5.15-2.42,5.14-5.33Z"/></g></g></g></svg>