<?xml version="1.0" encoding="UTF-8"?><svg xmlns="http://www.w3.org/2000/svg" viewBox="0 0 316.21 145.7"><defs><style>.e{fill:#605f54;font-family:Baskerville-BoldItalic, Baskerville;font-size:38.46px;}.f{fill:#d3cfb4;}.g{fill:#414039;}.h{letter-spacing:.06em;}.i{letter-spacing:0em;}.j{letter-spacing:.03em;}.k{letter-spacing:-.06em;}.l{letter-spacing:0em;}</style></defs><g id="a"/><g id="b"><g id="c"><g id="d"><g><path class="f" d="M54.46,140.55c-1.42,0-2.88-.03-4.32-.08-5.73-.21-11.6-.98-17.46-2.28-7.14-1.58-14.18-3.97-20.91-7.1-3.3-1.53-6.61-3.32-10.11-5.45,2.2,.18,4.4,.27,6.54,.27,16.07,0,30.92-5.03,44.15-14.96l.22-.17-.08-.9s-2.38-.2-2.96-.26c-5.31-.49-10.38-2.23-15.08-5.17-4.66-2.92-8.5-6.82-11.41-11.6-1.22-2-2.27-4.24-3.13-6.64-.01-.03-.03-.07-.04-.1,.05,.01,.1,.02,.15,.03,2.19,.32,4.14,.48,5.96,.48,.47,0,.94-.01,1.41-.03,2.49-.11,4.8-.43,7.06-.98,.07-.02,.14-.04,.27-.08l1.92-.59-1.67-.45-1.01-.27c-.65-.17-1.24-.33-1.83-.51-6.16-1.9-11.48-5.28-15.8-10.03-3.12-3.43-5.51-7.41-7.11-11.85-.98-2.72-1.62-5.7-1.89-8.85-.06-.72-.13-1.67-.11-2.64,3.61,1.93,7.54,3.2,12.03,3.87,.56,.08,1.12,.12,1.68,.17l.36,.03c.12,0,.24,.01,.36,.01h1.25l-.18-.64c-.13-.45-.44-.65-.64-.79l-.1-.07c-4.6-3.37-8.19-7.58-10.69-12.53-1.92-3.8-3.12-7.88-3.58-12.13-.52-4.84-.04-9.71,1.42-14.46,.65-2.1,1.57-4.22,2.8-6.48,2.4,2.9,4.68,5.39,6.95,7.62,6.51,6.39,13.71,11.84,21.41,16.2,5.91,3.35,12.11,6.09,18.43,8.15,6.42,2.1,13.15,3.56,20.02,4.35,1.16,.13,2.31,.22,3.47,.31,.74,.06,1.48,.11,2.22,.18,.06,0,.12,0,.17,0,.31,0,.54-.1,.7-.29,.22-.27,.18-.6,.13-.86-.33-1.64-.57-3.46-.72-5.72-.12-1.74-.05-3.62,.22-5.93,.67-5.68,2.67-10.94,5.92-15.63,3.71-5.35,8.59-9.43,14.5-12.13,3.44-1.57,7.04-2.55,10.68-2.9,1.28-.12,2.57-.19,3.82-.19,6.99,0,13.51,1.97,19.38,5.87,1.98,1.31,3.84,2.85,5.71,4.71,.37,.37,.75,.54,1.21,.54,.14,0,.29-.02,.45-.05,5.43-1.15,10.77-2.94,15.87-5.33,1.54-.72,3.03-1.53,4.6-2.38,.15-.08,.3-.16,.45-.24-1.22,3.54-2.97,6.73-5.33,9.74-2.59,3.3-5.63,6.09-9.05,8.3l-1.78,1.15,2.1-.23c6.2-.68,12.24-2.27,18.43-4.84-2.81,4.04-6.12,7.86-9.83,11.36-1.83,1.73-3.95,3.49-6.46,5.36-.48,.36-.68,.79-.65,1.44,.1,2.49,.1,4.98,0,7.41-.08,1.96-.22,3.96-.44,6.13-.46,4.67-1.29,9.41-2.44,14.07-1.7,6.86-4.11,13.61-7.15,20.06-2.84,6.02-6.3,11.82-10.29,17.26-2.48,3.38-5.29,6.72-8.33,9.91-4.95,5.18-10.54,9.85-16.63,13.89-3.45,2.29-7.27,4.43-11.35,6.38-5.88,2.81-12.19,5.03-18.75,6.61-4.55,1.1-9.36,1.9-14.29,2.39-3.54,.35-7.19,.53-10.84,.53Z"/><path class="g" d="M119.87,1c6.89,0,13.31,1.95,19.11,5.78,1.95,1.29,3.79,2.81,5.64,4.65,.46,.46,.97,.68,1.56,.68,.18,0,.36-.02,.55-.06,5.47-1.15,10.84-2.96,15.98-5.36,1.32-.62,2.59-1.29,3.91-2.01-1.17,3-2.75,5.75-4.8,8.36-2.56,3.26-5.56,6.01-8.93,8.19l-3.56,2.3,4.21-.46c5.71-.63,11.29-2.02,16.97-4.23-2.57,3.5-5.51,6.82-8.77,9.9-1.82,1.72-3.92,3.46-6.42,5.33-.8,.6-.87,1.35-.85,1.86,.1,2.48,.1,4.96,0,7.37-.08,1.94-.22,3.94-.43,6.1-.46,4.65-1.28,9.36-2.43,14-1.69,6.83-4.09,13.55-7.12,19.96-2.83,5.99-6.27,11.77-10.24,17.18-2.47,3.37-5.26,6.68-8.29,9.86-4.92,5.15-10.49,9.8-16.54,13.81-3.43,2.27-7.23,4.41-11.29,6.35-5.85,2.79-12.12,5.01-18.65,6.58-4.53,1.09-9.32,1.89-14.23,2.38-3.52,.35-7.15,.53-10.79,.53-1.42,0-2.86-.03-4.3-.08-5.7-.21-11.54-.97-17.37-2.26-7.11-1.57-14.11-3.95-20.8-7.07-2.71-1.26-5.44-2.7-8.27-4.36,1.51,.08,3.01,.13,4.49,.13,16.18,0,31.13-5.07,44.45-15.06l.44-.33-.05-.55-.02-.2-.07-.84-.84-.07-.81-.07c-.58-.05-1.16-.1-1.74-.15-5.23-.48-10.23-2.19-14.86-5.09-4.59-2.88-8.38-6.73-11.25-11.44-1.09-1.78-2.04-3.75-2.83-5.86,1.94,.26,3.7,.38,5.35,.38,.48,0,.96-.01,1.44-.03,2.52-.12,4.86-.44,7.16-.99,.08-.02,.17-.04,.31-.09l.26-.08,3.3-1.02-3.33-.9c-.36-.1-.7-.19-1.02-.27-.63-.17-1.23-.32-1.8-.5-6.08-1.88-11.32-5.2-15.58-9.89-3.07-3.38-5.43-7.31-7.01-11.68-.98-2.72-1.59-5.57-1.86-8.72-.04-.5-.09-1.12-.11-1.77,3.46,1.74,7.21,2.9,11.45,3.54,.58,.09,1.17,.13,1.73,.17l.35,.03c.13,0,.27,.01,.4,.01,.09,0,.19,0,.29,0,.1,0,.2,0,.3,0h1.32l-.35-1.27c-.18-.64-.63-.93-.85-1.07-.03-.02-.05-.03-.08-.05-4.53-3.32-8.08-7.48-10.54-12.35-1.89-3.74-3.08-7.76-3.53-11.95-.51-4.77-.04-9.57,1.4-14.26,.57-1.86,1.36-3.73,2.42-5.74,2.24,2.67,4.37,4.99,6.51,7.09,6.54,6.42,13.78,11.9,21.52,16.28,5.94,3.36,12.17,6.12,18.52,8.19,6.45,2.11,13.22,3.58,20.12,4.37,1.17,.13,2.35,.23,3.49,.31,.74,.06,1.48,.11,2.21,.18,.08,0,.15,.01,.22,.01,.58,0,.91-.26,1.08-.47,.4-.49,.27-1.08,.23-1.28-.33-1.63-.56-3.43-.71-5.66-.12-1.71-.05-3.56,.22-5.84,.66-5.6,2.63-10.78,5.83-15.41,3.66-5.28,8.47-9.3,14.3-11.96,3.39-1.55,6.93-2.51,10.52-2.86,1.27-.12,2.53-.19,3.77-.19m0-1c-1.27,0-2.56,.06-3.86,.19-3.76,.36-7.38,1.36-10.84,2.94-6.04,2.75-10.93,6.86-14.7,12.3-3.31,4.78-5.32,10.08-6,15.86-.24,2-.37,4-.23,6.03,.14,1.95,.34,3.88,.73,5.79,.07,.35,.03,.55-.34,.55-.04,0-.08,0-.12,0-1.89-.18-3.79-.28-5.68-.49-6.79-.78-13.43-2.21-19.92-4.33-6.38-2.09-12.49-4.8-18.33-8.11-7.82-4.43-14.9-9.83-21.31-16.12-2.44-2.4-4.73-4.95-6.92-7.59-.15-.19-.29-.32-.42-.32-.11,0-.23,.09-.36,.33-1.17,2.12-2.17,4.33-2.88,6.64-1.48,4.79-1.98,9.66-1.44,14.66,.47,4.33,1.68,8.43,3.63,12.3,2.58,5.1,6.23,9.32,10.84,12.71,.2,.15,.46,.25,.56,.59-.21,0-.41,0-.59,0-.11,0-.22,0-.33-.01-.67-.05-1.34-.09-2-.19-4.2-.63-8.21-1.84-11.96-3.86-.19-.1-.33-.16-.43-.16-.17,0-.21,.18-.22,.58-.02,.92,.03,1.83,.11,2.75,.26,3.07,.87,6.07,1.91,8.97,1.61,4.48,4,8.49,7.21,12.01,4.42,4.86,9.76,8.23,16.02,10.17,.88,.27,1.78,.49,2.85,.78-.3,.09-.4,.13-.51,.16-2.29,.55-4.61,.85-6.97,.96-.46,.02-.93,.03-1.39,.03-1.98,0-3.94-.19-5.89-.47-.16-.02-.33-.11-.48-.11-.08,0-.16,.02-.22,.09-.23,.23-.03,.52,.05,.75,.83,2.35,1.87,4.61,3.17,6.73,2.94,4.82,6.78,8.76,11.57,11.77,4.69,2.94,9.77,4.74,15.3,5.24,.85,.08,1.7,.15,2.55,.22l.02,.2c-13.22,9.92-27.84,14.86-43.85,14.86-2.69,0-5.42-.14-8.19-.42l-.02,.16c.16,.12,.31,.24,.48,.35,3.58,2.22,7.26,4.26,11.08,6.04,6.75,3.14,13.74,5.53,21.01,7.14,5.79,1.28,11.64,2.07,17.55,2.29,1.45,.05,2.89,.08,4.34,.08,3.63,0,7.26-.17,10.89-.53,4.84-.48,9.63-1.27,14.36-2.41,6.51-1.57,12.8-3.76,18.84-6.65,3.95-1.89,7.77-4,11.41-6.42,6.09-4.03,11.67-8.67,16.72-13.96,3-3.15,5.81-6.46,8.38-9.96,3.99-5.45,7.45-11.22,10.33-17.34,3.06-6.48,5.46-13.19,7.18-20.15,1.16-4.66,1.98-9.37,2.46-14.14,.2-2.05,.36-4.1,.44-6.16,.1-2.49,.1-4.97,0-7.45-.02-.46,.08-.74,.45-1.02,2.26-1.69,4.45-3.46,6.51-5.4,3.91-3.68,7.39-7.73,10.4-12.18,.09-.13,.28-.26,.09-.52-6.23,2.71-12.7,4.57-19.49,5.32,3.55-2.29,6.59-5.12,9.17-8.41,2.57-3.28,4.52-6.91,5.8-11.08-2.15,1.15-4.09,2.26-6.12,3.21-5.05,2.37-10.3,4.14-15.76,5.29-.12,.03-.24,.04-.34,.04-.33,0-.59-.12-.86-.39-1.78-1.77-3.69-3.39-5.79-4.78-6.06-4.01-12.63-5.95-19.66-5.95h0Z"/></g></g><text class="e" transform="translate(89.57 39.18)"><tspan x="0" y="0">Come </tspan><tspan class="l" x="114.2" y="0">f</tspan><tspan x="126.65" y="0">oll</tspan><tspan class="j" x="172.72" y="0">o</tspan><tspan x="194.99" y="0">w</tspan><tspan x="0" y="46.15">us on our </tspan><tspan class="k" x="0" y="92.31">J</tspan><tspan x="14.27" y="92.31">ou</tspan><tspan class="h" x="58.74" y="92.31">r</tspan><tspan class="i" x="78.8" y="92.31">ney!</tspan></text></g></g></svg>